<svg width="202" height="288" viewBox="0 0 202 288" fill="none" xmlns="http://www.w3.org/2000/svg">
<path fill-rule="evenodd" clip-rule="evenodd" d="M156.076 157.064C153.899 156.288 151.802 155.393 149.89 154.075C144.381 149.976 140.788 143.808 137.393 137.964C132.612 129.464 129.205 120.407 126.85 110.958C125.839 106.899 125.495 102.192 123.196 98.5931C117.985 91.0571 102.704 92.0336 94.5895 93.3564C89.1556 94.3173 88.0325 100.395 86.7984 104.892C85.7708 108.628 85.0981 112.407 84.5334 116.237C83.19 117.119 81.6734 117.836 80.2277 118.461C64.4729 123.289 61.7039 132.24 55.6863 146.066C45.5227 166.163 17.9439 174.031 13.778 197.815C11.094 213.517 18.7266 228.289 26.5959 241.343C33.9245 255.601 44.1557 262.444 60.4494 259.076C75.732 255.649 90.4194 249.918 105.433 245.489C112.705 243.702 119.965 239.055 127.614 240.675C143.375 244.213 159.569 245.876 175.722 245.417C198.401 246.333 198.397 224.58 196.069 207.734C194.439 181.517 181.208 164.683 156.076 157.064Z" fill="#AE5D29"/>
<path fill-rule="evenodd" clip-rule="evenodd" d="M157.592 194.999C159.487 196.252 161.081 198.15 162.361 200.149C157.019 199.594 151.687 198.953 146.366 198.224C147.063 197.78 147.766 197.344 148.485 196.934C151.108 195.456 154.663 193.063 157.592 194.999ZM68.8454 210.779C67.8666 210.396 67.4879 208.905 67.1064 208.05C65.9104 205.369 64.8189 202.643 63.6832 199.935C67.9952 198.707 72.1884 197.344 76.6552 196.689C81.4582 195.986 86.3321 195.816 91.1794 195.974C100.998 196.294 110.725 197.897 120.378 199.617C130.02 201.335 139.661 202.985 149.37 204.28C158.883 205.549 168.425 206.477 177.986 207.292C179.843 207.451 182.94 208.118 184.434 206.658C185.617 205.501 185.655 203.367 184.175 202.426C183.253 201.84 181.918 201.831 180.864 201.696C179.538 201.525 178.206 201.412 176.872 201.323C176.328 201.288 175.785 201.255 175.241 201.221C179.606 199.577 184.166 198.68 188.898 198.93C189.166 200.554 190.372 202.226 191.031 203.566C192.184 205.906 193.082 208.274 193.672 210.818C194.905 216.135 194.958 221.654 194.61 227.077C194.29 231.599 193.603 236.601 190.054 239.803C187.367 242.228 183.576 243.126 180.059 243.408C175.971 243.736 171.82 243.386 167.766 242.838C162.081 242.07 156.369 241.054 150.795 239.692C140 237.055 129.653 232.859 120.106 227.17C115.451 224.396 111.008 221.275 106.289 218.606C101.48 215.886 96.3628 213.776 90.9896 212.466C84.9766 211 78.6906 210.374 72.5104 210.736C71.4379 210.799 69.8885 211.187 68.8454 210.779ZM61.8771 208.057C62.509 210.106 62.9925 212.446 64.3412 214.168C65.677 215.874 67.6924 216.477 69.7802 216.628C72.2976 216.811 74.8446 216.694 77.3675 216.788C82.5419 216.98 87.6454 217.82 92.592 219.36C97.2017 220.796 101.481 223.036 105.603 225.521C109.414 227.819 113.114 230.286 116.927 232.577C115.913 233.042 114.909 233.545 113.9 233.983C111.785 234.901 109.656 235.787 107.517 236.651C103.3 238.355 99.0654 240.017 94.7873 241.561C86.1609 244.674 77.3926 247.394 68.5188 249.711C64.2865 250.816 59.9941 252.107 55.5972 252.291C51.6983 252.454 48.0868 251.352 44.9423 249.035C38.4203 244.23 33.2313 237.294 29.0367 230.452C26.5446 226.388 24.3698 222.117 22.571 217.701C21.6612 215.468 20.8361 213.2 20.0934 210.906C19.745 209.829 19.4147 208.746 19.1019 207.658C18.9643 207.18 18.8325 206.7 18.7019 206.219C25.3711 204.185 32.1195 202.349 39.0263 201.33C42.7139 200.786 46.4507 200.51 50.1787 200.55C52.0291 200.57 53.8786 200.67 55.7192 200.861C56.71 200.963 57.6968 201.096 58.6793 201.26C59.0853 201.327 59.5026 201.427 59.9212 201.5C60.5605 203.69 61.2052 205.877 61.8771 208.057ZM199.738 199.352C200.098 198.625 200.249 197.91 200.378 197.119C200.476 196.516 200.737 195.666 200.509 194.883C200.253 194.005 199.556 193.22 199.056 192.472C198.504 191.645 197.953 190.817 197.402 189.989C196.3 188.333 195.2 186.676 194.102 185.017C189.619 178.243 185.167 171.45 180.707 164.662C176.749 158.637 172.859 152.558 168.78 146.615C165.293 141.532 161.492 136.534 156.719 132.581C150.684 127.583 143.498 125.229 135.992 123.392C135.172 122.542 134.077 122.077 132.906 122.171C131.253 120.297 129.938 118.988 129.342 116.604C129.057 115.462 129.146 112.254 128.034 111.579C126.712 110.776 126.022 111.838 125.658 113.036C124.438 117.041 125.838 122.426 129.058 126.438C127.701 131.125 125.902 137.786 122.693 141.541C119.256 145.561 114.503 146.813 109.375 146.895C99.596 147.052 89.8269 143.42 82.3677 137.125C80.1005 135.212 77.9949 133.075 76.0898 130.802C74.6609 129.097 72.9706 126.465 71.8528 124.477C71.8528 123.702 70.9371 122.891 80.2591 122.265C89.5811 121.639 90.2881 108.882 90.4954 107.146C90.6638 105.736 91.3801 103.548 90.3861 102.398C89.9643 101.91 89.0986 101.831 88.5637 102.163C87.5552 102.789 87.2238 104.39 86.9068 105.476C86.4626 106.999 85.0107 116.449 82.2595 117.544C80.9714 118.056 79.4942 118.065 78.1317 118.16C76.4492 118.277 74.7631 118.363 73.0874 118.559C72.4693 118.631 71.7951 118.831 71.1853 118.837C70.7885 118.841 70.3793 118.648 69.9958 118.513C68.7015 118.056 67.4082 118.398 66.0748 118.578C54.2858 120.161 42.1472 123.775 32.0917 130.277C23.2286 136.008 16.9845 144.251 12.8643 153.888C8.66036 163.722 6.25073 174.357 4.23135 184.827C3.55488 188.335 2.96413 191.859 2.45659 195.395C1.96609 198.812 1.35253 202.305 1.20566 205.757C1.14751 207.122 1.47409 208.391 1.97662 209.638C2.54256 211.042 3.88021 211.596 5.16322 212.252C7.97963 213.691 10.9507 214.808 14.0117 215.599C15.8817 218.999 17.4555 222.531 18.7202 226.198C18.251 227.127 18.2412 228.514 18.151 229.417C17.9272 231.666 17.8314 233.926 17.8114 236.185C17.771 240.713 18.0435 245.236 18.257 249.757C18.4736 254.341 19.1934 272.432 19.3107 274.641C19.4019 276.357 19.2791 278.757 20.1837 280.281C21.5737 282.622 25.0044 282.544 26.5934 280.645C66.0748 289.127 140.289 286.572 170.178 282.305C174.067 281.749 172.846 282.365 173.835 281.383C174.577 280.646 175.209 279.383 175.414 278.368C175.688 277.014 175.246 275.788 174.47 274.692C173.654 273.539 173.505 271.673 173.202 270.303C172.486 267.064 172.129 252.839 171.795 251.262C171.69 250.771 171.589 250.252 171.467 249.732C176.95 250.251 182.663 250.251 187.879 248.419C190.837 247.38 193.595 245.747 195.719 243.416C198.29 240.594 199.72 237.041 200.456 233.333C201.405 228.551 201.606 223.597 201.42 218.736C201.161 212.991 200.207 207.165 197.841 201.89C198.62 201.167 199.272 200.295 199.738 199.352Z" fill="black"/>
<path fill-rule="evenodd" clip-rule="evenodd" d="M107.602 6.33984C121.803 6.33984 136.492 17.3644 141.698 24.3994C147.717 32.5341 152.465 71.5845 150.238 84.8352C148.01 98.0858 136.946 112.528 117.738 112.528C98.5299 112.528 86.8406 110.159 86.3718 106.717C86.0594 104.423 81.8364 96.8896 73.7029 84.1181C65.3842 81.7748 61.2086 77.8044 61.1758 72.207C61.1436 66.6097 63.3725 62.7927 67.8627 60.7562C66.2617 38.6665 67.4772 24.7461 71.5093 18.9951C77.5573 10.3684 93.4008 6.33984 107.602 6.33984Z" fill="#AE5D29"/>
<path fill-rule="evenodd" clip-rule="evenodd" d="M100.372 3.01863L100.625 3.01974C116.338 3.12141 132.319 10.3628 141.667 23.0125L141.948 23.3975C141.963 23.4175 142.243 23.8345 142.309 23.9534C142.697 24.6498 143.153 25.3014 143.503 26.0096C143.799 26.6108 143.995 27.2824 144.213 27.9227L144.278 28.1138C144.836 29.7119 145.306 31.325 145.722 32.9657C146.527 36.1595 147.155 39.4033 147.765 42.6396C149.946 54.2283 151.372 65.9826 152.091 77.7521L152.233 80.1187C152.378 82.5732 152.487 85.0382 152.212 87.4847C151.894 90.3328 151.077 93.0055 149.839 95.5855C148.698 97.9652 147.227 100.169 145.544 102.196C144.644 103.281 143.688 104.335 142.513 105.129C141.577 105.76 140.484 106.176 139.431 106.577C137.718 108.29 135.52 109.585 133.371 110.62C129.83 112.321 125.991 113.26 122.107 113.731C118.135 114.209 114.123 114.094 110.184 113.41C106.42 112.759 102.385 111.093 100.067 107.92C99.8669 107.647 100.239 107.389 100.484 107.501C107.213 110.62 114.773 111.434 122.107 110.45C125.528 109.991 128.894 109.044 132.018 107.574C134.655 106.334 136.878 104.531 139.244 102.897C139.704 102.284 140.169 101.68 140.7 101.119L141.527 100.25C142.146 99.5968 142.753 98.9352 143.305 98.2207C145.011 96.0189 146.424 93.5215 147.358 90.8939C149.172 85.779 148.681 80.2269 148.361 74.8965L148.333 74.4267C148.003 68.7256 147.465 63.0445 146.72 57.3834C145.974 51.7149 145.026 46.0688 143.906 40.4629C143.353 37.7 142.733 34.9546 142.185 32.1917C141.902 30.7664 141.705 29.3211 141.49 27.8808C141.36 27.0041 141.362 26.1599 141.36 25.3033C141.335 25.3433 141.305 25.3809 141.275 25.4185C141.365 25.6314 141.302 25.9044 141.082 26.0297C140.249 26.5056 139.289 26.3453 138.351 26.3478C137.355 26.3528 136.36 26.3553 135.365 26.3578C134.328 26.3616 133.291 26.3616 132.254 26.36L129.144 26.3528L116.704 26.3152C108.557 26.2908 100.272 26.6152 92.1506 25.846L91.5306 25.7847C90.8925 25.7111 83.6907 24.8291 81.7432 24.6013L81.6841 24.5944C78.1248 24.1836 74.616 23.5749 71.157 22.6631C72.2872 23.1165 73.3755 23.7277 74.4957 24.1911C75.9416 24.7873 77.4245 25.3083 78.9079 25.8067C81.9517 26.8312 85.0003 27.8257 88.0316 28.8828C88.9007 29.1853 90.8756 36.6418 91.3734 37.8215L91.388 37.8553C91.6406 38.4239 91.9885 39.0476 91.7957 39.6939C91.3708 41.1217 89.117 42.1787 87.9993 42.9853L86.8499 43.816L85.3469 44.9051C84.7304 45.3473 84.1612 45.6857 83.3545 45.4326C83.352 45.4301 83.3498 45.4301 83.3473 45.4301C84.0376 48.6388 84.3727 59.0166 84.4753 60.8377C84.5651 62.4233 85.0303 64.4547 84.2899 65.9001C84.1149 66.2432 83.6599 66.5138 83.272 66.4862C81.5813 66.3585 79.8908 66.2332 78.2001 66.108C77.7471 66.0729 77.3344 65.8149 77.2094 65.354L77.2044 65.3289C77.1496 65.344 77.0871 65.334 77.0346 65.2789C76.942 65.1862 76.847 65.096 76.7492 65.0083C74.5235 63.0194 71.042 62.5285 68.2955 63.563C66.8551 64.1041 65.2169 65.0158 64.2012 66.1981C63.0733 67.5107 62.8309 69.3443 62.8282 71.0201C62.8232 74.2514 63.9889 77.5228 66.3672 79.7646C68.5526 81.8226 71.3725 82.4215 74.2095 83.0105L74.5135 83.0736C75.161 83.2089 75.3663 84.1758 74.8786 84.5816C76.1767 85.854 77.2972 87.372 78.3901 88.7722C79.8414 90.6298 81.2294 92.5611 82.5796 94.4965L83.2314 95.4328C85.5542 98.7528 88.9163 103.326 87.4541 107.476C87.259 108.035 86.4436 108.235 86.1257 107.649C85.0828 105.72 84.5 103.596 83.5096 101.645C82.5369 99.7311 81.3264 97.9577 80.1256 96.1842L79.4331 95.1565C78.28 93.44 77.1377 91.705 76.0789 89.937L75.3416 88.7128C74.6489 87.5568 73.9632 86.3623 73.4528 85.1201C70.0388 85.9442 66.3272 84.1106 63.9286 81.6684C60.9126 78.5924 59.4945 74.061 59.8844 69.8002C60.0897 67.5708 60.7475 65.4141 62.378 63.811C62.543 63.6507 62.7159 63.4979 62.8934 63.3451C62.8309 63.3125 62.7784 63.2624 62.7531 63.2023C61.6601 60.6022 61.4275 57.5037 61.335 54.7032C61.2377 51.8075 61.3002 48.9044 61.5201 46.0137C61.923 40.7134 62.8782 35.4406 64.3941 30.3456C66.6373 22.8159 70.4917 15.444 76.6494 10.3916C83.2157 5.00294 92.0129 3.00466 100.372 3.01863ZM67.6856 68.8784C68.6129 68.4569 70.0596 69.2076 70.8851 69.686L70.9392 69.7175C73.3778 71.1378 75.1138 73.5575 75.9164 76.2378C76.4316 77.9661 73.5379 78.655 73.2928 76.9617C73.0929 75.5815 72.6325 74.2889 71.8749 73.1342C71.6946 73.1943 71.5195 73.272 71.3622 73.3722C70.7594 73.7629 70.409 74.4342 69.5714 74.334C68.9509 74.2614 68.3156 73.8306 68.3581 73.1192C68.4259 71.9444 69.3711 71.476 70.3842 71.4158C70.2396 71.2862 70.0937 71.158 69.9444 71.0343L69.7808 70.9028C69.5954 70.7687 67.6135 69.3996 67.5565 69.7517L67.5553 69.7726C67.5578 69.9129 67.3702 69.9931 67.2752 69.8879C66.8925 69.4771 67.2479 69.0788 67.6856 68.8784Z" fill="black"/>
<path fill-rule="evenodd" clip-rule="evenodd" d="M123.657 94.4285C121.972 93.7416 120.469 92.5957 119.37 91.132C118.988 90.6231 118.889 90.0858 118.969 89.5943C119.059 89.0417 119.386 88.5408 119.832 88.2049C120.28 87.8679 120.839 87.7017 121.381 87.7864C121.851 87.86 122.319 88.1173 122.689 88.651L122.767 88.7578C123.42 89.6412 124.272 90.3661 125.242 90.8333C126.177 91.2837 127.223 91.4938 128.305 91.3716C130.366 91.1389 131.787 90.0249 133.297 88.512C133.484 88.321 133.671 88.124 133.86 87.9238C133.979 87.7424 134.143 87.6258 134.327 87.5646C134.53 87.4966 134.76 87.5005 134.971 87.574C135.174 87.6448 135.355 87.7791 135.477 87.9579C135.593 88.1277 135.659 88.3376 135.637 88.579C135.499 90.1468 134.679 91.546 133.514 92.6447C132.22 93.865 130.505 94.7092 128.89 95.0052C127.111 95.3314 125.298 95.0977 123.657 94.4285ZM129.729 70.2414C131.622 71.3912 134.506 74.0722 132.47 76.9226C130.073 79.4358 126.622 76.5542 124.922 75.2509C123.345 74.2409 121.574 76.8386 123.037 78.018C135.324 87.1096 140.31 70.542 130.687 68.8896C129.627 68.7075 129.233 69.8857 129.729 70.2414ZM107.711 59.6656C107.92 57.0714 111.873 56.4823 112.266 59.0494C112.618 61.3488 112.204 63.4612 111.167 65.5315C110.177 67.5094 107.688 66.5866 107.5 64.7856C107.248 62.3714 107.581 61.2793 107.711 59.6656ZM137.803 58.5171C138.354 57.7957 139.15 57.3032 140.103 57.5815C143.082 58.4515 142.204 62.678 141.158 64.7352C140.59 65.8524 138.752 66.1357 137.922 65.1521C136.568 63.5479 135.92 60.3444 137.641 58.7643C137.687 58.6827 137.739 58.6003 137.803 58.5171ZM111.125 48.3144L111.596 48.2321C113.052 47.9805 114.862 47.7387 115.891 48.9083C116.437 49.5285 116.625 50.6813 115.891 51.2749C114.6 52.3195 113.172 51.9147 111.625 52.0031C110.35 52.0763 109.124 52.2872 107.896 52.6381C105.201 53.4079 103.005 54.8131 100.703 56.3561C100.401 56.5585 100.093 56.1725 100.237 55.8902C101.566 53.2894 104.141 51.153 106.72 49.8507C108.096 49.1556 109.603 48.5789 111.125 48.3144ZM135.088 47.1494L135.448 47.223C139.367 48.0418 144.459 49.6773 146.315 53.5247C146.386 54.0687 146.311 54.1853 146.25 54.2615L146.23 54.2868C146.18 54.3519 146.14 54.4416 145.904 54.5156C145.839 54.5 145.772 54.4835 145.706 54.466C144.855 54.2432 144.182 53.9362 143.53 53.6177L142.824 53.2698C142.004 52.8681 141.177 52.4811 140.301 52.1953C138.43 51.5856 136.506 51.1562 134.553 50.9268C134.13 50.8772 133.722 50.7343 133.4 50.4896C133.095 50.2572 132.862 49.9356 132.755 49.508C132.617 48.9547 132.657 48.5357 132.954 48.0365C133.177 47.6616 133.497 47.4018 133.864 47.2526C134.238 47.1005 134.664 47.0646 135.088 47.1494Z" fill="black"/>
</svg>
