<svg width="201" height="295" viewBox="0 0 201 295" fill="none" xmlns="http://www.w3.org/2000/svg">
<g filter="url(#filter0_d_1_787)">
<path fill-rule="evenodd" clip-rule="evenodd" d="M13.5048 271.325C13.1692 271.336 13.275 271.238 13.3983 271.214C13.4338 271.251 13.4693 271.288 13.5048 271.325ZM23.4137 278.685C32.7904 279.796 42.1788 278.78 51.5095 277.761C70.4124 276.361 89.1825 280.44 108.123 279.196C131.793 278.199 155.527 276.328 179.118 279.482C185.643 279.632 196.051 281.391 193.685 271.298C190.576 245.349 186.42 219.531 181.969 193.782C178.196 179.347 177.923 154.379 167.592 144.34C166.081 142.962 160.663 138.505 159.231 137.906C152.11 135.257 139.272 133.19 133.976 127.574C129.686 120.321 131.682 110.424 125.011 104.585C119.164 99.8152 106.404 100.823 100.153 104.405C95.2215 107.6 94.449 113.806 91.3761 118.395C90.6181 119.495 88.8176 122.146 87.8009 123.001C85.3261 125.381 76.6338 127.883 74.1236 128.342C59.9582 131.243 52.895 133.035 41.7537 142.44C12.6427 172.135 16.7693 224.657 8.71419 263.488C8.38451 267.757 5.78727 273.55 10.421 276.298C14.412 278.209 19.1044 278.001 23.4137 278.685Z" fill="#AE5D29"/>
<path fill-rule="evenodd" clip-rule="evenodd" d="M130.729 117.702C130.763 117.601 130.926 117.584 130.951 117.702C131.348 119.518 132.092 121.509 132.847 123.211C133.614 124.936 134.662 126.52 135.986 127.866C138.76 130.684 142.328 131.97 146.241 131.973L146.335 131.975C146.353 131.844 146.373 131.712 146.392 131.581L146.419 131.384C146.776 128.684 149.984 128.762 150.611 130.8C150.929 130.901 151.247 131.002 151.562 131.108L151.625 131.131C152.157 131.333 153.957 132.228 154.287 131.99C155.014 131.467 155.845 132.066 156.122 132.734C156.573 133.827 156.648 135.178 156.795 136.365L156.815 136.518L156.837 136.703C167.132 139.377 172.909 149.668 175.858 159.149C177.456 164.288 178.501 169.591 179.552 174.863C180.676 180.503 181.712 186.157 182.809 191.799C184.972 202.918 187.018 214.063 188.796 225.248L189.312 228.497C190.94 238.783 192.527 249.062 193.861 259.395C194.581 264.965 195.257 270.541 195.908 276.122C196.024 277.117 196.14 278.112 196.255 279.108L196.426 280.603C196.578 281.944 196.837 283.269 196.174 284.523C194.736 287.243 190.382 287.223 190.135 283.74C190.086 283.047 190.32 282.518 190.707 282.148L190.702 282.09C190.698 282.055 190.694 282.029 190.693 282.017C190.564 281.325 190.53 280.593 190.451 279.893C190.278 278.401 190.111 276.907 189.94 275.412C189.612 272.564 189.282 269.716 188.939 266.87C188.247 261.097 187.514 255.332 186.738 249.571L185.968 243.876C183.393 224.89 180.71 205.909 177.18 187.074C176.218 181.947 175.23 176.827 174.216 171.709C173.254 166.863 172.174 162.039 170.561 157.36C167.928 149.717 163.324 142.56 156.933 137.543C157.032 138.502 157.103 139.465 157.194 140.424C157.429 142.885 157.678 145.344 157.929 147.803C158.844 156.712 160.084 165.606 162.2 174.318C163.248 178.635 164.525 182.895 166.081 187.057C166.848 189.106 167.684 191.129 168.601 193.115C169.509 195.079 171.099 197.178 171.195 199.366C171.24 200.379 170.179 201.278 169.198 201.169C169.657 205.2 169.915 209.273 170.189 213.294C170.589 219.118 170.907 224.953 171.373 230.772C172.206 241.197 173.252 251.606 174.347 262.006C174.564 264.068 174.799 266.128 175.033 268.188L175.228 269.918C175.36 271.039 175.559 272.382 174.963 273.377C175.496 274.66 175.861 275.979 176.073 277.353C176.341 279.063 175.363 280.98 173.365 280.906C173.138 280.899 172.911 280.879 172.685 280.855C170.833 281.283 168.986 281.66 167.062 281.673C164.607 281.69 162.146 281.641 159.69 281.623C154.938 281.591 150.186 281.559 145.435 281.52C128.233 281.382 111.024 281.389 93.8252 281.113L86.9437 281.004C80.6352 280.903 74.3258 280.786 68.0204 280.556C63.6781 280.399 59.336 280.239 54.9959 280.064L54.1123 280.03C50.283 279.891 46.449 279.819 42.6619 279.233C42.567 279.217 42.5259 279.119 42.5406 279.032L42.546 279.009L42.3808 278.972C42.2846 279.386 40.2873 277.647 40.3021 276.491C39.4736 275.414 39.8607 273.695 39.9495 272.448C40.0358 271.233 40.1443 270.016 40.2404 268.801C40.4451 266.207 40.6202 263.61 40.8298 261.016C41.6756 250.554 42.4054 240.066 42.8789 229.582C43.1181 224.297 43.3104 219.01 43.5126 213.725C43.6036 211.319 43.7304 208.911 43.9666 206.515L44.0279 205.917C44.2869 203.488 44.2622 200.876 45.1573 198.587C45.1696 198.555 45.2115 198.555 45.2239 198.587C46.1288 200.815 46.2151 203.404 46.3976 205.848C46.4297 205.838 46.4617 205.833 46.4962 205.826C47.7464 205.232 49.0089 204.698 50.1925 203.963C50.3528 203.865 50.5081 203.761 50.6659 203.66C52.5276 197.969 54.6852 192.371 56.6702 186.717C63.0838 168.433 66.6247 148.961 67.4088 129.6C62.5167 132.751 57.1886 135.203 52.0092 137.836L51.524 138.083C46.4223 140.69 41.5375 143.649 37.9053 148.17C34.7392 152.107 32.6704 156.904 30.7347 161.529C28.656 166.498 26.782 171.557 25.0683 176.662C21.5915 187.02 18.8988 197.631 16.7979 208.351C14.7241 218.931 13.2422 229.589 12.2509 240.322C11.7454 245.797 11.2843 251.276 10.8972 256.763C10.6999 259.54 10.5249 262.319 10.3621 265.101C10.2832 266.451 10.224 267.804 10.1353 269.154C10.081 269.932 10.0711 270.735 9.8147 271.475C9.60017 272.09 9.22044 272.606 8.86536 273.15C8.21685 274.143 6.57955 274.323 5.97049 273.15L5.70676 272.642C5.35768 271.966 5.0389 271.285 4.99156 270.504C4.94717 269.765 5.03841 268.994 5.08033 268.252C5.1617 266.752 5.2554 265.249 5.3491 263.748C5.54637 260.592 5.76582 257.436 6.01241 254.282C6.5031 247.965 7.13435 241.665 7.92835 235.377C10.7221 213.294 14.7562 191.326 22.4545 170.369C24.3581 165.188 26.4812 160.048 28.878 155.074C31.1958 150.264 34.1277 145.723 38.3837 142.412C42.3014 139.363 46.8554 137.323 51.3803 135.342L51.9457 135.094C57.0179 132.879 62.0802 130.494 67.3768 128.849C67.2584 128.863 67.1425 128.878 67.0417 128.913C66.9255 128.95 66.8568 128.799 66.9283 128.718C67.2288 128.385 67.3546 128.043 67.7001 127.715C67.9386 127.489 68.1867 127.275 68.4419 127.068L68.8092 126.776C69.4811 126.243 70.1877 125.698 71.0336 125.513C72.2298 125.251 72.8166 126.338 72.481 127.188C72.6536 126.964 73.1172 127.03 73.238 127.338C77.1735 137.479 79.7577 148.214 85.0543 157.796C88.965 164.875 94.2123 171.411 101.176 175.686C104.916 177.982 109.197 179.746 113.618 180.025C117.588 180.274 121.408 179.266 124.784 177.184C131.328 173.151 135.601 166.07 138.649 159.208C142 151.654 144.392 143.605 145.797 135.444C141.344 135.506 136.644 133.476 133.683 130.167C132.124 128.425 130.963 126.303 130.374 124.042C129.779 121.76 129.969 119.885 130.729 117.702ZM93.3689 111.777C93.9117 110.808 95.115 110.488 96.0988 110.882C97.1909 111.321 97.5191 112.38 97.3638 113.457C97.1835 114.719 96.3723 116.081 95.7413 117.182C95.0804 118.335 94.2297 119.398 93.3492 120.39C91.6924 122.263 89.9192 123.95 87.8161 125.33C85.7227 126.703 83.3552 127.73 80.9217 128.304L80.3431 128.439C78.4501 128.871 75.7568 129.367 74.1799 128.339C74.1037 128.289 74.1059 128.188 74.1799 128.139C75.0331 127.545 76.175 127.439 77.1562 127.159C78.2263 126.851 79.2992 126.501 80.3223 126.062C82.342 125.195 84.2752 124.051 85.9961 122.687C87.7249 121.317 89.3965 119.683 90.5532 117.798C91.1351 116.852 91.6308 115.859 92.1064 114.859C92.5875 113.856 92.8289 112.743 93.3689 111.777Z" fill="black"/>
<path fill-rule="evenodd" clip-rule="evenodd" d="M158.108 66.9595C158.01 61.4342 157.901 55.7983 157.081 50.3268C156.279 44.9775 154.074 40.1423 150.283 36.2579C142.232 28.0069 130.562 25.9915 119.698 24.1446L101.125 20.9869C95.4592 20.0237 89.4142 18.4841 83.6893 19.8501C80.8683 20.5232 78.4727 22.0869 76.2832 23.937C74.1727 25.7202 71.9036 27.6352 70.4736 30.0343C69.0411 32.4369 68.5483 35.2454 68.0826 37.9627C67.5573 41.0263 67.1493 44.1138 66.8594 47.2087C66.2785 53.4093 66.1992 59.6566 66.6205 65.8701C66.8247 68.8839 67.1495 71.889 67.5642 74.8808C67.7698 76.3644 68.0023 77.8442 68.2648 79.3189C68.3422 79.7537 68.401 80.2352 68.4803 80.7216C67.8945 82.3904 67.5615 84.1186 67.5884 85.8395C67.6674 90.9085 71.9393 94.0999 76.246 95.8133C78.7431 96.8068 81.3537 97.4819 83.8073 98.5918C86.3883 99.7591 88.1452 101.652 89.9099 103.811C93.2756 107.928 97.0737 111.629 101.411 114.716C110.606 121.262 122.252 124.359 133.409 122.008C136.085 121.445 138.786 120.569 141.192 119.25C143.733 117.857 145.643 115.839 147.247 113.452C150.226 109.022 152.362 104.034 153.978 98.9578C155.626 93.7797 156.796 88.5923 157.434 83.193C158.07 77.8112 158.204 72.3746 158.108 66.9595Z" fill="#AE5D29"/>
<path fill-rule="evenodd" clip-rule="evenodd" d="M98.7837 1.75862C106.46 0.700946 117.054 4.13856 120.877 11.07C139.127 6.75994 162.145 6.61877 177.187 20.9667C192.883 37.9864 173.168 60.4271 160.096 65.4866C161.047 70.1201 159.563 99.8041 149.063 113.045C140.73 124.264 121.323 129.441 112.343 116.041L112.273 115.931C111.311 114.383 112.14 114.433 113.127 115.584C121.921 123.33 133.876 123.463 143.09 115.287C160.356 100.345 158.576 63.7073 150.36 42.5118C126.964 39.9377 101.914 47.0413 85.7541 64.6837L86.8468 71.2736C87.033 72.3963 87.2445 73.518 87.4058 74.6447C87.5091 75.3666 87.5207 76.0845 87.0214 76.6689C85.3729 78.5979 82.5945 75.6992 80.3085 74.5461C79.6336 74.451 78.9575 74.4143 78.2945 74.4611C67.3113 75.8783 69.4753 97.2214 81.5465 93.4802C82.5608 92.8473 83.4322 93.0404 83.8257 93.9589C86.7029 96.599 88.6001 101.308 93.3804 105.843C95.0671 107.544 96.602 108.967 98.4992 110.332C99.6135 111.461 102.976 112.612 101.91 114.544C99.8944 118.939 88.0079 105.132 85.9063 101.313C79.3218 103.918 72.0247 103.033 65.2011 102.396C29.2029 100.521 34.0086 62.509 63.5155 38.5097C69.0698 34.4136 75.1978 31.0721 81.5679 28.5007C82.4376 28.1496 82.0576 26.7192 81.1757 27.0752C76.9607 28.7769 72.8518 30.8023 68.935 33.1465L68.9291 31.745C68.9233 29.3845 68.9603 26.9269 69.3696 24.7701C69.5742 23.2757 69.9183 21.6794 70.448 20.4786C71.1029 16.7971 81.3623 4.16024 98.7837 1.75862ZM77.8141 79.3611C78.3699 78.8321 79.4075 79.4629 79.9023 79.4471C81.1677 79.6205 82.3698 80.1559 83.3074 80.8167C83.9264 81.164 84.3602 81.4902 84.7228 81.7903L84.7326 81.7876C84.7299 81.7876 84.7264 81.7903 84.7235 81.7911L84.7576 81.8142C85.2855 82.1899 87.2178 84.306 85.997 83.7369C85.906 83.6184 85.8128 83.5046 85.7188 83.393C85.7087 83.4082 85.6947 83.4233 85.678 83.4378L85.7466 83.5397C86.7842 85.1033 84.9927 83.456 84.7171 83.0185C84.7041 83.0291 84.6893 83.0362 84.6748 83.0439L85.0337 83.4815C85.0839 83.5436 85.1234 83.5932 85.1561 83.6351L85.2318 83.7083C86.4315 84.8896 86.469 85.9527 85.0752 84.2062C85.13 84.2885 85.174 84.3757 85.1802 84.4531L85.2628 84.5586C86.3571 85.9712 85.467 85.4695 84.9232 84.8662L84.8777 84.8143L84.887 84.8284C85.3929 85.6091 84.3892 85.0613 84.2118 84.6437L84.2043 84.6248C84.011 84.4668 83.8921 84.2896 83.8513 84.2448L83.8438 84.2373C82.9028 83.2715 81.5388 82.4543 80.3802 82.083C80.2122 82.051 80.0423 82.0254 79.8706 82.0071C79.1739 81.8514 78.4695 81.7448 77.7577 81.6871C77.6707 81.6768 77.5824 81.6127 77.5165 81.5299C76.4402 81.4936 76.7724 81.0516 77.219 80.9696L77.2268 80.9682L77.1382 80.9607C76.4475 80.8932 75.9758 80.645 76.6742 80.4926L76.7627 80.475C76.7518 80.458 76.7422 80.4409 76.7329 80.424C76.1348 80.3582 76.5251 79.7757 76.8571 79.9167C76.7174 79.4592 77.3559 79.6875 77.4356 79.6196C77.4963 79.552 77.5718 79.4924 77.6153 79.4892C77.8077 79.3532 77.7144 79.3655 77.8141 79.3611ZM81.4737 71.9538L81.3335 72.0359C81.2202 72.1021 81.1036 72.1462 80.9865 72.1721C81.1518 72.2426 81.3151 72.3187 81.4767 72.4C81.4741 72.3006 81.4722 72.2014 81.4722 72.1023L81.4737 71.9538Z" fill="black"/>
<path fill-rule="evenodd" clip-rule="evenodd" d="M125.349 91.3257C126.728 89.0585 129.668 94.6124 129.981 95.5674C130.257 96.4134 130.44 97.28 130.533 98.1566C131.602 98.3961 132.713 98.3965 133.808 98.1867C135.437 97.8745 136.433 96.9996 137.848 96.2485C138.826 95.7294 140.058 96.3381 140.566 97.1989C141.164 98.2122 140.783 99.2639 139.997 100.019C138.505 101.452 135.57 101.781 133.623 101.4C132.508 101.182 131.485 100.764 130.583 100.157C130.577 100.27 130.573 100.384 130.564 100.497L130.546 100.693C130.397 102.282 129.96 104.28 128.725 105.313C126.699 107.009 124.2 103.748 126.168 102.054L126.229 102.003C127.452 101.016 127.719 98.3658 127.653 96.9063C127.61 95.9537 127.436 94.9889 127.135 94.0816L127.073 93.9009C126.983 93.6446 125.995 91.2135 125.638 91.5231L125.621 91.5405C125.473 91.7162 125.236 91.5116 125.349 91.3257ZM136.362 78.5322C138.224 79.6631 141.061 82.3002 139.058 85.1039C136.7 87.5759 133.305 84.7415 131.633 83.4596C130.081 82.4662 128.339 85.0213 129.778 86.1813C141.866 95.1239 146.772 78.8279 137.304 77.2025C136.261 77.0234 135.874 78.1824 136.362 78.5322ZM116.479 68.079C118.299 67.7565 120.163 68.2086 121.669 69.2724L121.783 69.3545C123.233 70.4146 124.857 72.2761 124.024 74.1035C123.69 74.8373 122.689 74.9523 122.054 74.6197C120.997 74.0658 120.806 72.7031 119.863 71.9489C119.089 71.3307 118.048 70.9557 117.051 71.0462C114.711 71.2585 113.271 73.5649 112.545 75.5525C112.452 75.8068 112.078 75.9056 111.932 75.6326C110.218 72.4316 113.252 68.6511 116.479 68.079ZM145.627 66.8709C149.113 66.5839 153.194 70.1949 152.276 73.8714C151.836 75.6355 149.217 75.585 148.751 73.8714C148.495 72.9285 148.521 72.0943 147.841 71.3113C147.28 70.6648 146.484 70.2893 145.627 70.3469C144.683 70.4105 143.813 70.8818 143.151 71.5443C142.554 72.1426 142.196 73.018 141.578 73.5474C141.425 73.6775 141.221 73.6859 141.071 73.5474C140.006 72.5661 140.645 70.5231 141.32 69.4986C142.287 68.0326 143.861 67.0166 145.627 66.8709ZM109.841 61.5584C112.077 59.5804 116.14 57.6702 119.156 58.6437C120.889 59.2032 121.645 61.9945 119.71 62.8792C117.469 63.9037 114.885 63.4868 112.604 64.5487C111.646 64.9949 110.745 65.5525 110.078 66.3702C109.552 67.0148 109.017 67.8628 108.258 68.2344C108.058 68.3322 107.787 68.3347 107.627 68.1533C105.961 66.2705 108.386 62.8448 109.841 61.5584ZM141.784 58.5455C143.166 58.1579 144.699 58.1658 146.103 58.4092C147.507 58.6527 148.932 59.2339 150.078 60.0817L150.211 60.181C151.461 61.1228 152.954 62.4933 152.874 64.1618C152.807 65.5551 151.341 66.4975 150.074 65.7672C149.042 65.1717 148.556 63.9787 147.682 63.1844C146.96 62.5288 146.113 62.0119 145.209 61.6497C144.205 61.2473 143.199 61.0588 142.122 61.0409C141.292 61.0271 140.457 61.2991 139.643 61.386C139.71 61.5235 139.067 61.4595 138.698 61.3375C138.425 61.2212 138.423 60.876 138.518 60.6521C138.987 59.5426 140.697 58.85 141.784 58.5455Z" fill="black"/>
</g>
<defs>
<filter id="filter0_d_1_787" x="0" y="0" width="202" height="296" filterUnits="userSpaceOnUse" color-interpolation-filters="sRGB">
<feFlood flood-opacity="0" result="BackgroundImageFix"/>
<feColorMatrix in="SourceAlpha" type="matrix" values="0 0 0 0 0 0 0 0 0 0 0 0 0 0 0 0 0 0 127 0" result="hardAlpha"/>
<feOffset dy="4"/>
<feGaussianBlur stdDeviation="2"/>
<feComposite in2="hardAlpha" operator="out"/>
<feColorMatrix type="matrix" values="0 0 0 0 0 0 0 0 0 0 0 0 0 0 0 0 0 0 0.25 0"/>
<feBlend mode="normal" in2="BackgroundImageFix" result="effect1_dropShadow_1_787"/>
<feBlend mode="normal" in="SourceGraphic" in2="effect1_dropShadow_1_787" result="shape"/>
</filter>
</defs>
</svg>
