<svg width="202" height="288" viewBox="0 0 202 288" fill="none" xmlns="http://www.w3.org/2000/svg">
<path d="M168.421 181.949H111.025V252.587H168.421V181.949Z" fill="#FDEA6B"/>
<path fill-rule="evenodd" clip-rule="evenodd" d="M94.2847 112.857C100.472 108.149 116.004 106.032 122.608 110.565C129.13 115.118 129.841 122.48 132.88 129.253C135.748 127.901 140.483 129.837 141.314 132.496C142.345 133.75 142.392 137.274 143.103 138.96C174.042 143.882 178.739 167.989 182.463 195.357C187.39 223.128 198.573 250.839 193.718 279.416C194.351 280.331 194.85 281.22 195.311 282.276C196.416 284.155 194.992 286.815 192.764 286.712C189.878 286.459 187.022 286.114 184.123 286.006C176.088 285.727 168.045 285.76 160.007 285.862L158.911 285.876C118.399 286.38 77.8905 287.374 37.3775 287.637C35.9078 287.639 35.1882 286.322 35.3844 285.022C35.7797 282.406 36.1464 279.788 36.5291 277.171C26.9467 279.7 16.7598 280.337 7.20456 277.437C6.53611 276.756 8.76201 277.125 9.11516 277.022C0.321307 271.016 2.94748 258.365 3.72646 249.252C8.57028 218.029 10.2779 183.482 28.9927 156.838C37.089 145.965 48.959 137.356 62.5984 135.419L62.9768 135.367C66.9649 134.836 71.4097 134.664 74.8966 132.496C78.8184 129.367 80.4896 123.586 84.6155 123.532C85.9779 123.514 87.8312 125.236 89.8256 126.406C89.9745 123.833 91.3617 121.662 91.668 119.667L91.6928 119.497C92.0125 117.171 91.5747 115.079 94.2847 112.857ZM160.776 196.181C152.081 190.145 129.621 193.178 129.106 193.516C127.974 194.26 127.487 194.326 126.875 195.292C126.27 195.373 125.666 195.456 125.062 195.541C123.852 195.937 124.749 197.425 126.147 196.894C125.306 200.52 127.782 203.098 128.767 206.683C129.087 207.846 128.779 209.939 128.767 211.129C128.863 212.645 130.54 214.436 130.261 215.957C129.267 221.365 123.874 226.64 126.147 231.884C127.654 234.846 132.184 236.357 135.196 237.364C141.437 239.758 152.311 237.274 155.937 231.884C157.871 229.01 160.111 221.759 161.265 219.51L161.52 215.942C162.151 207.073 162.711 197.525 160.776 196.181Z" fill="#EDB98A"/>
<path fill-rule="evenodd" clip-rule="evenodd" d="M84.2938 123.548L86.7821 125.074L101.233 132.213C104.035 132.997 105.436 133.937 105.436 135.032V146.184C105.436 147.676 108.065 151.058 113.323 156.33L118.181 151.49L118.072 150.857C117.61 148.126 117.379 146.3 117.379 145.377C117.379 144.385 122.131 140.619 131.636 134.078L135.795 130.166L135.351 128.818C137.915 128.939 140.696 130.517 141.314 132.496C142.345 133.75 142.392 137.274 143.103 138.96C174.042 143.882 178.739 167.989 182.463 195.357C187.39 223.128 198.573 250.839 193.718 279.417C194.351 280.331 194.85 281.221 195.311 282.277C196.416 284.156 194.992 286.816 192.764 286.713C189.878 286.46 187.022 286.114 184.123 286.006C176.088 285.727 168.045 285.76 160.007 285.862L158.911 285.877C118.399 286.381 77.8905 287.374 37.3775 287.637C35.9078 287.639 35.1882 286.322 35.3844 285.022C35.7797 282.406 36.1464 279.788 36.5291 277.171C26.9467 279.7 16.7598 280.337 7.20456 277.437C6.53611 276.756 8.76201 277.125 9.11516 277.022C0.321307 271.016 2.94748 258.365 3.72646 249.253C8.57028 218.029 10.2779 183.482 28.9927 156.838C37.089 145.965 48.959 137.356 62.5984 135.419L62.9768 135.367L63.3579 135.318C67.2462 134.823 71.5204 134.596 74.8966 132.496C78.7149 129.45 80.3998 123.889 84.2938 123.548ZM118.921 189.002C117.504 189.002 114.601 191.202 110.213 195.602L109.826 195.78C104.521 198.243 101.007 200.379 99.2834 202.189L99.2218 202.254C97.4805 204.121 94.0321 209.086 88.8767 217.148L81.4111 221.56H78.5863L76.5752 236.14L81.4111 246.55L92.3649 242.862L110.213 238.161L120.454 227.777L126.231 225.838C125.53 227.862 125.276 229.876 126.147 231.885C127.654 234.847 132.184 236.357 135.196 237.364C141.437 239.758 152.311 237.274 155.937 231.885C157.871 229.01 160.111 221.759 161.265 219.51L161.595 214.875C162.191 206.322 162.634 197.472 160.776 196.182C152.081 190.145 129.621 193.178 129.106 193.516C127.974 194.26 127.487 194.326 126.875 195.293L126.558 195.335L128.34 192.919L127.709 192.582C123.205 190.195 120.276 189.002 118.921 189.002ZM126.147 196.894C125.342 200.365 127.577 202.877 128.634 206.23L125.933 201.064L125.933 196.961C126.003 196.944 126.075 196.922 126.147 196.894Z" fill="#9DDADB"/>
<path fill-rule="evenodd" clip-rule="evenodd" d="M83.1006 123.009C83.7009 122.478 84.5892 123.145 84.2077 123.863C83.3505 125.476 82.4713 127.004 81.3208 128.43C80.6233 129.294 79.8762 130.112 79.119 130.92C81.0622 132.6 82.7287 134.686 84.3024 136.641C86.3148 139.141 88.2174 141.747 90.4764 144.035C92.7042 146.291 95.1676 147.868 98.1461 148.92L98.7477 149.129C101.74 150.179 104.938 151.597 106.624 154.428C106.957 154.986 106.287 155.676 105.724 155.328C102.794 153.514 99.3502 153.149 96.1601 151.951C93.0785 150.794 90.3922 149.012 88.0186 146.738C85.6491 144.468 83.6595 141.886 81.5843 139.358C79.5321 136.858 77.3224 134.723 74.895 132.608C71.1491 135.127 66.8733 136.223 62.5254 137.299L62.0509 137.417C57.6978 138.494 53.368 139.745 49.2842 141.62C45.6835 143.274 42.142 145.248 39.209 147.939C36.0956 150.795 33.6725 154.442 31.4546 158.009C26.4935 165.988 23.0056 174.73 19.935 183.579C16.7414 192.782 14.0701 202.17 11.9137 211.669C10.8169 216.501 9.9261 221.367 9.19399 226.268C8.84159 228.628 8.52854 230.993 8.2536 233.363C7.9601 235.894 7.89268 238.499 7.1157 240.932C6.78261 241.975 5.99611 242.408 5.20885 242.371L5.04895 244.37C4.83692 247.035 4.63926 249.7 4.57249 252.381C4.46173 256.84 4.51195 261.285 4.83282 265.734L4.87826 266.34C5.13041 269.587 5.69384 273.235 8.1368 275.613C10.6667 278.075 14.5574 278.849 17.9673 278.894C25.9092 278.997 33.5542 275.247 40.582 271.957C47.8199 268.568 54.8601 264.807 61.7316 260.728C65.2309 258.651 68.6925 256.505 72.1099 254.295C73.7869 253.211 75.4522 252.108 77.1049 250.988C78.0515 250.346 78.9486 249.643 79.9123 249.073C79.4401 248.634 79.2293 247.943 79.6248 247.34C76.839 244.923 75.6795 240.61 75.5439 237.121C75.4344 234.304 75.8492 231.495 76.1765 228.705C76.3417 227.298 76.5457 225.894 76.7575 224.493C76.8412 223.94 76.9051 223.348 77.0029 222.764C69.4805 226.895 61.7473 230.574 53.8094 233.843C49.7406 235.518 45.6196 237.025 41.4417 238.405L40.5949 238.684C36.6364 239.979 32.5831 241.202 28.4908 241.942C28.272 241.982 28.0943 241.659 28.3279 241.556C32.316 239.797 36.4423 238.314 40.4903 236.694L41.1555 236.424C41.079 236.419 40.9998 236.409 40.9171 236.389C38.5431 235.816 36.1876 234.934 33.8592 234.191C31.6982 233.501 29.2703 233.068 27.2504 232.027C27.095 231.947 27.182 231.731 27.3334 231.721C29.6036 231.564 32.0681 232.225 34.294 232.614L35.1302 232.76C36.5311 233.007 37.963 233.272 39.3569 233.619C39.4073 233.152 39.6682 232.683 40.0394 232.408C44.124 229.385 43.7092 223.279 44.1461 218.777L44.47 215.434C45.0398 209.584 45.6426 203.734 46.5585 197.928C46.6073 197.618 47.0873 197.707 47.0893 197.999C47.1366 205.197 46.5929 212.362 46.3204 219.548L46.2782 220.727C46.1275 225.162 46.0095 229.766 43.215 233.178C43.6057 232.95 44.1341 232.95 44.4506 233.326C44.8396 233.789 45.0642 234.308 45.0572 234.818C47.5823 233.76 50.0965 232.674 52.5983 231.567C60.642 228.005 68.5171 224.02 76.1838 219.707C77.0089 219.243 77.7931 219.608 78.2012 220.22L78.2601 220.211C78.2699 220.21 78.2799 220.209 78.2901 220.209L78.3485 220.206C78.3508 220.206 78.3531 220.207 78.3551 220.207C79.4343 219.614 80.9045 220.036 81.8306 220.9C81.858 220.927 81.8813 220.955 81.9056 220.982C83.0781 220.456 84.1728 219.746 85.1664 218.846C87.1995 217.004 88.9217 214.727 90.423 212.444C93.1878 208.238 95.5362 203.561 99.271 200.099C102.305 197.286 106.068 195.535 110.014 194.436C109.998 194.321 110.042 194.198 110.122 194.116C110.324 193.908 110.469 193.837 110.731 193.963C110.752 193.973 110.764 193.987 110.773 194.002L111.158 193.344C111.368 192.987 111.584 192.628 111.659 192.534C112.107 191.97 112.568 191.41 113.036 190.862C113.83 189.935 114.735 189.019 115.782 188.376C118.075 186.968 120.486 187.765 122.844 188.534C124.269 189 125.688 189.48 127.111 189.952L127.257 190C128.318 190.34 129.558 190.638 130.033 191.761C130.22 192.205 130.249 192.667 130.162 193.114C140.234 190.554 151.42 191.73 161.248 194.735C161.625 194.85 162.002 195.16 162.082 195.568C163.208 201.339 163.709 207.258 163.2 213.128C162.76 218.195 161.637 223.16 159.52 227.799L159.4 228.061C157.41 232.36 154.257 237.66 149.442 239.007C146.534 239.821 143.318 239.341 140.352 239.192C137.47 239.047 134.524 239.026 131.67 238.573C129.127 238.17 126.899 237.031 125.328 234.965C123.973 233.182 123.259 231.028 122.674 228.885C122.407 228.97 122.141 229.061 121.879 229.163C120.774 229.594 119.839 230.29 118.992 231.109C117.206 232.838 115.82 234.939 113.95 236.589C112.258 238.083 110.329 239.245 108.261 240.138C103.975 241.989 99.3765 242.728 94.8426 243.709L94.5264 243.778C91.1132 244.527 87.6294 245.446 84.6167 247.222C84.5578 247.744 84.3195 248.236 83.9375 248.558C84.4688 249.057 84.6939 249.847 84.227 250.588C82.9227 252.657 80.6761 253.834 78.6592 255.157L78.528 255.243C76.544 256.558 74.5426 257.846 72.525 259.108C68.4233 261.675 64.2359 264.1 59.9894 266.419C53.1593 270.148 46.1825 273.665 39.0795 276.856C39.5058 278.952 39.35 281.114 39.6705 283.224L39.7196 283.525C39.8565 284.308 39.6716 284.963 39.1318 285.475L39.0747 285.527L39.0757 285.52L39.0251 285.567L39.0081 285.581L39.0138 285.577C38.9516 285.633 38.8874 285.686 38.8219 285.732L38.7386 285.785C38.2187 286.101 37.5494 286.098 37.0171 285.819L36.9563 285.785L36.8541 285.727C36.1508 285.323 35.6658 284.321 35.9575 283.525C36.6746 281.569 36.9455 279.482 37.6077 277.513L37.0824 277.748L36.39 278.049C28.9015 281.286 20.5832 284.011 12.4239 281.805C8.81878 280.83 5.44922 278.767 3.64538 275.405C1.87037 272.097 1.61948 268.256 1.52524 264.577C1.40895 260.035 1.65256 255.424 2.25184 250.921C2.65411 247.899 3.1406 244.819 3.891 241.828C3.50502 241.488 3.2213 241 3.14636 240.395C2.79221 237.538 3.41204 234.568 3.7915 231.726C4.16219 228.951 4.57174 226.182 5.03491 223.421C5.97004 217.845 7.05655 212.281 8.32152 206.771C10.5727 196.964 13.5455 187.332 17.1246 177.929L17.4381 177.11C20.7454 168.516 24.5747 160.105 29.9069 152.556C32.4576 148.944 35.154 145.669 38.7581 143.066C42.1347 140.627 45.9434 138.871 49.8739 137.529C53.8087 136.186 57.8529 135.286 61.9687 134.726C66.1485 134.158 70.5605 133.809 74.4597 132.095C73.9664 131.212 74.3897 130.019 75.2198 129.471C78.0134 127.626 80.5968 125.226 83.1006 123.009ZM172.529 203.221C172.646 203.043 172.924 203.156 172.873 203.366C171.514 208.929 170.239 214.503 169.406 220.173C167.902 230.405 168.179 240.771 168.302 251.079L168.308 251.612C168.371 257.165 168.459 262.717 168.643 268.268C168.736 271.073 168.919 273.905 168.819 276.712C168.765 278.234 168.359 279.674 168.215 281.178C168.089 282.494 168.201 283.829 168.264 285.146C168.306 286.022 167.013 285.985 166.925 285.146L166.812 284.062C166.666 282.69 166.486 281.326 166.036 280.012C165.495 278.432 165.235 276.881 165.047 275.222C164.76 272.68 164.632 270.113 164.521 267.553L164.445 265.783C163.981 255.086 163.998 244.339 164.748 233.653L164.803 232.89C165.546 222.789 166.835 211.875 172.529 203.221ZM143.567 139.56C143.212 139.414 143.336 138.878 143.729 138.971L144.444 139.142C149.681 140.395 154.823 141.754 159.711 144.086C164.602 146.42 168.743 149.905 172.034 154.19C178.43 162.519 181.088 172.641 183.186 182.754C185.518 193.991 187.641 205.269 189.994 216.503L190.43 218.596C192.607 229.058 194.662 239.527 196.176 250.114L196.285 250.882C197.812 261.768 198.73 273.032 197.064 283.947C196.734 286.106 193.139 285.569 193.279 283.435C193.685 277.267 193.976 271.132 193.695 264.95C193.414 258.768 192.834 252.612 191.969 246.483C191.241 241.325 190.156 236.232 189.196 231.115L189.045 230.307C188.241 225.955 187.412 221.608 186.585 217.26L185.349 210.75C183.497 201.003 181.608 191.247 179.474 181.561L179.347 180.991C177.259 171.672 174.18 161.911 167.915 154.511C161.558 147.001 152.457 143.219 143.567 139.56ZM120.467 238.402C120.619 238.062 121.154 238.099 121.319 238.402C121.963 239.59 122.035 241.107 122.156 242.448L122.169 242.586C122.324 244.222 122.461 245.864 122.545 247.506C122.704 250.622 122.78 253.734 122.771 256.854C122.761 260.051 122.696 263.244 122.524 266.437L122.477 267.292C122.32 270.066 122.056 273.161 120.737 275.586C120.257 276.468 118.953 276.209 118.675 275.317C117.765 272.398 118.233 268.936 118.466 265.946L118.647 263.612C118.827 261.279 118.998 258.944 119.133 256.608C119.319 253.411 119.473 250.212 119.62 247.014C119.668 245.975 119.72 244.936 119.775 243.898L119.859 242.34C119.931 241.037 119.925 239.607 120.467 238.402ZM18.1696 242.54L18.5723 242.152C19.8087 240.942 21.3711 239.08 23.1989 239.195C23.9278 239.242 24.3922 239.846 24.2411 240.563C23.9182 242.095 22.3545 242.89 21.2289 243.825C19.9958 244.85 18.8336 245.944 17.6736 247.05C16.6446 248.03 15.6549 249.038 14.689 250.077L14.3279 250.469C13.9816 250.846 11.5161 253.075 11.7827 253.653L11.7972 253.679C11.8714 253.79 11.7478 253.942 11.6247 253.903C10.56 253.567 10.6265 252.655 11.029 251.731C11.8024 249.956 13.1569 248.313 14.3396 246.797C15.5192 245.285 16.7959 243.876 18.1696 242.54ZM124.325 198.015C123.501 196.07 120.468 196.111 118.746 196.228C114.41 196.52 109.719 197.617 105.861 199.642C101.861 201.742 99.1669 205.107 96.7561 208.827L96.6433 209.002C94.2936 212.652 92.0306 216.973 88.3512 219.483C86.4772 220.762 84.2889 221.929 82.0151 222.435C81.859 222.709 81.6061 222.927 81.2745 223.006L81.1203 223.041C80.4727 223.184 79.4667 223.342 78.5977 223.247C78.6034 223.672 78.5989 224.094 78.6097 224.496C78.6403 225.65 78.6533 226.808 78.6533 227.963C78.6538 230.381 78.5237 232.804 78.6247 235.222C78.7142 237.361 79.0165 239.596 80.0441 241.508C80.7978 242.911 81.7925 243.839 82.9934 244.725C85.9474 242.926 89.2876 241.83 92.6777 241.005C96.7776 240.008 100.976 239.342 104.982 237.99C106.911 237.339 108.765 236.487 110.444 235.33C112.227 234.101 113.589 232.439 114.99 230.813L115.209 230.561C116.639 228.922 118.199 227.354 120.22 226.465C121.96 225.7 124.253 225.563 125.775 224.379C126.571 223.759 126.637 222.86 126.721 221.939C125.747 222.079 124.715 221.855 123.744 221.742L123.241 221.683C122.322 221.574 121.425 221.454 120.521 221.22C120.353 221.177 120.353 220.924 120.521 220.88C121.589 220.605 122.648 220.487 123.744 220.359L124.001 220.327C124.992 220.197 126.034 220.001 127.006 220.219C127.18 219.556 127.432 218.922 127.786 218.288C128.282 217.397 129.22 216.387 129.347 215.346C129.385 215.035 129.313 214.669 129.166 214.394L129.115 214.3C129.054 214.19 128.981 214.078 128.874 214.009C128.862 214.023 128.837 214.039 128.783 214.056C128.035 214.292 127.382 213.926 127.036 213.361C125.565 213.544 123.96 213.482 122.581 213.543L121.187 213.611C119.697 213.679 118.14 213.709 116.74 213.408C116.544 213.366 116.485 213.041 116.681 212.957C118.402 212.222 120.49 211.987 122.332 211.704C123.361 211.546 124.398 211.426 125.43 211.287C126.117 211.194 126.847 211.041 127.559 211.005C129.344 208.784 128.382 205.28 125.898 204.323C124.993 204.721 124.179 204.49 123.19 204.405C122.203 204.32 121.214 204.263 120.222 204.267C118.237 204.276 116.132 204.798 114.166 204.573C113.846 204.536 113.549 204.111 113.867 203.851C115.372 202.624 117.529 202.223 119.44 201.962L119.836 201.909C120.477 201.825 121.256 201.702 122.064 201.63C122.247 201.273 122.574 201.004 123.067 200.937C123.213 200.917 123.36 200.905 123.507 200.893L123.505 200.878C124.706 200.821 124.654 198.793 124.325 198.015ZM42.0984 235.946C42.0772 235.978 42.0539 236.01 42.0292 236.039L41.9911 236.084L42.1886 236.003L42.0984 235.946ZM145.283 193.67C140.228 193.127 135.165 193.241 130.095 193.387C129.69 194.713 128.278 195.842 126.91 195.885C127.981 197.514 128.092 199.72 127.341 201.448C128.936 202.082 130.31 203.222 131.144 204.845C132.3 207.095 132.149 209.599 131.006 211.679C131.982 212.561 132.557 213.995 132.5 215.346C132.435 216.853 131.537 218.14 130.79 219.387C129.983 220.736 129.956 221.924 129.708 223.435C129.346 225.646 127.853 226.988 125.933 227.825L126.035 228.227C126.53 230.152 127.146 232.184 128.561 233.592C130.381 235.404 133.205 235.387 135.61 235.502L135.726 235.508C137.928 235.618 140.129 235.747 142.33 235.871L143.981 235.964C146.515 236.103 148.949 236.12 151.018 234.445C154.396 231.712 156.712 227.188 158.177 223.184C161.254 214.778 161.291 205.554 159.879 196.8C155.143 195.274 150.229 194.201 145.283 193.67ZM103.242 207.615L103.279 207.617C104.32 207.736 105.035 208.578 105.29 209.578C105.66 211.03 105.478 212.343 106.368 213.654C107.284 215.002 107.847 216.082 107.98 217.747C108.034 218.432 108.009 219.116 108.162 219.787L108.273 220.257C108.39 220.758 108.486 221.241 108.428 221.779C108.374 222.269 108.135 222.652 107.643 222.809C106.038 223.322 104.799 222.14 104.384 220.646C104.026 219.354 104.504 217.816 103.999 216.604C103.719 215.932 103.203 215.369 102.911 214.693C102.622 214.022 102.477 213.322 102.431 212.593C102.343 211.214 103.563 209.558 102.882 208.308C102.737 208.042 102.901 207.607 103.242 207.615ZM81.9245 193.387C83.0113 193.167 84.2441 192.661 85.3159 193.081C85.8668 193.298 86.139 193.969 85.6735 194.436C84.8654 195.245 83.691 195.29 82.6025 195.481L82.5067 195.498C81.2197 195.736 79.9304 195.962 78.6394 196.176C76.2105 196.578 73.7758 196.933 71.3326 197.236C68.8232 197.546 66.3068 197.822 63.7869 198.03L62.8114 198.11C60.6828 198.28 58.4679 198.409 56.3793 198.083C56.0758 198.035 56.1247 197.594 56.3793 197.516C58.6674 196.824 61.1773 196.639 63.5428 196.346C66.0577 196.034 68.5683 195.705 71.0724 195.314C73.5725 194.924 76.0694 194.505 78.5569 194.042C79.6813 193.833 80.8039 193.615 81.9245 193.387ZM121.138 191.165C120.184 190.828 119.135 190.328 118.102 190.495C116.32 190.784 114.734 192.519 113.323 193.661L114.031 193.524C117.655 192.828 122.454 192.078 125.497 194.381C125.504 194.367 125.51 194.354 125.519 194.341C125.765 193.968 126.049 193.677 126.36 193.358C126.39 193.33 126.418 193.302 126.446 193.272L126.614 193.094L126.231 192.961C125.41 192.671 124.438 192.297 124.284 192.242L124.273 192.238C123.227 191.884 122.179 191.534 121.138 191.165ZM91.3617 115.248C91.2126 113.331 94.1979 113.347 94.3458 115.248C94.6684 119.399 93.7337 123.51 91.7221 127.149C91.7073 127.176 91.691 127.199 91.6755 127.224C92.9337 127.878 94.2062 128.506 95.507 129.067C97.171 129.785 98.8663 130.439 100.592 130.993C102.153 131.495 104.076 131.694 105.388 132.738C108.156 134.94 107.116 139.511 106.584 142.473L106.501 142.941C106.236 144.466 106.044 146.03 106.687 147.493C107.374 149.056 108.762 150.215 110.001 151.333L110.252 151.56C111.349 152.559 112.603 153.773 113.408 155.128C114.143 153.609 115.145 152.369 116.204 150.972C116.96 149.975 116.422 149.646 115.879 148.672C115.356 147.735 115.101 146.736 115.265 145.666C115.566 143.691 117.146 142.265 118.717 141.193C120.574 139.928 122.646 138.99 124.565 137.813C128.509 135.395 132.349 132.63 135.809 129.559C135.905 129.475 136.07 129.586 135.994 129.702C133.26 133.857 130.056 137.447 126.117 140.494C124.52 141.73 122.842 142.755 121.153 143.832L120.667 144.144C119.989 144.583 119.143 145.17 118.837 145.917C118.528 146.669 119.186 147.236 119.54 147.859C120.665 149.837 120.122 151.682 118.789 153.359L118.727 153.436C117.402 155.068 116.398 156.585 115.918 158.67C114.886 163.148 116.323 167.812 117.828 172.016L117.887 172.182C118.701 174.448 119.566 176.697 120.273 178.999L120.467 179.636C121.108 181.754 121.633 183.843 120.914 186.021C120.67 186.762 119.659 186.937 119.239 186.24C117.758 183.781 117.389 180.823 116.461 178.12C115.556 175.486 114.517 172.9 113.643 170.255C112.517 166.849 111.764 163.184 112.173 159.612C112.161 159.591 112.148 159.571 112.138 159.549L111.851 158.923C111.07 157.227 110.316 155.746 108.895 154.395C107.413 152.985 105.805 151.737 104.639 150.03C102.106 146.322 103.673 142.198 103.979 138.144L104.014 137.647C104.069 136.805 104.1 135.661 103.549 135.079C102.931 134.423 101.479 134.256 100.658 133.965C98.5364 133.215 96.4454 132.34 94.4538 131.29C92.558 130.291 90.7216 129.187 89.0117 127.893L88.1451 127.242C86.7777 126.211 85.3598 125.085 84.4434 123.681C84.3376 123.519 84.5173 123.259 84.7088 123.336C86.2387 123.957 87.6365 124.943 89.0679 125.802C89.0902 125.75 89.116 125.697 89.1453 125.644C90.9163 122.441 91.6447 118.892 91.3617 115.248ZM140.232 137.195C140.841 135.524 143.619 135.653 143.509 137.638C143.424 139.163 142.776 140.54 142.184 141.924L142.12 142.072C141.509 143.515 140.802 144.869 139.957 146.191C138.342 148.719 136.451 151.065 134.431 153.278C132.599 155.285 130.195 156.512 127.424 156.308C126.257 156.222 125.079 155.926 124.056 155.343C122.841 154.651 121.522 152.572 119.972 153.075C119.822 153.124 119.682 152.904 119.812 152.8C121.601 151.36 123.632 153.593 125.345 154.131C127.927 154.942 130.575 154.046 132.237 151.96C133.972 149.783 135.568 147.344 137.026 144.974C137.767 143.77 138.442 142.52 139.025 141.233C139.614 139.933 139.748 138.52 140.232 137.195ZM136.071 126.914C135.996 126.684 136.282 126.464 136.485 126.596C137.661 127.361 138.68 128.372 139.764 129.258C140.968 130.24 142.18 131.203 143.411 132.151C145.205 133.534 143.124 136.079 141.544 134.569C139.383 132.503 137.016 129.802 136.071 126.914ZM129.616 118.829C130.093 116.988 132.918 117.747 132.507 119.566L132.493 119.622C131.714 122.627 132.824 125.686 135.195 127.634L135.282 127.705C136.782 128.904 134.657 131.002 133.172 129.814C129.93 127.22 128.581 122.816 129.616 118.829Z" fill="black"/>
<path fill-rule="evenodd" clip-rule="evenodd" d="M90.3949 11.9512L92.555 14.5241C91.3589 15.3683 90.2298 16.2166 89.1676 17.0689L89.1667 17.0663C94.0865 13.8515 99.5352 11.9512 105.421 11.9512C116.758 11.9512 139.786 21.7045 144.992 28.7395C147.575 32.2308 152.376 42.9486 154.866 54.6008C156.867 63.9632 159.843 90.4133 156.867 100.352C153.058 113.072 140.528 124.828 127.607 124.828C114.686 124.828 94.6268 115.486 80.35 95.0132C79.6972 94.077 72.2005 92.9919 66.8526 89.4782L68.2567 104.97L69.3238 113.982L69.0883 114.624C65.2581 124.998 62.2229 130.411 59.9827 130.861C57.6967 131.321 53.0414 127.568 46.0167 119.602L45.1191 115.829C42.8393 106.204 41.6993 101.038 41.6993 100.33L41.7009 100.201C41.7345 98.5717 42.2948 89.3515 42.3064 86.8703L42.3065 49.6816C49.8614 24.528 57.0708 11.9512 63.9347 11.9512H90.3949Z" fill="#EDB98A"/>
<path fill-rule="evenodd" clip-rule="evenodd" d="M72.4939 3.38523C74.7151 2.52355 77.2884 2.68637 79.3968 3.9839C83.5364 3.80606 87.6532 6.23079 89.8114 9.77021C89.8564 9.8203 89.9042 9.8704 89.9467 9.9205L90.4041 10.4544C90.8372 10.9643 91.294 11.5262 91.6559 12.1065C89.8831 12.1471 88.4062 12.8708 87.3753 14.3324C86.6397 15.3753 88.3248 16.3663 89.0766 15.3799L89.1031 15.3438C89.7221 14.4664 90.6565 14.1265 91.6967 14.1087C91.9953 14.1037 92.2219 13.9892 92.382 13.8204C92.4458 14.0531 92.5028 14.2883 92.5551 14.5245C97.7928 12.4843 103.439 11.944 109.063 12.4279C108.816 12.8277 108.61 13.256 108.452 13.7061C108.272 14.2164 108.656 14.8023 109.151 14.9386C109.686 15.0858 110.17 14.7717 110.363 14.2862L110.381 14.2387C110.597 13.6255 110.95 13.0992 111.424 12.6912C114.071 13.0506 116.7 13.6222 119.264 14.3592C122.346 15.2457 125.399 16.3275 128.385 17.5662C127.879 17.7648 127.442 18.1005 127.137 18.6608C126.526 19.7793 128.205 20.7811 128.842 19.7119L128.864 19.6723C128.927 19.5576 128.982 19.4887 129.023 19.4494L129.037 19.4361L129.125 19.3955L129.289 19.3484L129.352 19.3329C129.408 19.3204 129.431 19.3212 129.577 19.3131C129.772 19.3021 129.967 19.3031 130.161 19.3028C130.62 19.3026 130.912 19.0468 131.044 18.7197C132.518 19.3857 133.972 20.0871 135.401 20.8218L135.741 20.9979C140.151 23.3058 144.33 26.3367 146.754 30.7963C146.914 31.0944 146.964 31.42 146.924 31.7306C147.441 32.3518 147.942 32.9931 148.422 33.6443C149.887 35.6382 150.96 37.9052 151.976 40.1521C154.019 44.6709 155.395 49.3124 156.468 54.1519C157.506 58.816 158.344 63.5302 159.122 68.2444C159.984 73.4822 160.702 78.765 160.852 84.0779C161.118 93.5489 159.269 103.075 153.959 111.048C149.222 118.162 142.089 123.81 133.63 125.619C125.027 127.458 115.923 125.664 109.142 119.923C108.049 118.999 108.2 117.132 109.142 116.186C110.21 115.118 111.786 115.266 112.874 116.186C119.259 121.594 128.553 122.428 136.247 119.672C143.36 117.122 148.932 111.241 152.351 104.636C156.523 96.5798 157.226 87.3267 156.585 78.4143C156.235 73.5197 155.507 68.6653 154.757 63.8183L154.304 60.9007C153.81 57.7405 153.291 54.5847 152.614 51.4566L152.455 50.7279C151.628 46.9558 150.659 43.0869 149.16 39.5409C148.374 37.6797 147.429 35.8862 146.461 34.1153C146.274 33.7721 146.081 33.4239 145.883 33.0732C145.618 33.1659 145.315 33.1809 144.998 33.0807C142.264 32.2291 139.455 31.658 136.597 31.4676C135.295 31.3804 133.99 31.3669 132.687 31.4177C130.457 31.2877 128.165 31.4841 126.04 32.169C125.832 31.9904 125.622 31.8155 125.411 31.6407C125.354 31.6362 125.298 31.6302 125.24 31.6189C124.698 31.5122 124.317 31.1264 124.088 30.6392C124.076 30.6134 124.065 30.5876 124.055 30.5618C123.783 30.3537 123.509 30.1488 123.232 29.9466C122.558 30.1217 121.967 29.5599 121.808 28.9442C121.658 28.8427 121.505 28.7445 121.354 28.6451C121.235 28.6741 121.117 28.6982 121.002 28.7067C120.505 28.7425 120.026 28.6664 119.586 28.4292C119.029 28.1288 118.673 27.6444 118.435 27.094C117.593 27.1459 116.74 26.8721 115.987 26.3771C115.376 25.9756 114.908 25.4213 114.442 24.8679C108.77 22.3342 102.605 20.8383 96.4245 20.4551C95.8157 20.5723 95.2112 20.7118 94.6142 20.8741C94.4729 20.9127 94.2723 20.9884 94.0414 21.079C95.4193 20.9122 96.8149 20.8957 98.2303 21.0998C104.947 22.0725 110.178 27.1088 114.68 31.8629C115.751 31.6462 116.833 33.0352 115.842 33.955L108.115 41.1267C108.304 41.9288 107.386 42.7193 106.581 42.5267C105.232 42.2021 103.881 41.8864 102.528 41.5761C101.118 42.2597 99.3442 42.1427 98.0647 41.1518C98.0052 41.1057 97.8759 41.032 97.7636 40.9589C97.6585 41.0458 97.5172 41.133 97.4609 41.17C97.006 41.4716 96.4517 41.5603 95.9203 41.4756C95.3735 41.3887 94.8801 41.1109 94.4546 40.765C94.1838 40.5447 93.5527 39.6252 93.2015 39.5575L93.1673 39.5536C93.4017 39.5604 92.6483 40.2615 92.446 40.4065C91.9738 40.744 91.4518 40.9213 90.8643 40.8567C89.8404 40.7438 88.96 39.8093 88.4593 38.9463L88.4215 38.8801L88.4058 38.839L88.3924 38.8834C88.39 38.8913 88.3872 38.8997 88.3837 38.9091C88.3087 39.1123 88.0731 39.3432 87.913 39.4852C87.4568 39.8893 86.8921 40.0669 86.2888 39.9614C85.7782 39.8724 85.3489 39.5635 85.0038 39.1896L84.95 39.1301C84.8479 39.0147 84.1752 38.1095 84.2814 37.8926L84.2937 37.8744L84.2602 37.8673C83.851 37.968 83.5076 37.8671 83.256 37.6559C81.8519 37.3478 80.4661 36.9889 79.1245 36.5325C79.0194 36.8281 78.9166 37.1236 78.8168 37.4217C79.5494 37.8751 80.2272 38.5214 80.85 38.9823C82.0307 39.854 83.211 40.7257 84.389 41.5999L89.0565 45.0481L89.5903 44.9046C90.2723 44.7212 90.8575 45.1189 91.1078 45.7267L91.1284 45.7793C91.2277 46.0456 91.3473 46.2918 91.4878 46.5275C92.6546 46.4809 93.6425 47.1983 93.9619 48.2273C94.25 48.2208 94.5412 48.2318 94.8388 48.2646C95.6539 48.3543 96.2033 48.9605 96.0557 49.7929L96.0446 49.85L96.0248 49.9427C96.4973 50.1436 96.8399 50.5316 96.9159 51.1182C97.0425 51.3088 97.1445 51.5163 97.2098 51.7472C97.5508 52.9456 96.8875 54.4269 96.5342 55.5749L96.507 55.6649C96.2803 56.4193 96.0456 57.1702 95.8082 57.9207L95.2168 59.784C93.5771 64.9772 91.9784 70.4526 93.3054 75.8969C93.5882 77.0491 92.1174 77.5701 91.4796 76.6684C89.9334 74.4851 88.2629 72.4278 86.5089 70.453L86.4239 70.4395C85.1956 70.1922 84.7187 69.3233 84.1549 68.4375C83.8228 68.5355 83.4656 68.5585 83.1205 68.4919C82.6207 68.3955 82.173 68.1097 81.8196 67.7487C81.5203 67.4426 81.2459 66.6576 80.892 66.4629C80.4493 66.2197 79.5594 66.5674 79.0307 66.4892C78.6008 66.4259 78.1993 66.2781 77.8099 66.0925C77.0941 67.0696 76.6196 68.2184 76.5033 69.4568C76.4581 69.9277 76.318 70.326 76.1154 70.6566C76.8607 70.6291 77.6086 70.6817 78.3466 70.8195C81.0778 71.3279 83.0362 73.0162 84.1367 75.5312C84.1839 75.6414 84.0414 75.7316 83.9763 75.6263C82.3434 73.1089 78.7891 72.9812 76.208 73.8679C73.4668 74.8098 71.9286 77.227 71.3811 79.9849C70.7809 83.0083 71.5509 86.2671 73.1944 88.8422C73.957 90.0395 74.9977 91.1316 76.3805 91.5725C78.024 92.096 79.5419 91.1592 81.2251 91.6426C82.3706 91.9708 82.8761 93.0804 82.6683 94.1901C82.5857 94.626 82.4332 95.0067 82.2281 95.3373C82.8336 96.5397 83.3936 97.7771 84.1064 98.9143C85.2069 100.67 86.5377 102.123 87.9881 103.588C89.4862 105.101 91.0119 106.584 92.6151 107.987C94.151 109.332 95.9118 110.289 97.5225 111.521C98.6529 112.386 99.2129 113.598 98.6552 114.986C98.1952 116.133 96.6443 117.11 95.3888 116.591C92.9852 115.599 90.8818 113.911 88.9662 112.173C87.1905 110.56 85.6446 108.631 84.4765 106.537C83.3747 104.562 82.5628 102.32 81.8779 100.161L81.7929 99.8912C81.4702 98.8642 81.1303 97.7095 80.9103 96.5447C79.5922 97.2661 77.8037 97.3713 76.3933 97.1759C74.1146 96.8628 72.0362 95.7131 70.4655 94.0373C69.7334 93.2575 69.0864 92.368 68.5276 91.4039C68.5784 91.9908 68.6087 92.5587 68.6412 93.0754C69.947 94.5077 70.4707 96.5748 70.0073 98.4607C71.0997 99.5869 71.4059 101.277 70.8356 102.717C72.0314 103.905 71.9864 105.795 71.4694 107.511C72.883 109.094 73.0168 111.559 71.9131 113.344L71.8798 113.473C72.9943 115.34 72.743 117.754 71.3466 119.403C72.3003 121.256 72.1527 123.748 69.7694 124.466C68.9008 124.728 68.0589 124.505 67.4289 124.017C68.0042 126.883 68.2615 129.792 67.4944 132.67C67.1891 133.812 66.0736 134.647 64.9006 134.647C63.9201 134.647 63.2073 134.153 62.7149 133.427C62.7724 134.872 62.6848 136.325 62.3772 137.79C62.1916 138.675 61.372 139.365 60.5019 139.579C60.8158 139.933 60.9408 140.446 60.64 140.98C59.3642 143.242 56.2816 142.304 56.0732 140.137C55.2026 139.486 54.7979 138.418 54.6304 137.263C54.3862 135.579 54.2977 133.923 54.0211 132.261L53.9153 132.36L53.8608 132.407L53.8433 132.528C53.6847 133.349 53.222 133.924 52.6215 134.268C52.752 135.701 52.5104 137.161 51.6025 138.249C50.9978 138.974 49.9676 139.26 49.0845 139.103C49.0289 139.105 48.9722 139.105 48.9131 139.097C46.913 138.831 45.7558 136.931 46.2822 135.187C45.4769 134.199 45.1377 132.945 45.3761 131.705C43.8177 130.672 43.8494 128.402 44.3892 126.578C42.7555 125.287 42.1409 122.873 42.9618 120.955C41.4894 119.123 41.2846 116.571 42.285 114.486C40.665 113.153 40.6743 110.58 42.281 109.217C41.4254 107.516 40.9094 105.477 41.7645 103.921C41.1613 103.254 40.8301 102.303 40.8999 101.385C41.0022 100.037 41.8931 99.1047 42.9986 98.4837L43.0751 98.0619C43.3347 98.0942 43.6113 98.0216 43.8552 97.7871C44.0965 97.5549 44.3449 97.3678 44.6018 97.2135C44.8926 97.2098 45.143 97.08 45.3191 96.8804C45.8008 96.7165 46.3188 96.6441 46.8932 96.6376C48.134 96.6241 48.1778 94.7657 47.0231 94.6452C46.8407 94.4611 46.5896 94.3452 46.3172 94.3452L46.104 94.346C45.6053 94.3508 45.1019 94.3815 44.6393 94.5801C44.3386 94.7089 44.1068 94.903 43.937 95.1405C43.9052 95.4997 43.7101 95.8579 43.2877 96.1537C42.7997 96.4954 42.1324 96.5352 41.6102 96.2261C40.8791 95.7932 40.8716 95.1177 40.9559 94.3832C41.1405 92.7766 40.2181 91.2646 40.4377 89.6209C40.535 88.8943 40.7766 88.2668 41.1705 87.76C40.3399 86.5149 40.1933 84.9075 40.8329 83.5406C39.5005 82.105 39.2702 79.8922 40.1198 78.1646C40.1321 78.1227 40.1416 78.0799 40.1548 78.0386C40.2509 77.745 40.3832 77.4802 40.529 77.227C39.7832 75.9329 39.7887 74.3451 40.5467 73.0566C39.3985 71.716 39.362 69.5825 40.3832 68.1382C40.3892 68.0185 40.4017 67.8988 40.4119 67.779C39.9432 66.5604 40.0558 65.1749 40.6503 64.0417C40.4382 63.552 40.2746 63.0247 40.1701 62.4631C39.9022 61.0153 40.04 59.6076 40.4402 58.1948C40.505 57.9719 40.5775 57.7489 40.655 57.526C40.668 56.5583 40.7048 55.595 40.7533 54.6333C40.5632 53.8193 40.5325 52.9247 40.5283 52.0943L40.5271 51.5557C40.5178 50.1853 40.4224 48.1787 41.2876 47.0137C40.7321 45.7552 40.9604 44.1697 41.8876 43.1722C41.2368 42.0513 41.1002 40.6748 41.7543 39.4311C41.8593 39.231 41.9811 39.0446 42.1147 38.8683C42.0607 37.7293 42.3 36.5548 42.906 35.4228C43.2997 34.6859 43.8877 34.0479 44.5867 33.5374C44.575 33.3863 44.5677 33.2355 44.5702 33.087C44.5825 32.4242 44.7293 31.7587 44.9764 31.1377C44.533 30.3797 44.3274 29.5253 44.5867 28.6045C44.8769 27.5625 45.64 26.6657 46.5926 26.1597C46.6694 25.1773 46.8227 24.2006 47.0418 23.237C46.4563 21.9312 46.9225 20.2078 48.2458 19.4386C48.0733 18.3951 48.2288 17.3129 48.9872 16.4978C49.2745 16.189 49.6132 15.9548 49.9776 15.7995C49.802 14.7502 50.0001 13.6586 50.7247 12.8041C51.3164 12.1065 52.1933 11.6827 53.0857 11.6203C53.4293 9.79526 55.1703 8.43059 57.0071 8.5393C57.2367 7.73573 57.7852 7.03511 58.6361 6.67992C58.8539 6.58899 59.074 6.52913 59.2934 6.49581C60.787 4.98686 63.0107 3.96412 64.9358 3.44034C66.8668 2.91706 68.8243 2.86641 70.4823 3.4748L70.603 3.5205L70.7381 3.50296C71.3236 3.43784 71.9086 3.40026 72.4939 3.38523ZM57.82 127.061C57.3043 126.9 56.729 127.251 56.5892 127.76C56.4416 128.298 56.7703 128.832 57.288 128.993C57.933 129.194 58.6106 129.245 59.2829 129.245C59.8234 129.246 60.2833 128.784 60.2833 128.243C60.2833 127.7 59.8254 127.242 59.2829 127.241C58.7361 127.241 58.3325 127.221 57.82 127.061ZM53.2322 116.42C52.4612 116.421 51.7999 116.605 51.2281 117.146C50.847 117.507 50.8375 118.205 51.2281 118.564C51.6227 118.926 52.1952 118.947 52.6003 118.602L52.6783 118.532C52.6876 118.524 52.6949 118.517 52.7008 118.511C52.7333 118.49 52.766 118.469 52.8006 118.45L52.7353 118.493C52.6856 118.529 52.8009 118.47 52.8655 118.443L52.8858 118.434L52.8924 118.433L52.9441 118.429C53.0399 118.424 53.1362 118.424 53.2322 118.424C53.7555 118.424 54.2567 117.964 54.2327 117.422C54.2082 116.88 53.793 116.42 53.2322 116.42ZM67.7831 110.063C68.866 109.398 67.8987 107.697 66.8127 108.31L66.7734 108.333C66.2166 108.675 65.5318 108.629 64.9011 108.629C63.6138 108.63 63.6115 110.634 64.9011 110.633L65.1142 110.632C66.0389 110.625 66.9742 110.56 67.7831 110.063ZM59.2606 102.749C58.4424 102.595 57.526 102.457 56.6651 102.551L56.5222 102.569H56.2573C56.0272 102.569 55.8044 102.662 55.6255 102.808C55.3424 102.925 55.0743 103.083 54.8297 103.295C53.855 104.142 55.2754 105.554 56.2446 104.713C56.2984 104.666 56.3608 104.627 56.4303 104.596L56.4837 104.573H57.5539C57.6512 104.573 57.746 104.553 57.8382 104.524C58.1856 104.571 58.5093 104.64 58.7286 104.682C59.9872 104.919 60.5264 102.988 59.2606 102.749ZM58.347 83.5168C56.7788 82.7883 55.042 82.7936 53.5917 83.8051C52.5545 84.5284 53.5179 86.2341 54.564 85.5605L54.6013 85.5355C54.7314 85.4448 54.865 85.3689 55 85.3C55.7363 85.5132 56.4775 85.5232 57.1893 85.2611L57.282 85.2253L57.3373 85.2469C58.4978 85.7859 59.5152 84.0593 58.347 83.5168ZM75.4236 80.3769C73.8395 80.1991 73.8267 77.6927 75.4236 77.8721C78.7954 78.2508 81.8547 79.752 84.0954 82.33C85.1376 83.529 83.4213 85.2831 82.3595 84.1376L82.3269 84.1012C80.5451 82.0512 78.1406 80.682 75.4236 80.3769ZM57.6762 67.5087C57.324 67.4702 56.9726 67.4509 56.6267 67.4677C55.7959 67.5077 54.7839 68.0628 55.1486 69.0658C55.441 69.8694 56.3994 69.9012 56.8726 69.4726C57.0694 69.4773 57.266 69.4904 57.4618 69.5104C57.9843 69.5643 58.5018 69.6639 59.0168 69.7656C60.2746 70.0134 60.813 68.0824 59.5487 67.8331L58.9895 67.7223C58.8011 67.6854 58.611 67.6493 58.42 67.6162C58.3057 67.5593 58.1832 67.521 58.0522 67.5112L57.9861 67.5087H57.6762ZM47.7356 51.9621L47.6181 51.9462C45.9286 51.7297 43.2166 51.9289 43.0116 54.0828C42.8983 55.2756 44.619 55.3505 44.9587 54.3305C46.2062 54.1053 47.464 54.0622 48.703 54.199C49.1757 53.7181 49.1795 52.7935 48.3926 52.5628C48.2816 52.2637 48.0498 52.0075 47.7356 51.9621ZM86.3536 48.3243C85.9632 47.9653 85.3229 47.9177 84.9388 48.3243C84.7174 48.5582 84.5326 48.8182 84.3863 49.1043L84.2889 49.2974C84.2724 49.3295 84.2555 49.3614 84.2379 49.3929C84.2052 49.4512 84.1684 49.5068 84.1326 49.5634L84.1086 49.5871C84.099 49.5968 84.0878 49.6085 84.0744 49.6228C83.7145 50.0038 83.6687 50.6668 84.0744 51.0398C84.4648 51.3988 85.1048 51.4464 85.4892 51.0398C85.7103 50.8059 85.8952 50.5461 86.0417 50.2598L86.1389 50.0668C86.1554 50.0348 86.1722 50.003 86.1898 49.9715C86.2226 49.9129 86.2596 49.8573 86.2951 49.8006L86.3349 49.7608C86.3407 49.7549 86.3469 49.7484 86.3536 49.7413C86.7135 49.3605 86.759 48.6972 86.3536 48.3243ZM65.8382 45.7149C64.4286 44.7145 62.7524 44.6679 61.4566 45.8715C60.5214 46.7402 61.8954 48.1321 62.8383 47.3181L62.8714 47.2885C62.9057 47.2564 62.9405 47.2284 62.975 47.2016C63.144 47.3459 63.3589 47.4373 63.6045 47.4375C63.6687 47.4377 63.7328 47.4375 63.7968 47.4389L63.8929 47.4423L63.9444 47.4465L63.9509 47.4478L63.9959 47.467C64.0782 47.5041 64.1917 47.5615 64.0359 47.4638C64.0707 47.4821 64.1032 47.5037 64.1362 47.5247L64.1938 47.5771C64.5709 47.9342 65.2234 47.9813 65.5979 47.5863C66.2609 47.3619 66.6128 46.2642 65.8382 45.7149ZM79.6199 42.4323L79.6455 42.4242C80.8815 42.0708 80.356 40.1368 79.1135 40.4917C77.7952 40.8687 77.1656 42.0974 76.902 43.3558C76.7912 43.8851 77.0571 44.4389 77.6008 44.5885C78.0975 44.725 78.7201 44.4206 78.8316 43.8886C78.9098 43.5145 79 43.197 79.1428 42.9025L79.2292 42.7343C79.2696 42.6577 79.2837 42.645 79.4201 42.5257C79.443 42.5056 79.5471 42.4571 79.6199 42.4323ZM58.6844 32.3398L58.491 32.2956C57.2869 32.0315 55.6887 31.8935 54.9615 33.089C54.2987 34.1781 55.9707 35.1696 56.6592 34.1401C56.6697 34.1397 56.6818 34.1398 56.6959 34.141L56.7185 34.1436L57.0271 34.1185C57.4116 34.1158 57.7795 34.1839 58.1524 34.2723C59.4044 34.5691 59.9389 32.6374 58.6844 32.3398ZM101.912 24.6362C102.824 23.7232 101.409 22.3057 100.497 23.2195C99.7764 23.9416 99.0809 24.6688 98.6122 25.5864C98.3663 26.0678 98.4866 26.6735 98.9711 26.9573C99.418 27.219 100.093 27.0813 100.34 26.5978C100.746 25.8025 101.259 25.291 101.912 24.6362ZM90.4086 22.2396C89.508 22.7736 88.925 23.6533 88.5711 24.6716C88.3935 25.1826 88.7734 25.7675 89.2699 25.904C89.8034 26.0508 90.2909 25.7378 90.4828 25.2517L90.5004 25.2041C90.5952 24.9318 90.7468 24.6102 90.9341 24.3675C91.0942 24.1603 91.343 23.9529 91.5306 23.884C91.9816 23.7182 92.3012 23.3089 92.2594 22.831C91.5179 23.0877 90.8293 22.7789 90.4086 22.2396ZM63.4477 17.8811C62.539 17.0364 61.32 16.9244 60.2185 17.4357C59.7281 17.6631 59.6053 18.3713 59.8596 18.8066C60.1538 19.3103 60.7363 19.3945 61.2282 19.1661C61.1019 19.2247 61.33 19.1473 61.4286 19.119C61.4412 19.1248 61.6063 19.1173 61.6633 19.1181L61.7318 19.1224C61.7324 19.1229 61.7156 19.1226 61.6814 19.1215C61.7294 19.1323 61.7769 19.1453 61.8237 19.1602L61.8833 19.1809C61.8532 19.1746 61.9884 19.2629 62.026 19.2922L62.0328 19.2978C62.9757 20.1743 64.3941 18.7605 63.4477 17.8811Z" fill="black"/>
<path fill-rule="evenodd" clip-rule="evenodd" d="M123.344 92.8488C124.746 90.5438 127.735 96.1903 128.052 97.1612C128.334 98.0213 128.519 98.9023 128.614 99.7936C129.701 100.037 130.829 100.038 131.943 99.8241C133.599 99.5067 134.61 98.6173 136.049 97.8536C137.043 97.3259 138.295 97.9447 138.812 98.8199C139.42 99.8501 139.033 100.919 138.233 101.687C136.717 103.144 133.734 103.478 131.755 103.091C130.621 102.87 129.582 102.445 128.664 101.827C128.658 101.943 128.654 102.058 128.645 102.173L128.628 102.373C128.475 103.988 128.031 106.019 126.776 107.07C124.717 108.794 122.176 105.478 124.177 103.756L124.239 103.704C125.482 102.7 125.754 100.006 125.687 98.5224C125.643 97.5539 125.466 96.573 125.16 95.6506L125.097 95.467C125.005 95.2064 124.001 92.7347 123.638 93.0495L123.621 93.0672C123.471 93.2458 123.229 93.0378 123.344 92.8488ZM134.539 79.8421C136.431 80.9919 139.315 83.6729 137.279 86.5233C134.883 89.0366 131.432 86.1549 129.732 84.8517C128.155 83.8416 126.383 86.4394 127.846 87.6187C140.133 96.7103 145.12 80.1428 135.496 78.4903C134.436 78.3082 134.043 79.4864 134.539 79.8421ZM114.329 69.2147C116.178 68.8868 118.073 69.3464 119.604 70.428L119.72 70.5114C121.194 71.5892 122.844 73.4818 121.998 75.3396C121.658 76.0856 120.641 76.2026 119.996 75.8644C118.921 75.3013 118.727 73.9158 117.768 73.1491C116.982 72.5206 115.923 72.1394 114.911 72.2313C112.532 72.4472 111.068 74.792 110.33 76.8127C110.235 77.0712 109.855 77.1717 109.707 76.8942C107.965 73.6398 111.049 69.7963 114.329 69.2147ZM143.956 67.9865C147.5 67.6947 151.647 71.3659 150.714 75.1037C150.267 76.8972 147.605 76.8458 147.132 75.1037C146.871 74.145 146.897 73.2969 146.207 72.5008C145.637 71.8435 144.827 71.4618 143.956 71.5204C142.997 71.585 142.112 72.0642 141.44 72.7378C140.832 73.346 140.469 74.236 139.84 74.7743C139.685 74.9065 139.478 74.915 139.325 74.7743C138.242 73.7766 138.892 71.6995 139.579 70.658C140.561 69.1676 142.161 68.1345 143.956 67.9865ZM107.581 62.5854C109.854 60.5745 113.984 58.6324 117.049 59.6221C118.812 60.191 119.58 63.0288 117.613 63.9283C115.335 64.9698 112.708 64.546 110.39 65.6256C109.416 66.0792 108.5 66.6461 107.822 67.4775C107.288 68.1327 106.745 68.9949 105.972 69.3727C105.769 69.4721 105.494 69.4746 105.331 69.2903C103.638 67.376 106.103 63.8932 107.581 62.5854ZM140.05 59.5223C141.454 59.1283 143.013 59.1363 144.44 59.3838C145.867 59.6313 147.315 60.2222 148.48 61.0841L148.615 61.185C149.887 62.1426 151.404 63.5359 151.323 65.2322C151.255 66.6487 149.764 67.6068 148.476 66.8644C147.427 66.259 146.933 65.0461 146.045 64.2385C145.312 63.572 144.45 63.0464 143.531 62.6782C142.511 62.2692 141.489 62.0775 140.393 62.0593C139.55 62.0452 138.701 62.3218 137.874 62.4102C137.942 62.55 137.288 62.4848 136.913 62.3608C136.635 62.2426 136.634 61.8917 136.73 61.664C137.207 60.536 138.945 59.8319 140.05 59.5223Z" fill="black"/>
</svg>
