<svg width="203" height="288" viewBox="0 0 203 288" fill="none" xmlns="http://www.w3.org/2000/svg">
<path fill-rule="evenodd" clip-rule="evenodd" d="M176.526 166.359C173.111 150.156 161 137.584 144.712 131.32C141.581 129.547 138.546 121.937 134.338 120.543C133.663 120.32 134.728 122.098 134.338 122.204C132.946 122.583 131.387 122.622 129.85 121.255C127.104 118.811 126.243 111.67 124.573 108.442C115.768 91.4205 93.7831 98.0805 90.8377 116.898C88.784 118.238 85.8809 119.419 83.6454 120.499C81.3434 121.612 79.3186 124.306 76.9463 125.269C74.8297 126.129 71.342 125.52 69.2092 126.269C59.3993 129.715 51.0907 134.064 44.5768 142.874C43.2043 144.732 41.6571 147.017 40.408 148.894C33.9687 156.318 29.496 164.639 25.3767 173.566C13.8516 199.769 10.7168 228.781 7.90431 257.013C7.96827 261.953 4.69522 275.651 9.53616 278.019C9.24684 278.319 9.35165 278.923 9.88846 278.917C22.1632 278.793 34.4093 279.893 46.4936 282.032C52.324 283.064 58.1232 284.48 64.0621 284.712C76.3904 284.627 88.6745 282.558 100.987 284.516C115.788 284.516 133.776 284.084 150.242 283.45C165.631 282.857 181.102 284.196 196.301 281.575C197.504 281.384 198.091 279.915 197.839 278.861C196.056 272.355 195.181 265.657 194.18 258.997C194.38 254.726 194.023 250.266 192.445 246.287C188.322 219.427 183.036 192.742 176.526 166.359Z" fill="#FFDBB4"/>
<path fill-rule="evenodd" clip-rule="evenodd" d="M134.338 122.303C134.728 122.197 133.663 120.419 134.338 120.642C138.546 122.036 141.581 129.646 144.712 131.419C161 137.683 173.111 150.255 176.526 166.458C183.036 192.841 188.322 219.526 192.445 246.386C194.023 250.365 194.38 254.825 194.18 259.096L194.337 260.148C195.276 266.461 196.15 272.796 197.839 278.961C198.092 280.014 197.504 281.483 196.301 281.674C181.275 284.265 165.982 282.986 150.766 283.529L147.595 283.649C131.866 284.228 114.998 284.615 100.987 284.615C88.6746 282.657 76.3905 284.726 64.0622 284.811C58.1233 284.579 52.3241 283.163 46.4936 282.131C34.4094 279.992 22.1632 278.892 9.88852 279.016C9.35171 279.022 9.2469 278.418 9.53622 278.118C4.69528 275.75 7.96834 262.052 7.90437 257.112L8.15858 254.57C10.9125 227.142 14.1974 199.082 25.3767 173.665L25.7115 172.942C29.7393 164.288 34.1428 156.216 40.4081 148.993L40.7913 148.418C41.9648 146.663 43.3416 144.646 44.5769 142.973C51.0908 134.163 59.3994 129.814 69.2093 126.368C71.3421 125.619 74.8298 126.228 76.9464 125.368C79.1652 124.467 81.08 122.052 83.2019 120.833L83.2019 129.925L113.906 160.215L131.32 133.473L133.091 122.521C133.517 122.494 133.935 122.413 134.338 122.303Z" fill="#8FA7DF"/>
<path fill-rule="evenodd" clip-rule="evenodd" d="M171.56 201.665C171.235 203.244 170.78 204.823 170.175 206.319C169.592 207.763 168.713 209.056 168.109 210.483C168.027 210.675 167.894 210.82 167.734 210.931L167.784 211.319L167.83 211.707C168.132 214.326 168.471 216.937 168.765 219.556L168.908 220.865C169.486 226.332 170.399 231.773 171.107 237.225C171.801 242.564 172.507 247.903 173.262 253.235C174.042 258.732 174.837 264.221 175.764 269.696C176.156 272.008 176.565 274.318 176.99 276.626L177.319 278.393C180.705 279.209 181.63 283.934 178.183 285.679C176.618 286.467 174.608 286.277 173.319 285.038C171.979 283.747 171.923 281.418 171.613 279.669L171.313 278.044C169.071 265.822 167.126 253.46 166.216 241.066C165.983 237.866 165.786 234.663 165.658 231.457C165.536 228.442 165.594 225.427 165.548 222.412L165.532 221.59C165.461 218.374 165.52 215.164 165.604 211.949C165.614 211.557 165.631 211.165 165.651 210.771C165.538 210.638 165.456 210.48 165.422 210.327L165.377 210.125C165.267 209.606 165.392 208.997 165.791 208.625C165.963 206.435 166.189 204.247 166.251 202.059C166.256 201.879 166.514 201.884 166.529 202.059C166.674 203.921 166.964 205.789 167.255 207.654C169.122 206.151 170.502 203.673 171.316 201.598C171.375 201.448 171.595 201.502 171.56 201.665ZM127.38 114.588C127.69 116.007 128.302 117.281 129.124 118.466C129.515 119.033 129.96 119.56 130.494 120.001C130.952 120.378 131.474 120.624 131.96 120.952C132.669 120.841 133.41 121.11 133.906 121.632L133.828 120.868C133.803 120.622 134.212 120.573 134.259 120.811C136.411 131.682 138.374 142.56 140.073 153.51L140.818 158.345L141.519 162.885C142.682 170.449 143.808 178.01 144.655 185.63C145.785 195.798 146.734 205.994 147.428 216.204C148.124 226.485 148.552 236.774 148.857 247.076C148.933 249.672 149.015 252.267 149.093 254.863L149.619 251.759C150.143 248.654 150.658 245.545 151.098 242.426C152.68 231.263 153.945 220.02 154.562 208.761C155.128 198.457 154.939 187.949 152.321 177.911C151.662 175.385 150.855 172.899 149.881 170.477C148.936 168.122 147.647 165.939 146.631 163.618C145.45 160.918 145.095 158.37 145.703 155.463C146.235 152.93 147.167 150.548 147.334 147.941C147.647 143.102 146.075 138.416 143.853 134.18C143.268 133.064 142.65 131.963 142.005 130.871C140.055 127.572 137.855 124.394 135.572 121.346C135.449 121.184 135.71 121.004 135.843 121.137C137.924 123.197 140.2 125.222 142.072 127.471C142.982 128.565 143.87 129.681 144.712 130.827C153.943 132.372 161.874 138.13 167.296 145.733C173.449 154.362 176.561 164.747 178.864 174.974C181.426 186.34 183.586 197.809 185.886 209.231C188.267 221.05 190.636 232.869 193.033 244.686C194.223 250.552 195.414 256.418 196.602 262.287C197.205 265.259 197.838 268.223 198.499 271.184C198.839 272.702 199.203 274.217 199.518 275.74C199.872 277.457 199.542 278.556 198.381 279.817C197.953 280.285 197.276 280.278 196.745 280.029L196.579 279.951L196.418 279.873C195.761 279.55 195.245 279.214 194.836 278.494C194.386 277.703 194.314 276.826 194.16 275.947C193.874 274.328 193.591 272.709 193.306 271.088C192.879 268.664 192.416 266.246 191.944 263.829L189.576 251.751C188.945 248.53 188.313 245.31 187.677 242.091C185.406 230.58 183.133 219.072 180.86 207.563C178.677 196.513 176.746 185.386 174.261 174.4L174.12 173.781L173.977 173.163C171.755 163.692 168.651 154.53 163.018 146.505C158.683 140.333 152.663 134.821 145.573 132.032C146.072 132.751 146.552 133.486 147.01 134.235C149.883 138.936 151.982 144.516 151.49 150.114C151.249 152.849 150.21 155.537 150.309 158.294C150.4 160.743 151.913 162.894 152.959 165.025C155.332 169.854 157.05 174.986 158.157 180.251C160.378 190.824 160.371 201.702 159.606 212.434C158.774 224.1 157.195 235.764 155.397 247.317C154.474 253.242 153.246 259.119 152.306 265.034C151.842 267.951 151.209 270.861 150.656 273.764L150.392 275.15C150.244 275.92 150.091 276.687 149.914 277.446L149.805 277.9V277.982C149.8 278.541 149.647 279.004 149.401 279.374C149.064 280.455 148.646 281.51 148.09 282.523C147.804 283.04 147.391 283.331 146.941 283.437C146.488 284.474 145.462 285.272 144.237 285.267L128.125 285.206C118.766 285.169 109.408 285.107 100.049 285.055C97.6876 285.043 95.3283 284.999 92.9689 284.937C90.7572 284.876 88.6365 284.609 86.4494 284.334C83.9791 284.023 82.641 282.271 83.01 279.8C83.0912 279.255 83.1795 278.714 83.2634 278.171C82.7714 278.334 82.1859 278.258 81.7898 277.871L81.4184 277.507C80.9037 276.997 80.4433 276.496 80.1168 275.816C79.7798 275.116 79.5065 274.377 79.2088 273.663C78.5667 272.125 77.942 270.583 77.3341 269.033C76.1165 265.934 74.8988 262.822 73.7668 259.69C71.5258 253.489 69.5426 247.194 67.8183 240.827C64.743 229.469 62.5188 217.891 61.1164 206.21L60.7812 203.426L60.6837 202.604C60.1519 198.077 59.7044 193.479 59.9159 188.961C60.0465 186.132 60.4842 183.282 61.5398 180.641C62.5138 178.204 64.017 176.12 65.4464 173.942L65.61 173.69L65.7744 173.433C67.0245 171.455 68.0191 169.386 68.069 166.984C68.1195 164.546 67.4103 162.173 66.6173 159.891L66.4197 159.328L66.287 158.955C64.6001 154.238 62.6803 149.588 63.3134 144.455C64.2485 136.896 68.8243 130.803 74.5814 126.104C69.4614 127.119 64.3937 129.124 59.921 131.667C54.6387 134.673 49.8832 138.64 45.782 143.117C38.0324 151.577 32.4994 161.729 27.9704 172.21C23.2293 183.179 19.7137 194.672 17.0643 206.316C14.3999 218.027 12.6162 229.925 11.3982 241.869C10.7908 247.815 10.3132 253.774 9.9174 259.737C9.71566 262.792 9.56313 265.852 9.32695 268.903C9.09077 271.95 8.98474 275.045 8.24176 278.011C7.89487 279.394 5.55521 279.534 5.30452 278.011C4.74815 274.611 4.90364 271.094 5.05892 267.651L5.07301 267.338C5.22579 263.908 5.42507 260.481 5.661 257.054C6.14345 250.049 6.78777 243.055 7.62916 236.082C10.5789 211.606 16.0187 187.259 26.6886 164.917C31.7123 154.394 38.1605 144.169 47.1304 136.57C51.4011 132.956 56.2157 130.071 61.4043 127.981C66.0445 126.111 70.7582 125.227 75.6885 125.229C78.161 123.332 80.8155 121.679 83.4674 120.267C83.6273 120.181 83.7946 120.388 83.662 120.521C83.5931 120.588 83.5264 120.656 83.4578 120.721C83.7579 120.74 84.0677 120.881 84.3457 121.174C85.3202 122.196 86.1419 123.475 86.8772 124.803C87.9966 126.203 89.0643 127.649 90.1815 129.033C91.9698 131.251 93.8002 133.436 95.653 135.604C98.7645 139.248 101.977 142.823 105.328 146.254L105.887 146.825C107.624 148.586 109.383 150.695 111.437 152.09L111.547 152.163C112.414 152.728 113.028 152.831 113.767 151.987C114.439 151.218 114.998 150.326 115.573 149.478L115.706 149.284C118.641 145.014 121.362 140.586 123.825 136.028C124.947 133.954 126.015 131.85 127.028 129.722L127.331 129.083C127.882 127.91 128.479 126.759 128.934 125.552C129.04 125.269 129.144 124.985 129.244 124.705C127.694 123.687 126.494 121.484 126.059 119.76C125.606 117.968 125.835 116.13 126.642 114.492C126.794 114.184 127.306 114.26 127.38 114.588ZM50.9194 187.377C50.7049 194.187 50.5747 201.004 50.2547 207.81L50.1442 210.133C50.6434 210.69 50.9361 211.333 50.7024 212.215C50.6116 212.552 50.3432 212.858 50.0086 212.971L49.9043 215.131C49.4295 224.85 48.873 234.548 47.856 244.242C46.584 256.374 45.1128 268.486 43.6443 280.596C43.4352 282.311 42.2442 283.671 40.3917 283.419C38.5173 283.165 37.7571 281.532 38.0031 279.829C38.97 273.15 39.8997 266.466 40.7142 259.764L41.6417 252.129C42.8047 242.585 43.9951 233.042 45.3665 223.529C45.9397 219.552 46.5351 215.578 47.1327 211.604L46.9238 211.333C46.0699 210.222 45.1866 209.135 44.3133 208.041C42.6357 205.932 40.9799 203.84 39.4423 201.632C39.3658 201.522 39.521 201.359 39.6315 201.443C41.7867 203.037 43.8264 204.742 45.8782 206.474L47.6742 207.997C48.7074 201.13 49.7309 194.261 50.6434 187.377C50.6658 187.205 50.9241 187.192 50.9194 187.377ZM81.9202 122.204C80.6234 123.428 79.2976 124.626 77.991 125.843L77.5124 126.291L77.036 126.741C74.7398 128.922 72.5397 131.192 70.7066 133.799C67.341 138.586 65.3359 144.422 66.7355 150.267C67.897 155.108 70.5614 159.496 71.2773 164.458C71.6363 166.944 71.4618 169.443 70.5267 171.791C69.5722 174.186 68.0468 176.238 66.6765 178.399C63.6997 183.095 63.2937 188.249 63.5892 193.689C63.8992 199.371 64.5509 205.055 65.3556 210.685C66.984 222.092 69.4393 233.382 72.6892 244.437C74.3157 249.973 76.2368 255.391 78.1487 260.831C79.1005 263.539 80.2103 266.183 81.3541 268.814C81.9568 270.199 82.5746 271.576 83.2019 272.95C82.9704 271.009 82.9704 269.016 82.8573 267.087C82.6949 264.322 82.4882 261.563 82.2988 258.801C81.9128 253.196 81.5684 247.586 81.2608 241.975C80.171 221.969 79.3689 201.946 79.4277 181.907C79.4575 171.887 79.6617 161.866 80.0922 151.856C80.2941 147.142 80.6849 142.432 81.0382 137.724L81.1132 136.716C81.4257 132.49 81.7996 128.255 82.4415 124.066C82.2514 123.637 82.0865 123.202 81.9641 122.756L81.9202 122.588L81.9521 122.593C81.9226 122.462 81.9128 122.332 81.9202 122.204ZM93.1338 104.987C93.1606 104.871 93.3255 104.881 93.355 104.987C94.0857 107.45 93.8274 110.161 93.1978 112.639C92.8583 113.982 92.3761 115.285 91.793 116.542L91.589 116.982C91.0894 118.052 90.5269 119.154 89.554 119.821C89.1483 120.1 88.4223 120.117 88.0164 119.821L87.8093 119.664C87.7753 119.637 87.7416 119.61 87.7088 119.582C87.3302 119.264 87.143 118.562 87.3177 118.099C87.7679 116.904 88.7891 116.027 89.4949 114.963C90.1201 114.016 90.6736 113.019 91.1334 111.981C92.1249 109.737 92.5702 107.354 93.1338 104.987Z" fill="black"/>
<path fill-rule="evenodd" clip-rule="evenodd" d="M88.7297 11.7559L90.8501 14.2866C89.676 15.117 88.5676 15.9513 87.5251 16.7897L87.5241 16.7872C92.3533 13.625 97.7017 11.7559 103.479 11.7559C114.608 11.7559 137.211 21.3493 142.321 28.269C144.857 31.703 149.569 42.2451 152.014 53.7063C153.978 62.9152 156.899 88.9317 153.978 98.7075C150.239 111.219 137.939 122.783 125.257 122.783C112.574 122.783 92.8837 113.594 78.8699 93.4562C78.2291 92.5354 70.8705 91.4681 65.6211 88.012L66.9993 103.25L68.0468 112.114L67.8156 112.745C64.056 122.95 61.0767 128.273 58.8777 128.716C56.6339 129.168 52.0643 125.477 45.1691 117.642L44.288 113.931C42.0501 104.464 40.9312 99.3818 40.9312 98.6855L40.9327 98.5587C40.9657 96.9564 41.5157 87.8874 41.527 85.4468L41.5272 48.8678C48.9428 24.1265 56.0194 11.7559 62.757 11.7559H88.7297Z" fill="#FFDBB4"/>
<path fill-rule="evenodd" clip-rule="evenodd" d="M71.1585 3.32958C73.3388 2.48202 75.8647 2.64217 77.9343 3.91843C81.9976 3.7435 86.0386 6.12849 88.157 9.60988C88.2012 9.65915 88.2481 9.70843 88.2898 9.75771L88.7388 10.2829C89.1639 10.7844 89.6124 11.3371 89.9676 11.9079C88.2274 11.9478 86.7778 12.6596 85.7658 14.0973C85.0438 15.1231 86.6978 16.0978 87.4358 15.1276L87.4617 15.0921C88.0693 14.2291 88.9865 13.8947 90.0076 13.8772C90.3007 13.8723 90.5231 13.7597 90.6802 13.5936C90.7429 13.8225 90.7988 14.0539 90.8501 14.2862C95.9914 12.2794 101.534 11.748 107.054 12.224C106.812 12.6172 106.61 13.0385 106.454 13.4813C106.277 13.9832 106.654 14.5595 107.14 14.6935C107.665 14.8384 108.14 14.5294 108.33 14.0518L108.348 14.0051C108.56 13.402 108.906 12.8843 109.371 12.483C111.97 12.8365 114.55 13.3988 117.067 14.1236C120.093 14.9956 123.089 16.0597 126.02 17.2781C125.524 17.4734 125.095 17.8036 124.795 18.3547C124.195 19.4549 125.843 20.4403 126.468 19.3885L126.491 19.3496C126.552 19.2369 126.606 19.169 126.646 19.1304L126.66 19.1173L126.747 19.0774L126.908 19.0311L126.969 19.0158C127.024 19.0035 127.047 19.0043 127.19 18.9963C127.381 18.9855 127.572 18.9865 127.764 18.9862C128.213 18.986 128.5 18.7344 128.63 18.4126C130.077 19.0678 131.504 19.7577 132.907 20.4803L133.24 20.6535C137.57 22.9236 141.671 25.9048 144.05 30.2913C144.208 30.5845 144.257 30.9048 144.217 31.2103C144.725 31.8213 145.216 32.452 145.688 33.0926C147.126 35.0538 148.18 37.2836 149.176 39.4937C151.182 43.9384 152.532 48.5039 153.586 53.264C154.605 57.8517 155.427 62.4886 156.191 67.1255C157.037 72.2774 157.742 77.4736 157.889 82.6994C158.15 92.0151 156.335 101.385 151.123 109.227C146.474 116.225 139.472 121.781 131.169 123.56C122.724 125.368 113.787 123.604 107.132 117.957C106.059 117.048 106.206 115.212 107.132 114.281C108.18 113.231 109.727 113.377 110.795 114.281C117.062 119.6 126.185 120.421 133.737 117.71C140.719 115.202 146.189 109.417 149.545 102.92C153.64 94.9963 154.33 85.895 153.701 77.1286C153.357 72.3143 152.643 67.5394 151.906 62.7719L151.462 59.9021C150.977 56.7938 150.467 53.6897 149.803 50.6129L149.647 49.8961C148.835 46.1858 147.883 42.3804 146.412 38.8925C145.641 37.0619 144.713 35.2978 143.763 33.5558C143.579 33.2183 143.39 32.8758 143.196 32.5309C142.936 32.622 142.639 32.6368 142.327 32.5383C139.644 31.7006 136.887 31.1388 134.081 30.9516C132.802 30.8658 131.522 30.8525 130.243 30.9025C128.054 30.7747 125.804 30.9678 123.719 31.6414C123.515 31.4658 123.308 31.2938 123.101 31.1218C123.045 31.1174 122.989 31.1115 122.933 31.1004C122.401 30.9954 122.027 30.616 121.802 30.1368C121.79 30.1114 121.78 30.086 121.77 30.0606C121.503 29.8559 121.234 29.6544 120.962 29.4555C120.3 29.6278 119.72 29.0751 119.564 28.4695C119.417 28.3697 119.267 28.2731 119.118 28.1753C119.002 28.2039 118.886 28.2276 118.773 28.2359C118.286 28.2712 117.815 28.1963 117.383 27.9629C116.836 27.6675 116.487 27.191 116.253 26.6497C115.427 26.7007 114.59 26.4314 113.851 25.9446C113.251 25.5496 112.791 25.0044 112.334 24.4601C106.767 21.968 100.715 20.4966 94.6483 20.1196C94.0507 20.2349 93.4574 20.3721 92.8713 20.5318C92.7326 20.5697 92.5357 20.6441 92.3091 20.7333C93.6616 20.5692 95.0315 20.553 96.4208 20.7538C103.013 21.7105 108.148 26.6643 112.567 31.3404C113.619 31.1272 114.681 32.4934 113.708 33.3981L106.123 40.4523C106.309 41.2413 105.408 42.0188 104.618 41.8294C103.294 41.5101 101.967 41.1996 100.64 40.8943C99.2551 41.5667 97.5143 41.4517 96.2583 40.477C96.1999 40.4316 96.0729 40.3592 95.9627 40.2873C95.8596 40.3728 95.7209 40.4585 95.6656 40.495C95.2191 40.7916 94.675 40.8788 94.1534 40.7955C93.6167 40.7101 93.1323 40.4368 92.7147 40.0966C92.4489 39.8798 91.8294 38.9755 91.4847 38.9089L91.4511 38.9051C91.6812 38.9117 90.9417 39.6013 90.7431 39.744C90.2796 40.0759 89.7672 40.2503 89.1905 40.1867C88.1855 40.0758 87.3213 39.1565 86.8298 38.3077L86.7927 38.2425L86.7773 38.2021L86.7642 38.2458C86.7618 38.2536 86.759 38.2618 86.7557 38.2711C86.682 38.4709 86.4508 38.6981 86.2936 38.8378C85.8458 39.2352 85.2915 39.4099 84.6993 39.3062C84.1981 39.2186 83.7767 38.9147 83.438 38.547L83.3852 38.4884C83.285 38.3749 82.6247 37.4846 82.7289 37.2713L82.741 37.2533L82.7081 37.2464C82.3064 37.3454 81.9694 37.2462 81.7224 37.0385C80.3442 36.7354 78.9838 36.3823 77.667 35.9334C77.5638 36.2242 77.4629 36.5149 77.365 36.8081C78.0841 37.254 78.7494 37.8897 79.3607 38.3431C80.5197 39.2005 81.6782 40.0579 82.8345 40.9178L87.4161 44.3095L87.94 44.1683C88.6095 43.9879 89.1838 44.379 89.4295 44.9769L89.4498 45.0287C89.5473 45.2906 89.6646 45.5328 89.8026 45.7646C90.9478 45.7188 91.9176 46.4244 92.2311 47.4366C92.5139 47.4301 92.7997 47.441 93.0918 47.4733C93.8919 47.5614 94.4312 48.1577 94.2863 48.9765L94.2754 49.0326L94.256 49.1238C94.7197 49.3214 95.0561 49.703 95.1307 50.2801C95.2549 50.4676 95.3551 50.6716 95.4192 50.8987C95.7538 52.0774 95.1028 53.5345 94.756 54.6637L94.7293 54.7522C94.5067 55.4943 94.2764 56.2328 94.0433 56.971L93.4629 58.8038C91.8533 63.9119 90.2841 69.2975 91.5866 74.6525C91.8643 75.7859 90.4205 76.2983 89.7945 75.4114C88.2768 73.2639 86.6371 71.2403 84.9154 69.2979L84.8319 69.2846C83.6263 69.0414 83.1581 68.1867 82.6047 67.3155C82.2787 67.4118 81.9281 67.4345 81.5893 67.3689C81.0988 67.2741 80.6594 66.9929 80.3125 66.6379C80.0186 66.3368 79.7493 65.5647 79.4019 65.3732C78.9674 65.134 78.0939 65.476 77.5749 65.3991C77.1529 65.3368 76.7588 65.1914 76.3766 65.0088C75.674 65.97 75.2083 67.0999 75.0941 68.318C75.0497 68.7812 74.9122 69.1729 74.7133 69.4982C75.4449 69.4711 76.179 69.5228 76.9035 69.6583C79.5843 70.1585 81.5066 71.8191 82.5868 74.2928C82.6332 74.4012 82.4933 74.4899 82.4294 74.3864C80.8266 71.9103 77.3377 71.7846 74.8042 72.6568C72.1135 73.5832 70.6036 75.9608 70.0662 78.6735C69.477 81.6473 70.2329 84.8528 71.8461 87.3856C72.5947 88.5633 73.6162 89.6375 74.9736 90.0711C76.5868 90.5861 78.0767 89.6646 79.7289 90.1401C80.8533 90.4629 81.3495 91.5544 81.1455 92.6458C81.0644 93.0746 80.9147 93.4491 80.7134 93.7743C81.3077 94.9569 81.8574 96.174 82.5571 97.2926C83.6373 99.0198 84.9436 100.449 86.3673 101.89C87.8378 103.378 89.3354 104.837 90.9091 106.217C92.4167 107.54 94.145 108.481 95.726 109.693C96.8357 110.543 97.3854 111.736 96.8379 113.101C96.3864 114.229 94.8641 115.19 93.6317 114.68C91.2724 113.704 89.2077 112.044 87.3274 110.334C85.5844 108.747 84.0669 106.85 82.9204 104.79C81.8389 102.848 81.042 100.643 80.3696 98.5186L80.2862 98.2535C79.9695 97.2433 79.6359 96.1075 79.4198 94.9618C78.126 95.6714 76.3705 95.7749 74.9861 95.5827C72.7493 95.2747 70.7092 94.1439 69.1675 92.4956C68.4489 91.7286 67.8138 90.8537 67.2653 89.9053C67.3151 90.4826 67.3449 91.0412 67.3768 91.5494C68.6585 92.9583 69.1726 94.9914 68.7177 96.8464C69.79 97.9542 70.0905 99.617 69.5308 101.033C70.7045 102.201 70.6603 104.06 70.1529 105.749C71.5405 107.305 71.6718 109.73 70.5884 111.486L70.5558 111.612C71.6497 113.449 71.403 115.823 70.0324 117.446C70.9685 119.268 70.8236 121.719 68.4842 122.426C67.6316 122.683 66.8052 122.464 66.1868 121.984C66.7515 124.803 67.0041 127.664 66.2511 130.495C65.9514 131.619 64.8565 132.439 63.705 132.439C62.7427 132.439 62.043 131.954 61.5596 131.239C61.6161 132.661 61.5302 134.09 61.2282 135.531C61.046 136.402 60.2415 137.081 59.3874 137.291C59.6955 137.639 59.8183 138.144 59.5229 138.669C58.2706 140.894 55.2448 139.971 55.0403 137.839C54.1857 137.199 53.7885 136.148 53.624 135.013C53.3844 133.356 53.2975 131.728 53.026 130.093L52.9222 130.19L52.8686 130.236L52.8514 130.355C52.6958 131.163 52.2416 131.729 51.6522 132.066C51.7803 133.476 51.5432 134.912 50.652 135.982C50.0584 136.696 49.0471 136.977 48.1803 136.822C48.1258 136.825 48.07 136.825 48.0121 136.817C46.0488 136.555 44.9129 134.686 45.4297 132.971C44.6392 131.999 44.3063 130.765 44.5402 129.546C43.0105 128.529 43.0417 126.297 43.5715 124.503C41.9679 123.233 41.3647 120.859 42.1704 118.972C40.7251 117.17 40.5241 114.66 41.5061 112.609C39.916 111.298 39.9251 108.767 41.5022 107.426C40.6623 105.753 40.1558 103.748 40.9952 102.217C40.403 101.561 40.078 100.626 40.1465 99.7229C40.2469 98.3964 41.1214 97.4799 42.2065 96.8691L42.2816 96.4542C42.5364 96.486 42.808 96.4145 43.0473 96.1839C43.2842 95.9555 43.528 95.7715 43.7802 95.6197C44.0657 95.616 44.3114 95.4884 44.4843 95.292C44.9571 95.1309 45.4655 95.0597 46.0294 95.0533C47.2474 95.0399 47.2903 93.212 46.1569 93.0935C45.9779 92.9124 45.7314 92.7984 45.4641 92.7984L45.2547 92.7992C44.7653 92.8039 44.2711 92.8341 43.817 93.0295C43.5219 93.1561 43.2943 93.3471 43.1276 93.5806C43.0964 93.9339 42.9049 94.2863 42.4903 94.5772C42.0113 94.9133 41.3563 94.9525 40.8437 94.6484C40.1261 94.2227 40.1188 93.5582 40.2015 92.8358C40.3827 91.2555 39.4773 89.7683 39.6928 88.1516C39.7883 87.4368 40.0255 86.8196 40.4121 86.3212C39.5968 85.0964 39.453 83.5154 40.0807 82.1709C38.7729 80.7589 38.5468 78.5823 39.3808 76.883C39.3928 76.8419 39.4021 76.7997 39.4151 76.7591C39.5094 76.4703 39.6393 76.2099 39.7824 75.9608C39.0503 74.688 39.0557 73.1262 39.7998 71.8588C38.6727 70.5401 38.6369 68.4417 39.6393 67.021C39.6452 66.9033 39.6575 66.7855 39.6675 66.6677C39.2074 65.4691 39.3179 64.1063 39.9015 62.9917C39.6933 62.51 39.5327 61.9914 39.4301 61.439C39.1672 60.0149 39.3025 58.6302 39.6953 57.2406C39.7588 57.0213 39.83 56.8021 39.9061 56.5828C39.9189 55.631 39.955 54.6834 40.0026 53.7375C39.816 52.9369 39.7859 52.057 39.7817 51.2401L39.7806 50.7104C39.7714 49.3624 39.6778 47.3887 40.527 46.2428C39.9818 45.005 40.2059 43.4454 41.116 42.4643C40.4772 41.3617 40.3431 40.0079 40.9851 38.7846C41.0882 38.5877 41.2078 38.4044 41.3389 38.2309C41.2859 37.1106 41.5208 35.9554 42.1157 34.842C42.5021 34.1171 43.0793 33.4896 43.7654 32.9874C43.7539 32.8389 43.7468 32.6905 43.7492 32.5444C43.7613 31.8925 43.9054 31.2379 44.1479 30.6271C43.7126 29.8815 43.5108 29.0411 43.7654 28.1354C44.0502 27.1105 44.7992 26.2284 45.7343 25.7307C45.8097 24.7644 45.9602 23.8038 46.1753 22.8559C45.6006 21.5715 46.0582 19.8764 47.3571 19.1198C47.1877 18.0933 47.3404 17.029 48.0848 16.2272C48.3669 15.9234 48.6993 15.6931 49.057 15.5403C48.8846 14.5082 49.0791 13.4345 49.7903 12.5941C50.3711 11.9079 51.2319 11.491 52.1078 11.4297C52.4451 9.63452 54.1541 8.29222 55.957 8.39915C56.1824 7.60876 56.7208 6.91962 57.556 6.57025C57.7698 6.48082 57.9859 6.42193 58.2012 6.38916C59.6673 4.90495 61.85 3.89897 63.7397 3.38378C65.6351 2.86908 67.5565 2.81926 69.1839 3.41768L69.3025 3.46263L69.4351 3.44538C70.0098 3.38132 70.584 3.34436 71.1585 3.32958ZM56.7549 124.978C56.2487 124.819 55.684 125.165 55.5468 125.666C55.4019 126.195 55.7245 126.719 56.2327 126.878C56.8659 127.076 57.5309 127.126 58.1908 127.126C58.7214 127.127 59.1728 126.673 59.1728 126.141C59.1728 125.606 58.7233 125.156 58.1908 125.155C57.6542 125.155 57.2579 125.135 56.7549 124.978ZM52.2517 114.512C51.4948 114.512 50.8457 114.694 50.2845 115.226C49.9103 115.581 49.901 116.267 50.2845 116.62C50.6718 116.976 51.2337 116.997 51.6313 116.658L51.7079 116.589C51.7171 116.58 51.7242 116.574 51.73 116.568C51.7619 116.547 51.7941 116.526 51.8279 116.509L51.7639 116.551C51.7151 116.586 51.8282 116.528 51.8917 116.501L51.9117 116.493L51.918 116.491L51.9689 116.487C52.0629 116.482 52.1574 116.483 52.2517 116.483C52.7653 116.482 53.2572 116.03 53.2337 115.497C53.2096 114.963 52.8021 114.511 52.2517 114.512ZM66.5345 108.259C67.5974 107.605 66.648 105.932 65.5819 106.534L65.5434 106.557C64.9969 106.893 64.3247 106.848 63.7055 106.848C62.4419 106.849 62.4397 108.82 63.7055 108.819L63.9148 108.818C64.8224 108.811 65.7404 108.748 66.5345 108.259ZM58.169 101.065C57.3659 100.913 56.4663 100.778 55.6213 100.87L55.481 100.888H55.221C54.9952 100.888 54.7764 100.979 54.6009 101.122C54.323 101.238 54.0598 101.393 53.8197 101.602C52.863 102.434 54.2572 103.824 55.2085 102.996C55.2613 102.95 55.3226 102.912 55.3908 102.881L55.4432 102.859H56.4937C56.5892 102.859 56.6822 102.839 56.7728 102.81C57.1138 102.857 57.4315 102.925 57.6468 102.965C58.8822 103.199 59.4115 101.299 58.169 101.065ZM57.2722 82.1475C55.7329 81.431 54.0281 81.4362 52.6045 82.4311C51.5865 83.1425 52.5321 84.8203 53.5588 84.1577L53.5955 84.1331C53.7232 84.0439 53.8543 83.9692 53.9869 83.9015C54.7096 84.1111 55.4371 84.121 56.1359 83.8632L56.2268 83.828L56.2811 83.8492C57.4202 84.3795 58.4189 82.6811 57.2722 82.1475ZM74.0343 79.0591C72.4793 78.8842 72.4668 76.4189 74.0343 76.5953C77.3439 76.9678 80.3469 78.4444 82.5463 80.9802C83.5693 82.1595 81.8846 83.8849 80.8424 82.7581L80.8104 82.7224C79.0614 80.706 76.7012 79.3592 74.0343 79.0591ZM56.6137 66.4019C56.2681 66.3639 55.9231 66.345 55.5836 66.3615C54.7681 66.4009 53.7748 66.9469 54.1327 67.9334C54.4197 68.7238 55.3605 68.7551 55.8249 68.3335C56.0182 68.3382 56.2111 68.351 56.4033 68.3707C56.9162 68.4237 57.4241 68.5218 57.9296 68.6218C59.1643 68.8655 59.6928 66.9661 58.4518 66.7209L57.9029 66.612C57.7179 66.5756 57.5313 66.5401 57.3439 66.5076C57.2317 66.4516 57.1114 66.4139 56.9829 66.4043L56.9179 66.4019H56.6137ZM46.8563 51.1101L46.7409 51.0944C45.0826 50.8815 42.4205 51.0774 42.2193 53.196C42.108 54.3693 43.7971 54.4429 44.1305 53.4397C45.3551 53.2182 46.5897 53.1758 47.8059 53.3103C48.2699 52.8373 48.2736 51.9279 47.5012 51.7009C47.3922 51.4068 47.1646 51.1547 46.8563 51.1101ZM84.7629 47.5319C84.3797 47.1788 83.7512 47.132 83.3741 47.5319C83.1569 47.762 82.9754 48.0178 82.8318 48.2991L82.7362 48.4891C82.7201 48.5207 82.7035 48.552 82.6862 48.583C82.6541 48.6404 82.618 48.6951 82.5829 48.7508L82.5592 48.774C82.5499 48.7836 82.5388 48.7951 82.5257 48.8092C82.1724 49.1839 82.1275 49.8361 82.5257 50.2029C82.9089 50.556 83.5371 50.6028 83.9145 50.2029C84.1315 49.9728 84.3129 49.7173 84.4568 49.4357L84.5522 49.2459C84.5683 49.2144 84.5849 49.1831 84.6021 49.1521C84.6343 49.0945 84.6706 49.0398 84.7055 48.9841L84.7446 48.9449C84.7502 48.9391 84.7563 48.9327 84.7629 48.9257C85.1162 48.5512 85.1609 47.8988 84.7629 47.5319ZM64.6254 44.9653C63.2418 43.9813 61.5964 43.9355 60.3245 45.1193C59.4066 45.9738 60.7552 47.3429 61.6808 46.5423L61.7133 46.5131C61.7469 46.4816 61.7811 46.454 61.8149 46.4276C61.9809 46.5695 62.1918 46.6595 62.4329 46.6597C62.4959 46.6599 62.5588 46.6597 62.6216 46.661L62.7159 46.6644L62.7665 46.6686L62.7729 46.6698L62.8171 46.6887C62.8978 46.7252 63.0093 46.7816 62.8564 46.6856C62.8905 46.7036 62.9224 46.7248 62.9548 46.7454L63.0113 46.7969C63.3815 47.1483 64.022 47.1946 64.3895 46.8061C65.0403 46.5853 65.3858 45.5056 64.6254 44.9653ZM78.1532 41.7365L78.1783 41.7286C79.3916 41.381 78.8758 39.4786 77.6562 39.8278C76.3621 40.1986 75.7442 41.4071 75.4854 42.6449C75.3767 43.1655 75.6376 43.7103 76.1714 43.8573C76.6589 43.9916 77.27 43.6923 77.3795 43.169C77.4562 42.8009 77.5448 42.4887 77.6849 42.199L77.7698 42.0336C77.8094 41.9582 77.8233 41.9457 77.9571 41.8284C77.9796 41.8087 78.0818 41.7609 78.1532 41.7365ZM57.6034 31.8095L57.4136 31.766C56.2316 31.5062 54.6628 31.3705 53.9491 32.5464C53.2985 33.6177 54.9397 34.5929 55.6155 33.5802C55.6258 33.5799 55.6377 33.58 55.6515 33.5811L55.6737 33.5837L55.9767 33.559C56.354 33.5563 56.7151 33.6233 57.0812 33.7103C58.3102 34.0023 58.8348 32.1022 57.6034 31.8095ZM100.035 24.2322C100.93 23.3341 99.5414 21.9399 98.6463 22.8387C97.9385 23.549 97.2558 24.2642 96.7957 25.1667C96.5544 25.6403 96.6724 26.236 97.148 26.5152C97.5867 26.7727 98.2491 26.6372 98.4916 26.1616C98.8903 25.3794 99.3936 24.8763 100.035 24.2322ZM88.7432 21.8748C87.8592 22.4001 87.2869 23.2654 86.9395 24.267C86.7652 24.7696 87.1382 25.3449 87.6255 25.4792C88.1492 25.6236 88.6277 25.3157 88.816 24.8376L88.8333 24.7908C88.9264 24.5229 89.0752 24.2066 89.259 23.9678C89.4162 23.7641 89.6604 23.5601 89.8446 23.4923C90.2872 23.3292 90.6009 22.9266 90.56 22.4565C89.832 22.7091 89.1562 22.4053 88.7432 21.8748ZM62.2789 17.5878C61.387 16.757 60.1905 16.6468 59.1093 17.1497C58.6278 17.3734 58.5073 18.0699 58.757 18.4981C59.0457 18.9936 59.6175 19.0764 60.1004 18.8517C59.9764 18.9094 60.2003 18.8332 60.297 18.8054C60.3094 18.8111 60.4715 18.8037 60.5274 18.8045L60.5947 18.8088C60.5952 18.8093 60.5787 18.809 60.5452 18.8078C60.5923 18.8185 60.6389 18.8313 60.6848 18.846L60.7433 18.8663C60.7139 18.8601 60.8465 18.9469 60.8834 18.9757L60.8901 18.9813C61.8157 19.8434 63.2079 18.4528 62.2789 17.5878Z" fill="black"/>
<path fill-rule="evenodd" clip-rule="evenodd" d="M131.108 97.5007C131.486 96.8436 132.355 96.2348 133.15 96.3281C136.712 96.7465 136.706 101.071 135.33 103.596C134.111 105.835 131.587 107.15 129.061 106.958C126.407 106.756 124.146 105.193 123.151 102.707C122.492 101.062 122.188 98.0262 123.939 96.9212C123.972 96.9005 124.025 96.9057 124.051 96.9355C124.89 97.9134 124.923 99.3816 125.658 100.47C126.342 101.483 127.404 102.319 128.647 102.448C129.576 102.545 130.516 102.209 130.88 101.374C131.076 100.922 131.054 100.677 130.98 100.366L130.913 100.096C130.68 99.1494 130.576 98.4287 131.108 97.5007ZM132.061 78.5329C133.918 79.6638 136.749 82.3009 134.75 85.1045C132.398 87.5766 129.011 84.7422 127.342 83.4603C125.794 82.4669 124.055 85.022 125.491 86.182C137.552 95.1246 142.447 78.8286 133 77.2032C131.96 77.0241 131.574 78.1831 132.061 78.5329ZM112.442 70.7781C113.583 69.0648 116.185 69.3171 116.814 71.3502C117.154 72.4516 116.684 73.4415 116.708 74.5414C116.729 75.4705 116.668 76.5058 116.383 77.4056C115.735 79.4575 113.892 80.9067 111.712 80.8466C109.539 80.7867 107.626 79.4094 106.716 77.4696C105.802 75.5225 105.996 73.5073 106.662 71.5274C106.694 71.4323 106.819 71.3862 106.894 71.4663C107.682 72.305 108.259 73.1904 108.856 74.1297L109.468 75.0923C109.935 75.8172 110.615 76.7432 111.488 76.685L111.619 76.6721C111.861 76.6512 111.824 76.6995 112.011 76.3683C112.098 76.2151 112.082 75.9302 112.124 75.7494L112.138 75.6883L112.13 75.6554C112.112 75.5678 112.094 75.4028 112.079 75.1164L112.076 75.0531C112.012 73.7135 111.634 71.9921 112.442 70.7781ZM141.348 71.9188C141.143 69.7274 144.219 69.2408 145.242 70.8623C145.775 71.7078 145.931 72.77 146.049 73.7763L146.104 74.254C146.225 75.2876 146.273 76.3628 145.825 77.3269C145.119 78.8453 143.585 79.648 141.93 79.5209C140.349 79.3992 138.907 78.4814 138.147 77.0881C137.469 75.8449 136.795 73.4175 137.618 72.1208C137.668 72.0422 137.767 72.0321 137.835 72.0927C138.613 72.7843 138.74 74.0458 139.202 74.9468C139.68 75.8762 140.403 76.7819 141.5 76.923C142.549 77.0581 142.949 76.4842 142.682 75.4827C142.337 74.1897 141.477 73.3101 141.348 71.9188ZM113.273 57.7502L113.776 57.5573C115.5 56.9052 117.866 56.1514 119.268 57.5551C120.132 58.4206 120.297 59.6957 119.68 60.7519C118.932 62.0314 117.591 62.0629 116.296 62.2514C114.823 62.4657 113.325 62.8733 111.954 63.4542C110.409 64.1089 108.975 64.9249 107.571 65.8363C106.236 66.7023 104.906 68.1178 103.308 68.3846C103.243 68.3954 103.169 68.3673 103.152 68.2957C102.789 66.7311 103.797 65.1915 104.697 63.9709C105.786 62.4931 107.105 61.2801 108.58 60.1926C110.003 59.1428 111.629 58.3842 113.273 57.7502ZM144.583 63.3127L144.737 63.2857C145.782 63.1115 146.73 63.1516 147.517 63.9806C148.118 64.6131 148.35 65.4328 148.064 66.2691C147.799 67.0405 147.208 67.8242 146.349 67.9859C143.451 68.5318 140.242 68.4417 137.329 68.0282C135.997 67.839 134.652 67.6074 133.354 67.2423L132.757 67.0689C131.674 66.759 130.433 66.4351 129.646 65.6371C129.363 65.3503 129.527 64.9398 129.865 64.807C131.238 64.2684 133.121 64.555 134.585 64.5128C136.288 64.4641 137.995 64.3362 139.69 64.16C141.347 63.9875 142.95 63.6128 144.583 63.3127Z" fill="black"/>
</svg>
