<svg width="202" height="288" viewBox="0 0 202 288" fill="none" xmlns="http://www.w3.org/2000/svg">
<path d="M168.421 181.949H111.026V252.587H168.421V181.949Z" fill="#FDEA6B"/>
<path fill-rule="evenodd" clip-rule="evenodd" d="M94.2847 112.857C100.472 108.149 116.004 106.032 122.608 110.565C129.13 115.118 129.841 122.48 132.88 129.253C135.748 127.901 140.483 129.837 141.314 132.496C142.346 133.75 142.392 137.274 143.103 138.96C174.042 143.882 178.739 167.989 182.463 195.357C187.39 223.128 198.573 250.839 193.718 279.416C194.351 280.331 194.85 281.22 195.311 282.276C196.416 284.155 194.992 286.815 192.764 286.712C189.878 286.459 187.022 286.114 184.123 286.006C176.088 285.727 168.045 285.76 160.007 285.862L158.911 285.876C118.4 286.38 77.8905 287.374 37.3775 287.637C35.9078 287.639 35.1882 286.322 35.3845 285.022C35.7797 282.406 36.1464 279.788 36.5291 277.171C26.9468 279.7 16.7599 280.337 7.20459 277.437C6.53614 276.756 8.76205 277.125 9.11519 277.022C0.321338 271.016 2.94751 258.365 3.72649 249.252C8.57031 218.029 10.2779 183.482 28.9927 156.838C37.0891 145.965 48.959 137.356 62.5984 135.419L62.9768 135.367C66.965 134.836 71.4097 134.664 74.8967 132.496C78.8185 129.367 80.4897 123.586 84.6155 123.532C85.9779 123.514 87.8313 125.236 89.8256 126.406C89.9745 123.833 91.3618 121.662 91.6681 119.667L91.6929 119.497C92.0125 117.171 91.5748 115.079 94.2847 112.857ZM160.776 196.181C152.081 190.145 129.621 193.178 129.107 193.516C127.974 194.26 127.487 194.326 126.875 195.292C126.27 195.373 125.666 195.456 125.062 195.541C123.852 195.937 124.749 197.425 126.147 196.894C125.306 200.52 127.782 203.098 128.767 206.683C129.087 207.846 128.779 209.939 128.767 211.129C128.863 212.645 130.54 214.436 130.261 215.957C129.267 221.365 123.874 226.64 126.147 231.884C127.654 234.846 132.184 236.357 135.196 237.364C141.437 239.758 152.311 237.274 155.937 231.884C157.871 229.01 160.111 221.759 161.265 219.51L161.52 215.942C162.151 207.073 162.711 197.525 160.776 196.181Z" fill="#EDB98A"/>
<path fill-rule="evenodd" clip-rule="evenodd" d="M84.2939 123.548L86.7822 125.074L101.233 132.213C104.035 132.997 105.436 133.937 105.436 135.032V146.184C105.436 147.676 108.065 151.058 113.323 156.33L118.181 151.49L118.072 150.857C117.61 148.126 117.379 146.3 117.379 145.377C117.379 144.385 122.131 140.619 131.636 134.078L135.795 130.166L135.351 128.818C137.915 128.939 140.696 130.517 141.314 132.496C142.346 133.75 142.392 137.274 143.103 138.96C174.042 143.882 178.739 167.989 182.463 195.357C187.39 223.128 198.573 250.839 193.718 279.416C194.351 280.331 194.85 281.221 195.311 282.277C196.416 284.156 194.992 286.816 192.764 286.713C189.878 286.46 187.022 286.114 184.123 286.006C176.088 285.727 168.045 285.76 160.007 285.862L158.911 285.877C118.4 286.381 77.8905 287.374 37.3775 287.637C35.9078 287.639 35.1882 286.322 35.3845 285.022C35.7797 282.406 36.1464 279.788 36.5291 277.171C26.9468 279.7 16.7599 280.337 7.20459 277.437C6.53614 276.756 8.76205 277.125 9.11519 277.022C0.321338 271.016 2.94751 258.365 3.72649 249.253C8.57031 218.029 10.2779 183.482 28.9927 156.838C37.0891 145.965 48.959 137.356 62.5984 135.419L62.9768 135.367L63.358 135.318C67.2462 134.823 71.5204 134.596 74.8967 132.496C78.7149 129.45 80.3999 123.889 84.2939 123.548ZM118.921 189.002C117.504 189.002 114.601 191.202 110.213 195.602L109.826 195.78C104.521 198.243 101.007 200.379 99.2834 202.189L99.2219 202.254C97.4805 204.121 94.0322 209.086 88.8768 217.148L81.4111 221.56H78.5863L76.5752 236.14L81.4111 246.55L92.3649 242.862L110.213 238.161L120.454 227.777L126.231 225.838C125.53 227.862 125.276 229.876 126.147 231.885C127.654 234.847 132.184 236.357 135.196 237.364C141.437 239.758 152.311 237.274 155.937 231.885C157.871 229.01 160.111 221.759 161.265 219.51L161.595 214.875C162.191 206.322 162.634 197.472 160.776 196.182C152.081 190.145 129.621 193.178 129.107 193.516C127.974 194.26 127.487 194.326 126.875 195.293L126.558 195.335L128.34 192.919L127.709 192.582C123.206 190.195 120.276 189.002 118.921 189.002ZM126.147 196.894C125.342 200.365 127.577 202.877 128.634 206.23L125.933 201.064L125.933 196.961C126.003 196.944 126.075 196.922 126.147 196.894Z" fill="#9DDADB"/>
<path fill-rule="evenodd" clip-rule="evenodd" d="M83.1006 123.009C83.7009 122.478 84.5892 123.145 84.2077 123.863C83.3505 125.476 82.4713 127.004 81.3209 128.43C80.6234 129.294 79.8762 130.112 79.119 130.92C81.0622 132.6 82.7287 134.686 84.3025 136.641C86.3148 139.141 88.2174 141.747 90.4764 144.035C92.7043 146.291 95.1676 147.868 98.1462 148.92L98.7477 149.129C101.74 150.179 104.938 151.597 106.624 154.428C106.957 154.986 106.287 155.676 105.724 155.328C102.794 153.514 99.3502 153.149 96.1601 151.951C93.0785 150.794 90.3922 149.012 88.0187 146.738C85.6491 144.468 83.6596 141.886 81.5843 139.358C79.5321 136.858 77.3225 134.723 74.895 132.608C71.1491 135.127 66.8733 136.223 62.5255 137.299L62.0509 137.417C57.6978 138.494 53.3681 139.745 49.2842 141.62C45.6835 143.274 42.142 145.248 39.2091 147.939C36.0957 150.795 33.6725 154.442 31.4546 158.009C26.4935 165.988 23.0056 174.73 19.9351 183.579C16.7415 192.782 14.0702 202.17 11.9137 211.669C10.8169 216.501 9.92613 221.367 9.19402 226.268C8.84162 228.628 8.52857 230.993 8.25363 233.363C7.96013 235.895 7.89271 238.499 7.11573 240.932C6.78264 241.975 5.99614 242.408 5.20889 242.371L5.04899 244.37C4.83695 247.035 4.63929 249.7 4.57252 252.381C4.46176 256.84 4.51198 261.285 4.83285 265.734L4.87829 266.34C5.13044 269.587 5.69387 273.235 8.13683 275.613C10.6668 278.075 14.5574 278.849 17.9673 278.894C25.9093 278.997 33.5542 275.247 40.5821 271.957C47.82 268.568 54.8601 264.807 61.7316 260.728C65.231 258.651 68.6925 256.505 72.11 254.295C73.787 253.211 75.4522 252.108 77.1049 250.988C78.0516 250.346 78.9486 249.643 79.9123 249.073C79.4401 248.634 79.2293 247.943 79.6248 247.34C76.839 244.923 75.6795 240.61 75.5439 237.121C75.4344 234.304 75.8492 231.495 76.1766 228.705C76.3417 227.298 76.5457 225.894 76.7575 224.493C76.8412 223.94 76.9052 223.348 77.0029 222.764C69.4805 226.895 61.7474 230.574 53.8094 233.843C49.7406 235.518 45.6196 237.025 41.4417 238.405L40.595 238.684C36.6364 239.979 32.5832 241.202 28.4908 241.942C28.272 241.982 28.0943 241.659 28.3279 241.556C32.316 239.797 36.4423 238.314 40.4903 236.694L41.1555 236.424C41.0791 236.419 40.9999 236.409 40.9172 236.389C38.5431 235.816 36.1876 234.934 33.8592 234.191C31.6982 233.501 29.2703 233.068 27.2504 232.027C27.095 231.947 27.182 231.731 27.3334 231.721C29.6037 231.564 32.0682 232.225 34.2941 232.614L35.1303 232.76C36.5311 233.007 37.963 233.272 39.3569 233.619C39.4073 233.152 39.6682 232.683 40.0394 232.408C44.1241 229.385 43.7093 223.279 44.1461 218.777L44.4701 215.434C45.0399 209.584 45.6427 203.734 46.5585 197.928C46.6074 197.618 47.0873 197.707 47.0894 197.999C47.1366 205.197 46.5929 212.362 46.3204 219.548L46.2782 220.727C46.1276 225.162 46.0095 229.766 43.215 233.178C43.6057 232.95 44.1341 232.95 44.4506 233.326C44.8396 233.789 45.0642 234.308 45.0572 234.818C47.5824 233.76 50.0965 232.674 52.5984 231.567C60.6421 228.005 68.5171 224.02 76.1838 219.707C77.0089 219.243 77.7932 219.608 78.2012 220.22L78.2601 220.211C78.2699 220.21 78.2799 220.209 78.2902 220.209L78.3486 220.206C78.3508 220.206 78.3531 220.207 78.3551 220.207C79.4343 219.614 80.9046 220.036 81.8307 220.9C81.858 220.927 81.8813 220.955 81.9056 220.982C83.0781 220.456 84.1729 219.746 85.1664 218.846C87.1996 217.004 88.9217 214.727 90.423 212.444C93.1878 208.238 95.5363 203.561 99.271 200.099C102.305 197.286 106.068 195.535 110.014 194.436C109.998 194.321 110.042 194.198 110.122 194.116C110.324 193.908 110.469 193.837 110.731 193.963C110.752 193.973 110.764 193.987 110.773 194.002L111.158 193.344C111.368 192.987 111.584 192.628 111.659 192.534C112.107 191.97 112.568 191.41 113.036 190.862C113.83 189.935 114.735 189.019 115.782 188.376C118.075 186.968 120.486 187.765 122.844 188.534C124.269 189 125.688 189.48 127.111 189.952L127.257 190C128.318 190.34 129.559 190.638 130.033 191.761C130.22 192.205 130.25 192.667 130.162 193.114C140.234 190.554 151.42 191.73 161.248 194.735C161.626 194.85 162.002 195.16 162.082 195.568C163.208 201.339 163.709 207.258 163.2 213.128C162.76 218.195 161.637 223.16 159.52 227.799L159.4 228.061C157.41 232.36 154.257 237.66 149.442 239.007C146.534 239.821 143.318 239.341 140.352 239.192C137.47 239.047 134.524 239.026 131.67 238.573C129.127 238.17 126.899 237.031 125.328 234.965C123.973 233.182 123.259 231.028 122.674 228.885C122.407 228.97 122.141 229.061 121.879 229.163C120.774 229.594 119.839 230.29 118.992 231.109C117.206 232.838 115.82 234.939 113.95 236.589C112.258 238.083 110.329 239.245 108.261 240.138C103.975 241.989 99.3765 242.728 94.8427 243.709L94.5265 243.778C91.1133 244.527 87.6294 245.446 84.6168 247.222C84.5579 247.744 84.3195 248.236 83.9375 248.558C84.4689 249.057 84.694 249.847 84.227 250.588C82.9227 252.657 80.6761 253.834 78.6592 255.157L78.528 255.243C76.544 256.558 74.5426 257.846 72.525 259.108C68.4233 261.675 64.2359 264.1 59.9894 266.419C53.1593 270.148 46.1825 273.665 39.0795 276.856C39.5058 278.952 39.35 281.114 39.6705 283.224L39.7196 283.525C39.8565 284.308 39.6716 284.963 39.1318 285.475L39.0747 285.527L39.0757 285.52L39.0251 285.567L39.0082 285.581L39.0138 285.577C38.9516 285.633 38.8874 285.686 38.822 285.732L38.7386 285.785C38.2188 286.101 37.5494 286.098 37.0171 285.819L36.9563 285.785L36.8541 285.727C36.1508 285.323 35.6658 284.321 35.9576 283.525C36.6746 281.569 36.9456 279.482 37.6077 277.513L37.0824 277.748L36.39 278.049C28.9015 281.286 20.5833 284.011 12.424 281.805C8.81881 280.83 5.44925 278.767 3.64541 275.405C1.8704 272.097 1.61951 268.256 1.52527 264.577C1.40898 260.035 1.65259 255.424 2.25187 250.921C2.65414 247.899 3.14063 244.819 3.89104 241.828C3.50505 241.488 3.22133 241 3.14639 240.395C2.79224 237.538 3.41207 234.568 3.79153 231.726C4.16223 228.951 4.57177 226.182 5.03494 223.421C5.97007 217.845 7.05658 212.281 8.32155 206.771C10.5728 196.964 13.5456 187.332 17.1247 177.929L17.4381 177.11C20.7454 168.516 24.5747 160.105 29.9069 152.556C32.4577 148.944 35.154 145.669 38.7582 143.066C42.1348 140.627 45.9434 138.871 49.8739 137.529C53.8087 136.186 57.853 135.286 61.9687 134.726C66.1486 134.158 70.5605 133.809 74.4597 132.095C73.9664 131.212 74.3898 130.019 75.2199 129.471C78.0135 127.626 80.5968 125.226 83.1006 123.009ZM172.529 203.221C172.646 203.043 172.924 203.156 172.873 203.366C171.514 208.929 170.239 214.503 169.406 220.173C167.903 230.405 168.179 240.771 168.302 251.079L168.308 251.612C168.371 257.165 168.459 262.717 168.643 268.268C168.736 271.073 168.919 273.905 168.819 276.712C168.765 278.234 168.359 279.674 168.215 281.178C168.089 282.494 168.201 283.829 168.264 285.146C168.306 286.022 167.013 285.985 166.925 285.146L166.812 284.062C166.666 282.69 166.486 281.326 166.036 280.012C165.495 278.432 165.235 276.881 165.047 275.222C164.76 272.68 164.632 270.113 164.521 267.553L164.445 265.783C163.981 255.086 163.998 244.339 164.748 233.653L164.803 232.89C165.546 222.789 166.835 211.875 172.529 203.221ZM143.567 139.56C143.212 139.414 143.336 138.878 143.729 138.971L144.444 139.142C149.681 140.395 154.823 141.754 159.711 144.086C164.602 146.42 168.743 149.905 172.034 154.19C178.43 162.519 181.088 172.641 183.186 182.754C185.518 193.991 187.641 205.269 189.994 216.503L190.43 218.596C192.607 229.058 194.662 239.527 196.176 250.114L196.285 250.882C197.812 261.768 198.73 273.032 197.064 283.947C196.734 286.107 193.139 285.569 193.279 283.435C193.685 277.267 193.976 271.132 193.695 264.95C193.414 258.768 192.834 252.612 191.969 246.483C191.241 241.325 190.156 236.232 189.196 231.115L189.045 230.307C188.241 225.955 187.412 221.608 186.585 217.26L185.349 210.75C183.497 201.003 181.608 191.247 179.474 181.561L179.347 180.991C177.259 171.672 174.18 161.911 167.915 154.511C161.558 147.001 152.457 143.219 143.567 139.56ZM120.467 238.402C120.619 238.062 121.154 238.099 121.319 238.402C121.963 239.59 122.035 241.107 122.156 242.448L122.169 242.586C122.324 244.222 122.461 245.864 122.545 247.506C122.704 250.622 122.78 253.734 122.771 256.854C122.761 260.051 122.696 263.244 122.524 266.437L122.477 267.292C122.32 270.067 122.056 273.161 120.737 275.586C120.257 276.468 118.953 276.209 118.675 275.317C117.765 272.398 118.233 268.936 118.466 265.946L118.647 263.612C118.827 261.279 118.998 258.944 119.133 256.608C119.319 253.411 119.473 250.212 119.62 247.014C119.668 245.975 119.72 244.936 119.775 243.898L119.859 242.34C119.931 241.037 119.925 239.607 120.467 238.402ZM18.1696 242.54L18.5723 242.152C19.8087 240.942 21.3712 239.08 23.1989 239.196C23.9278 239.242 24.3922 239.846 24.2411 240.563C23.9183 242.095 22.3545 242.89 21.2289 243.825C19.9958 244.85 18.8336 245.944 17.6736 247.05C16.6446 248.03 15.6549 249.038 14.689 250.077L14.3279 250.469C13.9817 250.846 11.5161 253.075 11.7827 253.653L11.7972 253.679C11.8714 253.79 11.7478 253.942 11.6248 253.903C10.5601 253.567 10.6265 252.655 11.029 251.731C11.8025 249.956 13.1569 248.313 14.3397 246.797C15.5192 245.285 16.7959 243.876 18.1696 242.54ZM124.325 198.015C123.501 196.07 120.468 196.111 118.747 196.228C114.41 196.52 109.719 197.617 105.861 199.642C101.861 201.742 99.1669 205.107 96.7561 208.827L96.6433 209.002C94.2936 212.652 92.0306 216.973 88.3512 219.483C86.4772 220.762 84.2889 221.929 82.0151 222.435C81.859 222.71 81.6061 222.927 81.2745 223.006L81.1204 223.041C80.4728 223.184 79.4667 223.342 78.5977 223.247C78.6035 223.672 78.599 224.094 78.6097 224.496C78.6403 225.65 78.6533 226.808 78.6533 227.963C78.6538 230.381 78.5238 232.804 78.6248 235.222C78.7143 237.361 79.0165 239.596 80.0441 241.508C80.7978 242.911 81.7926 243.839 82.9934 244.725C85.9474 242.926 89.2876 241.83 92.6778 241.005C96.7777 240.008 100.976 239.342 104.982 237.99C106.911 237.339 108.765 236.487 110.444 235.33C112.227 234.102 113.589 232.439 114.99 230.813L115.209 230.561C116.639 228.922 118.199 227.354 120.22 226.465C121.96 225.7 124.254 225.563 125.775 224.379C126.571 223.759 126.637 222.86 126.721 221.939C125.747 222.079 124.715 221.855 123.744 221.742L123.241 221.683C122.322 221.574 121.425 221.454 120.521 221.22C120.353 221.177 120.353 220.924 120.521 220.88C121.589 220.605 122.648 220.487 123.744 220.359L124.001 220.327C124.992 220.197 126.034 220.001 127.006 220.219C127.18 219.556 127.432 218.922 127.786 218.288C128.282 217.397 129.22 216.387 129.347 215.346C129.385 215.035 129.313 214.669 129.166 214.394L129.115 214.3C129.054 214.19 128.981 214.078 128.874 214.01C128.862 214.023 128.837 214.039 128.783 214.056C128.035 214.292 127.382 213.926 127.036 213.361C125.565 213.544 123.96 213.482 122.581 213.543L121.187 213.611C119.697 213.679 118.14 213.709 116.74 213.408C116.544 213.366 116.485 213.041 116.681 212.957C118.402 212.222 120.49 211.987 122.332 211.704C123.362 211.546 124.398 211.426 125.43 211.287C126.118 211.195 126.847 211.041 127.559 211.005C129.344 208.784 128.382 205.28 125.898 204.323C124.993 204.721 124.179 204.49 123.19 204.405C122.203 204.32 121.214 204.263 120.223 204.267C118.237 204.276 116.132 204.798 114.166 204.573C113.846 204.536 113.549 204.111 113.867 203.851C115.372 202.624 117.53 202.223 119.44 201.962L119.836 201.909C120.477 201.825 121.256 201.702 122.064 201.63C122.247 201.273 122.575 201.004 123.067 200.937C123.213 200.917 123.36 200.905 123.507 200.893L123.505 200.878C124.706 200.821 124.654 198.793 124.325 198.015ZM42.0984 235.946C42.0772 235.978 42.054 236.01 42.0293 236.04L41.9911 236.084L42.1886 236.003L42.0984 235.946ZM145.283 193.67C140.228 193.127 135.166 193.241 130.095 193.387C129.69 194.713 128.278 195.842 126.91 195.885C127.981 197.514 128.092 199.72 127.341 201.448C128.936 202.082 130.31 203.222 131.144 204.845C132.3 207.095 132.149 209.599 131.006 211.679C131.982 212.561 132.557 213.995 132.5 215.346C132.435 216.853 131.537 218.14 130.79 219.387C129.983 220.736 129.956 221.924 129.708 223.435C129.346 225.646 127.853 226.988 125.933 227.825L126.035 228.227C126.53 230.152 127.146 232.184 128.561 233.593C130.381 235.404 133.205 235.387 135.61 235.502L135.726 235.508C137.928 235.618 140.129 235.747 142.33 235.871L143.981 235.964C146.515 236.103 148.949 236.12 151.018 234.445C154.396 231.712 156.712 227.188 158.178 223.184C161.254 214.778 161.291 205.554 159.879 196.8C155.143 195.274 150.229 194.201 145.283 193.67ZM103.242 207.615L103.279 207.617C104.32 207.736 105.035 208.578 105.29 209.578C105.66 211.03 105.478 212.343 106.368 213.654C107.284 215.002 107.847 216.082 107.98 217.747C108.034 218.432 108.009 219.116 108.162 219.787L108.273 220.257C108.39 220.758 108.486 221.241 108.428 221.779C108.375 222.269 108.135 222.652 107.643 222.809C106.038 223.322 104.799 222.14 104.384 220.646C104.026 219.354 104.504 217.816 103.999 216.604C103.719 215.932 103.203 215.369 102.911 214.693C102.622 214.022 102.477 213.322 102.431 212.593C102.343 211.214 103.563 209.558 102.882 208.308C102.737 208.042 102.901 207.607 103.242 207.615ZM81.9245 193.387C83.0113 193.167 84.2442 192.661 85.3159 193.081C85.8668 193.298 86.139 193.969 85.6736 194.436C84.8655 195.245 83.691 195.29 82.6026 195.481L82.5068 195.498C81.2197 195.736 79.9305 195.962 78.6394 196.176C76.2105 196.578 73.7758 196.933 71.3326 197.236C68.8232 197.546 66.3068 197.822 63.7869 198.03L62.8114 198.11C60.6828 198.28 58.4679 198.409 56.3793 198.083C56.0758 198.035 56.1247 197.594 56.3793 197.516C58.6674 196.824 61.1773 196.639 63.5428 196.346C66.0577 196.034 68.5683 195.705 71.0724 195.314C73.5726 194.924 76.0694 194.505 78.557 194.042C79.6813 193.833 80.8039 193.615 81.9245 193.387ZM121.138 191.165C120.184 190.828 119.135 190.328 118.102 190.495C116.32 190.784 114.734 192.519 113.323 193.662L114.031 193.524C117.655 192.828 122.454 192.078 125.497 194.381C125.504 194.367 125.51 194.354 125.519 194.341C125.765 193.968 126.049 193.677 126.36 193.358C126.39 193.33 126.418 193.302 126.446 193.272L126.614 193.094L126.231 192.961C125.41 192.671 124.438 192.297 124.284 192.242L124.273 192.238C123.227 191.884 122.179 191.534 121.138 191.165ZM91.3617 115.248C91.2126 113.331 94.1979 113.347 94.3458 115.248C94.6684 119.399 93.7338 123.51 91.7221 127.149C91.7074 127.176 91.6911 127.199 91.6755 127.224C92.9337 127.878 94.2062 128.506 95.507 129.067C97.171 129.785 98.8663 130.439 100.592 130.994C102.153 131.495 104.076 131.694 105.388 132.738C108.156 134.94 107.116 139.511 106.584 142.473L106.501 142.941C106.236 144.466 106.044 146.03 106.687 147.493C107.374 149.056 108.762 150.215 110.001 151.333L110.252 151.56C111.349 152.559 112.603 153.773 113.408 155.128C114.143 153.609 115.145 152.369 116.204 150.972C116.96 149.975 116.422 149.646 115.879 148.672C115.356 147.735 115.101 146.736 115.265 145.666C115.566 143.691 117.146 142.265 118.718 141.193C120.574 139.928 122.646 138.99 124.565 137.813C128.509 135.395 132.349 132.63 135.809 129.559C135.905 129.475 136.07 129.586 135.994 129.702C133.26 133.857 130.056 137.447 126.117 140.494C124.52 141.73 122.842 142.755 121.153 143.832L120.667 144.144C119.989 144.583 119.143 145.17 118.837 145.917C118.528 146.669 119.186 147.236 119.54 147.859C120.665 149.837 120.122 151.682 118.789 153.359L118.727 153.436C117.402 155.068 116.398 156.585 115.918 158.67C114.886 163.148 116.323 167.812 117.828 172.016L117.887 172.182C118.701 174.448 119.566 176.697 120.273 178.999L120.468 179.636C121.108 181.754 121.633 183.843 120.914 186.021C120.67 186.762 119.659 186.937 119.239 186.24C117.758 183.781 117.389 180.823 116.461 178.12C115.556 175.486 114.517 172.9 113.643 170.255C112.518 166.849 111.764 163.184 112.173 159.612C112.161 159.591 112.148 159.571 112.138 159.549L111.851 158.923C111.07 157.227 110.316 155.746 108.895 154.395C107.413 152.985 105.805 151.737 104.639 150.03C102.106 146.322 103.673 142.198 103.979 138.144L104.014 137.647C104.069 136.805 104.1 135.661 103.549 135.079C102.931 134.423 101.479 134.256 100.658 133.965C98.5365 133.215 96.4454 132.34 94.4538 131.29C92.558 130.291 90.7216 129.187 89.0118 127.893L88.1451 127.242C86.7777 126.211 85.3598 125.085 84.4434 123.681C84.3376 123.519 84.5173 123.259 84.7088 123.336C86.2387 123.957 87.6365 124.943 89.0679 125.802C89.0902 125.75 89.116 125.697 89.1453 125.644C90.9163 122.441 91.6447 118.892 91.3617 115.248ZM140.232 137.195C140.841 135.524 143.619 135.653 143.509 137.638C143.424 139.163 142.776 140.54 142.184 141.924L142.12 142.072C141.509 143.515 140.803 144.869 139.957 146.191C138.343 148.719 136.451 151.065 134.431 153.278C132.599 155.285 130.195 156.512 127.425 156.308C126.257 156.222 125.079 155.926 124.056 155.343C122.841 154.651 121.522 152.572 119.972 153.075C119.822 153.124 119.682 152.904 119.812 152.8C121.601 151.36 123.632 153.593 125.345 154.131C127.927 154.942 130.576 154.046 132.237 151.96C133.972 149.783 135.568 147.344 137.026 144.974C137.767 143.77 138.442 142.52 139.025 141.233C139.614 139.933 139.748 138.52 140.232 137.195ZM136.071 126.914C135.996 126.684 136.282 126.464 136.485 126.596C137.661 127.361 138.68 128.372 139.764 129.258C140.968 130.24 142.18 131.203 143.411 132.151C145.205 133.534 143.124 136.079 141.544 134.569C139.383 132.503 137.016 129.802 136.071 126.914ZM129.616 118.829C130.093 116.988 132.918 117.747 132.507 119.566L132.493 119.622C131.714 122.627 132.824 125.686 135.195 127.634L135.282 127.705C136.782 128.904 134.657 131.002 133.172 129.814C129.93 127.22 128.581 122.816 129.616 118.829Z" fill="black"/>
<path fill-rule="evenodd" clip-rule="evenodd" d="M153.938 60.2275C153.009 52.8077 150.093 44.93 147.026 38.0127C140.13 23.3877 124.341 21.3741 110.187 18.3587C96.22 16.3222 81.4298 14.4834 67.6734 18.5466C59.9398 20.444 56.9192 29.6686 58.1397 36.948C58.8363 41.4841 60.8979 45.7773 62.6559 49.9812C66.1502 58.6146 68.3672 67.8574 68.3709 77.2046C68.1311 83.3131 67.2702 90.2852 74.2792 92.8725C80.9489 96.1942 81.5124 105.199 89.8637 110.308C93.2407 117.158 102.439 117.761 109.06 119.35C113.245 120.153 117.476 120.743 121.72 121.124C134.007 122.701 143.836 119.135 150.268 108.173C154.572 101.502 157.777 93.799 156.985 85.7138C156.197 77.1996 154.883 68.7301 153.938 60.2275Z" fill="#EDB98A"/>
<path fill-rule="evenodd" clip-rule="evenodd" d="M110.293 0.584367C110.994 -0.211688 112.075 0.0613455 112.731 0.690825C113.158 0.816821 113.571 1.00419 113.962 1.25217C114.845 1.1387 115.77 1.1387 116.636 1.17051C116.846 1.05253 117.072 0.947577 117.317 0.8574C119.067 0.216398 120.618 0.542035 121.897 1.40021C122.513 0.816571 123.29 0.450355 124.283 0.505714C125.17 0.555311 125.802 0.973126 126.343 1.52345C126.883 0.743678 127.756 0.187342 128.843 0.109941C130.363 0.00172926 131.824 0.612171 133.035 1.55727C133.741 0.746684 134.703 0.280774 135.775 0.276265C136.48 0.148015 137.225 0.198614 137.897 0.402011C138.873 0.697338 139.731 1.25067 140.414 1.96882C141.494 0.932798 142.816 0.187342 144.341 0.296054C146.314 0.438833 147.95 1.89192 148.71 3.68041C150.046 4.21621 151.279 4.98045 152.309 6.07008C152.364 6.12744 152.417 6.18756 152.472 6.24793C153.027 6.45308 153.55 6.7439 154.01 7.1269C155.468 8.34202 155.793 10.1005 155.311 11.8236C155.378 12.0994 155.436 12.3799 155.488 12.6602C156.854 12.8681 158.094 13.6574 158.8 14.9424C159.765 16.7059 159.575 19.0301 158.529 20.7137C158.08 21.4378 157.51 22.048 156.869 22.5816C157.593 24.2298 157.246 26.1966 156.077 27.5297C155.793 27.9894 155.443 28.4042 155.05 28.7797C155.484 30.4838 154.712 32.242 153.172 33.1525L153.04 33.4828C153.018 33.5377 152.995 33.5923 152.972 33.6464C152.955 33.7166 152.934 33.7845 152.913 33.8529C152.877 34.4575 152.678 35.0509 152.283 35.61C151.475 36.7558 150.474 37.503 149.942 38.8406L149.889 38.9811C149.661 39.6141 148.924 40.0607 148.295 39.8653C151.784 47.0396 153.612 55.0225 154.868 62.8457C155.494 66.7487 155.977 70.665 156.369 74.5965L156.753 78.5115C157.091 81.9914 157.392 85.4828 157.394 88.9743C157.399 96.8724 155.143 104.47 150.301 110.755C145.721 116.696 139.241 121.002 131.92 122.698C124.362 124.446 115.496 123.757 108.718 119.754C106.72 118.577 108.47 115.747 110.504 116.694C114.353 118.487 118.265 119.82 122.531 120.118C126.691 120.411 130.86 119.89 134.804 118.527C141.33 116.27 146.882 111.544 150.451 105.657C152.209 102.756 153.482 99.6078 154.16 96.281C155.004 92.1347 154.877 87.8491 154.567 83.6497L154.545 83.3635C153.933 75.2725 153.125 67.1316 151.819 59.1212C150.665 52.0376 148.891 45.0976 146.587 38.3111C145.684 37.5155 144.675 36.8572 143.595 36.3572C135.685 36.0263 127.76 36.123 119.86 36.6696C113.123 37.1388 106.418 37.9326 99.764 39.0895L99.0512 39.2148C97.5781 39.4776 95.9424 39.6279 94.5543 40.2218C93.3638 40.7328 92.881 41.7147 92.5809 42.9218C91.8256 45.9753 91.7105 49.3171 91.583 52.4482C91.4579 55.5089 91.7405 58.5952 91.4954 61.6459C91.2878 64.1984 90.6351 66.811 88.7468 68.6573C87.7588 69.624 86.5433 70.1525 85.4028 70.8864C84.665 71.3601 84.3523 71.8483 84.4474 72.725C84.6525 74.6438 86.1956 77.061 84.4624 78.7042C84.1573 78.9923 83.6295 79.0298 83.3294 78.7042C82.6141 77.9254 81.6262 77.3315 80.7783 76.7028C80.4231 76.4425 80.7183 75.9365 81.1209 76.1166C81.6512 76.3549 82.1914 76.6354 82.7441 76.8809C81.5236 75.8739 79.7879 75.3802 78.3422 75.0871C77.6144 74.9419 76.8491 74.8993 76.0913 74.9672C75.531 75.2349 74.9583 75.4832 74.3855 75.7259C73.6577 76.0317 72.9224 76.3095 72.1821 76.5728C69.6135 78.6691 68.3879 82.0785 68.9232 85.4126C69.2158 87.2534 70.0637 89.2551 71.6618 90.3297C73.5552 91.6021 76.0913 91.0558 78.1372 92.0004C80.053 92.8844 81.2185 94.6706 82.0914 96.5192L82.4553 97.2889C83.2654 98.9929 84.0982 100.652 85.2052 102.203C86.4858 103.999 88.054 105.612 89.7647 106.997C90.5946 107.668 91.4792 108.271 92.3934 108.82L92.6434 108.969C93.5688 109.512 94.2316 110.03 94.2942 111.18C94.3142 111.581 94.0616 111.947 93.7364 112.155C92.3358 113.044 90.9427 111.932 89.7772 111.155C88.5192 110.318 87.3161 109.377 86.2031 108.35C84.0872 106.401 82.2564 104.087 80.8483 101.574C79.7754 99.6604 79.1651 96.9676 77.4694 95.4847C76.4339 94.5802 74.9708 94.573 73.6777 94.4074C72.4747 94.2523 71.3367 94.0018 70.2662 93.4082C65.9119 90.9859 64.6813 85.122 65.7143 80.5906C65.8893 79.8264 66.1344 79.0824 66.4371 78.366C64.8164 78.6366 62.9956 76.9585 63.6534 75.265C63.7034 75.1372 63.7609 75.0173 63.8159 74.8943C62.748 74.1904 61.9051 73.1236 61.5049 71.7281C61.2999 71.0067 61.2698 70.2777 61.3774 69.5739C60.8597 69.2259 60.432 68.7473 60.1569 68.1586C59.2965 67.7603 58.5337 67.1644 58.0785 66.3127C57.4482 65.1377 57.5282 64.0556 58.0084 63.0812C57.9409 62.9587 57.8759 62.8335 57.8133 62.7055C56.0501 61.586 54.8195 59.657 54.9596 57.5178C55.0046 56.8089 55.1797 56.1702 55.4498 55.5943C55.4273 55.5217 55.4048 55.4463 55.3848 55.3736C53.9091 54.6222 52.6886 53.3875 52.2534 51.7393C51.8182 50.0808 52.331 48.4276 53.3564 47.1551C51.8558 46.0557 50.9529 44.5202 51.5006 42.1979C51.7232 41.2538 52.1709 40.3944 52.7762 39.6705C52.7737 39.6482 52.7687 39.6256 52.7637 39.6028L52.6233 39.4938C50.7707 38.0297 49.7057 36.1639 50.8428 33.8691C51.353 32.8374 52.0809 32.1182 52.9362 31.6448L52.9787 31.5095C52.366 30.1945 52.1584 28.7341 52.5811 27.1986C52.9262 25.9339 53.7441 24.9267 54.7895 24.2581C54.7195 23.6918 54.7295 23.0883 54.8421 22.4343C55.0296 21.3299 55.5774 20.3655 56.3777 19.6817C56.4077 19.5361 56.4452 19.3936 56.4878 19.2506C56.7579 18.3766 57.2631 17.4273 57.8484 16.7231C58.3311 16.1395 58.8713 15.9266 59.5316 15.904C59.4916 15.3657 59.5191 14.8194 59.6291 14.2658C59.9668 12.5578 61.0522 10.9519 62.6604 10.2229C63.3207 9.92486 64.016 9.83744 64.6863 9.90983C65.2566 8.70748 66.3696 7.83603 67.7376 7.64816C68.2704 7.57302 68.7656 7.57778 69.2208 7.64566C69.4784 7.52517 69.746 7.41771 70.0261 7.31977C70.2112 7.25465 70.3988 7.19453 70.5864 7.13466C71.2192 6.34812 72.052 5.71915 73.0249 5.34116C74.1479 4.9028 75.2909 4.94764 76.3039 5.31586L76.6265 5.24823C77.1317 4.37151 77.9371 3.69269 79.1751 3.38459C80.5807 3.03641 82.0238 3.52236 83.1293 4.40683C83.1343 4.40683 83.1393 4.40683 83.1468 4.40408C83.7246 3.10905 84.7125 2.20729 86.3707 2.26991C87.4037 2.30999 88.3366 2.82374 89.0569 3.55517C89.4571 3.50482 89.8572 3.45973 90.2599 3.4149C90.6851 2.91617 91.1578 2.45051 91.6805 2.03219C92.5359 1.3456 93.6489 1.40096 94.2791 2.3676C94.4167 2.57801 94.5443 2.79093 94.6718 3.00384L95.2496 2.96376C95.9299 2.04447 96.8578 1.42326 98.1283 1.37341C99.2938 1.32556 100.124 1.89693 100.757 2.69574C101.272 2.68322 101.79 2.67345 102.308 2.66568C102.91 1.96682 103.621 1.35061 104.431 0.839616C105.051 0.448852 105.967 0.581862 106.469 1.10288C106.809 1.45707 107.125 1.82679 107.419 2.20954C108.177 1.35888 109.2 0.798536 110.293 0.584367ZM73.4826 80.1271C74.6506 79.4608 76.2213 80.1822 77.3518 80.7483C78.7299 81.4372 80.098 82.4767 80.9409 83.7793C82.0889 85.5527 79.3902 86.9855 78.1822 85.3949C77.4394 84.4155 76.8466 83.4286 75.9462 82.5719C75.1233 81.7854 73.9303 81.2593 73.4576 80.2223C73.4401 80.1872 73.4451 80.1472 73.4826 80.1271ZM74.3032 37.0803L74.325 37.0178C74.6571 36.1078 73.2075 35.7155 72.8781 36.618C72.3789 37.9859 72.9544 39.4731 74.3035 40.0637C74.6774 40.2276 75.1046 40.1707 75.3299 39.7942C75.5193 39.4773 75.4315 38.9283 75.0608 38.7662C74.3017 38.4338 74.0475 37.847 74.3032 37.0803ZM61.8148 34.5357C62.5404 33.8944 61.4757 32.8346 60.7536 33.4731C60.0798 34.0688 59.5801 34.8778 59.7099 35.8084C59.8422 36.7568 60.5563 37.4263 61.3379 37.8995C62.1662 38.4012 62.9213 37.1022 62.0952 36.6017L62.0024 36.5449C61.6556 36.3292 61.2497 36.0326 61.1911 35.6083C61.1288 35.1574 61.5097 34.8055 61.8148 34.5357ZM65.9335 23.2206L65.9849 23.1828C66.7642 22.6257 66.0156 21.3216 65.2273 21.885C64.5045 22.4017 63.9247 23.073 63.8637 23.9988C63.8044 24.8986 64.2616 25.6786 64.8594 26.3116C65.5244 27.0157 66.5844 25.9517 65.9206 25.249C65.2738 24.5642 65.1474 23.817 65.9335 23.2206Z" fill="black"/>
<path fill-rule="evenodd" clip-rule="evenodd" d="M123.344 92.8478C124.746 90.5428 127.735 96.1893 128.052 97.1602C128.334 98.0203 128.519 98.9013 128.614 99.7926C129.701 100.036 130.829 100.037 131.943 99.8232C133.599 99.5057 134.611 98.6163 136.049 97.8527C137.043 97.3249 138.295 97.9438 138.812 98.819C139.42 99.8491 139.033 100.918 138.233 101.686C136.717 103.143 133.734 103.477 131.755 103.09C130.621 102.869 129.582 102.444 128.664 101.826C128.658 101.942 128.654 102.057 128.645 102.172L128.628 102.372C128.475 103.987 128.031 106.018 126.776 107.069C124.717 108.793 122.176 105.477 124.177 103.755L124.239 103.703C125.482 102.699 125.754 100.005 125.687 98.5214C125.643 97.5529 125.466 96.5721 125.16 95.6497L125.097 95.466C125.005 95.2054 124.001 92.7337 123.638 93.0485L123.621 93.0663C123.471 93.2448 123.229 93.0368 123.344 92.8478ZM134.539 79.8412C136.431 80.9909 139.315 83.6719 137.279 86.5223C134.883 89.0356 131.432 86.1539 129.732 84.8507C128.155 83.8406 126.383 86.4384 127.846 87.6178C140.133 96.7093 145.12 80.1418 135.496 78.4893C134.437 78.3072 134.043 79.4855 134.539 79.8412ZM114.329 69.2137C116.178 68.8858 118.073 69.3454 119.604 70.427L119.72 70.5104C121.194 71.5883 122.844 73.4808 121.998 75.3386C121.658 76.0846 120.641 76.2016 119.996 75.8634C118.921 75.3003 118.727 73.9149 117.768 73.1481C116.982 72.5196 115.923 72.1384 114.911 72.2303C112.532 72.4462 111.069 74.7911 110.33 76.8118C110.235 77.0703 109.855 77.1707 109.707 76.8932C107.965 73.6388 111.049 69.7953 114.329 69.2137ZM143.957 67.9855C147.5 67.6937 151.647 71.3649 150.714 75.1027C150.267 76.8962 147.605 76.8448 147.132 75.1027C146.871 74.1441 146.897 73.2959 146.207 72.4998C145.637 71.8426 144.827 71.4608 143.957 71.5194C142.997 71.5841 142.112 72.0632 141.44 72.7368C140.832 73.345 140.469 74.235 139.84 74.7733C139.685 74.9055 139.478 74.9141 139.325 74.7733C138.242 73.7756 138.892 71.6985 139.579 70.657C140.561 69.1666 142.161 68.1336 143.957 67.9855ZM107.581 62.5844C109.854 60.5735 113.984 58.6315 117.05 59.6211C118.812 60.19 119.58 63.0278 117.613 63.9273C115.335 64.9688 112.708 64.545 110.39 65.6246C109.416 66.0783 108.5 66.6451 107.822 67.4765C107.288 68.1318 106.745 68.9939 105.972 69.3717C105.769 69.4711 105.494 69.4736 105.331 69.2893C103.638 67.375 106.103 63.8922 107.581 62.5844ZM140.05 59.5213C141.454 59.1273 143.013 59.1353 144.44 59.3828C145.867 59.6303 147.315 60.2212 148.48 61.0831L148.615 61.184C149.887 62.1416 151.404 63.5349 151.323 65.2312C151.255 66.6477 149.764 67.6059 148.476 66.8634C147.427 66.258 146.933 65.0451 146.045 64.2375C145.312 63.571 144.45 63.0455 143.532 62.6772C142.511 62.2682 141.489 62.0766 140.393 62.0583C139.55 62.0442 138.701 62.3208 137.874 62.4092C137.942 62.549 137.288 62.4839 136.913 62.3599C136.635 62.2416 136.634 61.8907 136.73 61.663C137.207 60.535 138.945 59.8309 140.05 59.5213Z" fill="black"/>
<path fill-rule="evenodd" clip-rule="evenodd" d="M156.97 81.3672C153.927 84.5096 148.847 85.4114 144.799 83.7261C134.403 79.3853 139.491 65.8464 147.509 62.2106C148.51 61.9611 149.848 61.3692 151.068 61.2349C151.178 61.1808 151.418 61.3374 151.709 61.1893C160.549 62.1757 162.562 75.8905 156.97 81.3672ZM123.44 82.1715C120.027 86.6956 113.682 88.0914 108.498 85.9882C98.2566 81.9574 101.889 69.9517 108.896 65.245C123.698 59.6864 129.81 73.83 123.44 82.1715ZM101.239 72.1475C101.229 72.143 101.22 72.1407 101.21 72.1362C101.264 72.1124 101.318 72.0886 101.372 72.0643C101.355 72.1101 101.336 72.1555 101.319 72.2013C101.292 72.183 101.269 72.1617 101.239 72.1475ZM164.016 67.2572C163.18 67.2589 161.973 67.3962 161.282 67.9756C159.576 62.2261 153.279 56.9049 147.803 60.785C143.491 62.171 140.291 65.2447 138.473 69.3312C135.194 67.3819 130.037 68.2143 127.194 70.7921C125.332 64.6423 120.749 62.4889 115.293 62.171C109.339 61.1963 103.405 66.9754 101.553 71.6114C100.013 71.4363 97.7127 70.9466 96.2643 71.8962C86.8636 69.4324 70.4281 68.074 68.517 69.4429C67.155 69.9652 66.4076 73.178 68.31 73.3513C69.9677 73.1161 68.1165 70.9972 69.7875 70.766C78.6908 70.2144 87.3341 72.0064 96.1432 72.7584C96.9297 73.8157 99.4709 74.1694 100.827 73.7446C98.6915 81.6089 103.301 86.9594 110.207 88.562C120.901 91.0171 130.205 81.4564 127.408 71.512C130.648 69.9013 134.374 69.9705 137.903 70.8189C132.006 92.5087 166.959 91.5356 161.5 68.7188C165.133 70.5248 165.922 67.6216 164.016 67.2572Z" fill="black"/>
</svg>
