<svg width="186" height="288" viewBox="0 0 186 288" fill="none" xmlns="http://www.w3.org/2000/svg">
<path fill-rule="evenodd" clip-rule="evenodd" d="M171.202 184.585C170.441 182.494 171.553 180.409 172.17 178.386C174.36 171.37 168.368 153.675 164.177 153.417C162.644 149.45 158.554 147.804 155.334 145.52C151.681 143.239 148.127 140.619 144.327 138.619C144.116 136.729 141.825 136.261 140.425 137.613C136.578 135.219 131.965 135.663 127.841 134.095C124.708 129.029 124.472 123.701 123.643 118.813C123.281 116.683 123.665 114.627 122.21 112.727C117.321 105.849 98.0041 102.867 90.8819 106.943C87.0481 104.551 86.9558 108.883 86.3468 111.556C85.67 112.894 85.3039 114.409 85.4171 116.005C83.602 119.797 82.0631 124.54 78.2488 127.373C73.4089 130.967 65.9626 132.333 61.2439 134.095C60.5382 133.416 60.0775 132.585 59.8618 131.603C52.5485 133.194 45.4505 135.989 39.3231 140.355C32.3617 142.391 27.459 148.055 23.9138 154.128C23.5231 154.768 23.431 155.421 23.5452 156.021C12.6433 172.007 7.44009 191.145 6.70924 210.474C-0.30144 214.683 10.0414 252.493 12.4492 260.343C12.4516 260.342 12.454 260.341 12.4564 260.34C14.0185 263.106 15.792 271 19.7012 270.39C22.3828 273.423 26.6561 272.826 30.2951 273.059C29.7024 275.334 29.9937 277.936 30.6991 280.183C31.5334 282.858 35.6277 282.949 36.2083 280.032C72.4464 287.075 109.628 281.456 146.274 282.513C156.869 282.588 167.464 282.916 178.034 283.671C179.522 283.777 181.031 282.256 180.93 280.774C178.657 256.588 176.523 224.772 173.982 200.823C173.379 195.361 172.902 189.839 171.202 184.585Z" fill="#EDB98A"/>
<path fill-rule="evenodd" clip-rule="evenodd" d="M59.8618 131.604C59.8737 131.658 59.8863 131.711 59.8997 131.764L59.7611 132.079C58.8832 134.104 58.4442 135.782 58.4442 137.11C58.4442 140.14 71.9231 170.119 101.826 167.364C121.761 165.527 133.913 156.468 138.28 140.185L138.535 136.667C139.181 136.923 139.813 137.232 140.425 137.613C141.825 136.261 144.116 136.73 144.327 138.619C148.127 140.619 151.681 143.239 155.334 145.52L155.557 145.677C158.74 147.882 162.679 149.541 164.177 153.417L164.776 153.455C168.779 153.718 174.36 171.371 172.17 178.386C171.553 180.409 170.441 182.495 171.202 184.586C172.902 189.84 173.379 195.361 173.982 200.823C176.523 224.772 178.657 256.588 180.93 280.774C181.031 282.256 179.519 283.535 178.034 283.672C147.282 286.493 31.5334 284.313 30.6991 281.638C29.9937 279.391 29.7024 275.334 30.2952 273.06C26.6562 272.827 22.3828 273.423 19.7013 270.39C15.7921 271.001 14.0185 263.107 12.4565 260.34L12.4492 260.344C10.0415 252.494 -0.301377 214.683 6.7093 210.474C7.44014 191.145 12.6433 172.007 23.5452 156.021C23.4359 155.447 23.5159 154.823 23.8665 154.209L23.9138 154.129C27.459 148.056 32.3617 142.392 39.3232 140.355C45.4506 135.99 52.5485 133.194 59.8618 131.604ZM148.422 182.213C146.857 180.999 134.561 183.427 125.626 185.609C119.668 187.064 115.519 189.031 113.176 191.51L102.69 203.023L100.037 204.739C100.037 208.323 100.242 212.092 100.651 216.047C101.06 220.001 102.864 224.185 106.062 228.6C115.487 226.01 121.122 224.54 122.968 224.19C125.737 223.666 127.931 219.118 129.233 217.554C130.534 215.991 135.526 215.817 139.33 214.613C141.866 213.81 143.629 211.759 144.621 208.459C150.163 207.263 153.827 206.465 155.612 206.065C157.397 205.666 157.397 204.652 155.612 203.023L134.856 202.297C143.14 200.526 148.17 199.518 149.944 199.274C152.606 198.908 159.756 196.688 159.756 194.967C159.756 193.281 148.871 193.312 143.069 193.314L142.602 193.314C138.793 193.321 132.72 193.678 124.384 194.385L129.233 192.062C140.171 189.944 146.369 188.884 147.828 188.884C149.286 188.884 150.32 187.792 150.928 185.609C150.301 184.154 149.466 183.022 148.422 182.213Z" fill="#FFCF77"/>
<path fill-rule="evenodd" clip-rule="evenodd" d="M134.994 182.615L145.645 158.48C146.718 155.747 148.165 154.38 149.987 154.38C151.809 154.38 160.98 154.639 177.501 155.156C180.881 155.588 182.026 156.696 180.934 158.48C179.843 160.265 171.18 177.764 154.948 210.976H144.621V208.459L156.118 205.244C157.513 203.763 157.123 203.023 154.948 203.023C152.772 203.023 145.358 202.781 132.703 202.296L150.803 199.64L159.756 196.195L158.439 194.385L150.803 193.294L125.935 194.385L132.703 192.095L147.828 188.884C149.811 187.487 150.803 186.103 150.803 184.733C150.803 183.363 148.146 182.415 142.834 181.888L134.994 182.615Z" fill="white"/>
<path fill-rule="evenodd" clip-rule="evenodd" d="M86.9445 108.436C87.0485 108.152 87.4721 108.19 87.4801 108.508C87.647 115.308 85.9546 123.618 80.5149 128.212C77.7226 130.57 74.0309 131.649 70.6405 132.889L70.2581 133.03L64.2683 135.262C62.6797 135.854 60.9659 136.765 59.5626 135.928C60.6982 138.745 61.6515 141.64 63.0344 144.354C64.7559 147.734 66.8372 150.826 69.3845 153.638C79.4763 164.779 95.4479 168.177 109.781 164.913C117.161 163.232 124.343 160.046 129.378 154.235C133.205 149.819 135.404 143.891 135.922 138.044C135.77 138.068 135.611 138.067 135.448 138.031C133.635 137.635 131.804 136.663 130.208 135.709L130.055 135.617C128.519 134.693 126.919 133.633 125.817 132.197C125.088 131.245 124.34 129.219 123.574 126.116C123.262 124.367 122.968 120.883 123.018 119.115C123.023 118.949 123.763 118.85 123.842 119.024C124.525 120.524 124.746 123.822 125.274 125.384L125.38 125.696C125.944 127.327 126.427 129.313 127.595 130.632C129.789 133.108 133.098 134.156 136.051 135.398C136.264 132.599 140.732 132.665 140.675 135.583C140.672 135.742 140.665 135.899 140.66 136.057C141.012 136.251 141.351 136.473 141.668 136.686L141.977 136.896C143.147 137.692 144.326 138.449 145.571 139.124C147.983 140.432 150.537 141.469 153.008 142.656C155.508 143.857 157.846 145.288 160.029 147.001C161.055 147.805 162.038 148.661 162.97 149.572L163.223 149.821C164.111 150.705 165.266 151.694 165.772 152.856C165.883 153.113 166.441 153.708 166.744 153.728C171.44 154.036 176.125 154.471 180.791 155.123C181.999 155.292 182.476 155.915 182.03 156.922C180.495 160.383 174.488 174.205 172.891 177.915C173.078 180.64 172.826 183.848 172.994 186.574C173.24 190.552 173.562 194.529 173.948 198.495C175.329 212.685 177.423 226.806 179.315 240.934C180.262 248.004 181.125 255.086 181.978 262.168C182.408 265.747 182.773 269.33 183.054 272.924C183.171 274.422 183.278 275.921 183.371 277.42L183.452 278.75C183.563 280.424 183.819 282.022 182.784 283.459C182.315 284.11 181.243 284.477 180.626 283.737C179.85 282.806 179.561 282.111 179.487 280.889C179.43 279.953 179.417 279.013 179.374 278.076C179.282 276.046 179.166 274.016 179.031 271.988C178.76 267.934 178.451 263.88 178.093 259.832C176.838 245.638 174.454 231.551 172.868 217.393C172.068 210.255 171.5 203.103 171.199 195.926C171.049 192.342 170.994 188.758 171.03 185.17C171.043 183.83 171.107 182.496 171.198 181.166C168.822 186.567 166.323 191.916 163.711 197.194L163.092 198.444C161.436 201.78 159.736 205.128 157.747 208.273L157.405 208.809C156.599 210.087 155.497 212.101 154.028 212.504C153.004 212.785 151.753 212.587 150.703 212.567C149.661 212.547 148.618 212.543 147.577 212.501C146.409 212.454 145.295 212.3 144.167 211.996C143.979 211.945 143.802 211.89 143.64 211.821C142.503 213.682 140.571 215.099 138.596 215.925C137.014 216.587 135.356 217.04 133.695 217.46L133.109 217.607C131.328 218.051 129.291 218.262 128.287 219.982L128.054 220.381C127.307 221.65 126.591 222.764 125.355 223.674C124.025 224.653 122.449 225.269 120.879 225.749C119.272 226.239 117.627 226.615 115.995 227.017L115.55 227.128C114.473 227.398 113.386 227.645 112.315 227.939C111.858 228.064 111.393 228.193 110.945 228.347C110.42 228.527 110.038 228.809 109.624 229.116C109.252 230.416 107.661 231.123 106.353 231.032C105.666 230.984 105.05 230.751 104.489 230.409C103.511 231.243 102.433 231.99 101.435 232.762C100.038 233.843 98.6357 234.916 97.2254 235.98C94.3175 238.173 91.3875 240.336 88.4271 242.457C83.1723 246.222 77.8038 249.814 72.3435 253.273C70.0669 254.715 67.775 256.155 65.4606 257.561L65.7076 257.652L66.1975 257.838C67.3555 258.27 68.6459 258.969 68.8703 260.32C69.0482 261.392 68.4496 262.131 67.3916 262.262C66.1342 262.417 65.1557 261.529 64.3728 260.68C64.0272 260.306 63.6405 259.959 63.3095 259.573C63.1745 259.416 63.0708 259.235 62.9794 259.045C60.6954 260.391 58.387 261.692 56.042 262.909L55.455 263.211C49.64 266.186 43.98 269.445 38.1155 272.335C36.5857 273.089 34.7206 273.904 32.7764 274.461C33.2923 276.461 33.2843 278.657 33.2974 280.688C33.3097 282.666 30.1666 282.657 30.233 280.688L30.2649 279.737C30.3222 278.138 30.4157 276.478 30.7949 274.922C25.0667 275.872 19.3443 273.807 18.2789 273.187C17.1029 272.503 16.0354 271.408 15.1471 270.392C13.246 268.219 11.9268 265.613 10.7564 262.992C8.24933 257.379 6.47309 251.379 5.17448 245.378C0.386884 223.255 2.44615 199.576 10.2211 178.368C12.1636 173.069 14.4569 167.887 17.0849 162.893L17.4113 162.276C20.0337 157.337 22.9484 152.416 26.6507 148.213C30.507 143.836 35.2641 140.431 40.4435 137.788C42.9712 136.499 45.5721 135.381 48.2304 134.391C48.6573 134.231 49.0872 134.089 49.5181 133.953C52.2883 132.186 55.6503 130.496 59.0135 130.562C59.242 130.566 59.4272 130.653 59.5653 130.784C59.7274 130.812 59.8895 130.847 60.0519 130.894C60.4103 130.998 60.7888 131.391 60.7374 131.794L60.72 131.929C60.7105 131.994 60.6986 132.058 60.6781 132.119C60.7982 132.137 60.9163 132.166 61.0318 132.205C64.2497 131.296 67.4156 129.906 70.5557 128.785L71.2708 128.532C73.9007 127.61 76.5988 126.707 78.7561 124.882C80.9024 123.067 82.5163 120.716 83.6831 118.174C85.1205 115.043 85.7642 111.65 86.9445 108.436ZM151.369 273.594C152.006 273.12 152.759 273.67 152.997 274.257C153.78 276.183 153.393 279.176 152.29 280.878C151.147 282.643 148.41 281.946 148.344 279.809C148.275 277.581 149.57 274.933 151.369 273.594ZM157.95 220.412C158.007 220.162 158.396 220.164 158.454 220.412C158.984 222.672 158.972 225.106 159.127 227.423L159.146 227.68C159.332 230.235 159.489 232.798 159.601 235.357C159.821 240.393 160.084 245.429 160.378 250.462C160.524 252.957 160.681 255.452 160.848 257.947C161.371 257.655 161.909 257.399 162.468 257.173C163.304 256.835 164.119 256.796 165.018 256.805C166.112 256.816 166.936 257.779 166.791 258.852C166.633 260.02 165.605 260.521 164.537 260.354C163.355 260.169 162.167 259.882 160.973 259.763C161.106 261.692 161.244 263.62 161.389 265.547C161.583 268.098 161.834 270.647 162.011 273.199C162.028 273.442 162.046 273.686 162.065 273.931C162.777 273.56 163.533 273.371 164.39 273.137L164.613 273.075C165.857 272.717 167.188 272.223 168.339 273.06C169.113 273.623 169.268 274.549 168.627 275.291C167.655 276.417 166.216 276.198 164.873 276.141L164.151 276.114C163.47 276.088 162.842 276.044 162.212 275.872C162.328 277.535 162.389 279.204 162.185 280.842C162.075 281.728 160.909 281.96 160.601 281.057C159.795 278.696 159.629 276.15 159.334 273.677C159.058 271.367 158.891 269.041 158.711 266.721L158.656 266.026C158.25 260.922 157.926 255.816 157.689 250.701C157.452 245.588 157.309 240.476 157.253 235.357C157.227 233.033 157.265 230.701 157.356 228.377L157.385 227.68C157.49 225.29 157.417 222.754 157.95 220.412ZM51.4668 273.971C51.4978 273.644 51.7593 273.238 52.1482 273.289C52.5066 273.335 52.8759 273.313 53.2304 273.372C53.6984 273.45 54.0749 273.726 54.5101 273.901C55.2175 274.183 55.9886 274.33 56.7143 274.561C58.0759 274.996 58.8179 276.43 58.254 277.769C57.6611 279.176 56.171 279.496 54.8836 278.905C53.8687 278.44 53.1123 277.695 52.4299 276.834L52.2366 276.589C51.9425 276.219 51.6088 275.806 51.4854 275.357C51.3655 274.921 51.4246 274.415 51.4668 273.971ZM117.621 267.353C119.317 267.114 120.765 267.694 122.334 268.241L122.462 268.285C124.059 268.836 126.39 269.218 127.208 270.854C127.702 271.84 127.318 273.149 126.156 273.441C124.316 273.903 122.665 272.557 121.143 271.651L121.063 271.604C119.594 270.743 118.078 270.019 117.14 268.535C116.89 268.139 117.107 267.425 117.621 267.353ZM58.4162 132.43C57.7367 132.582 57.0573 132.716 56.3785 132.846C53.7965 134.23 51.2904 135.667 48.6246 136.9C45.7962 138.209 42.9782 139.561 40.2916 141.144C34.8638 144.342 30.3893 148.501 26.6919 153.599C20.3052 162.404 15.5544 172.559 12.1544 182.863C11.2808 185.51 10.4991 188.187 9.80747 190.886C11.0302 189.755 12.4779 189.059 14.1012 188.464C14.7892 188.211 15.6455 188.639 15.9942 189.234C16.151 189.502 16.2395 189.767 16.2232 190.081C16.1871 190.773 15.7364 191.561 14.9925 191.698C13.2582 192.017 11.5718 192.64 9.89955 193.188C9.64608 193.271 9.42823 193.239 9.25424 193.142C7.59408 200.176 6.55548 207.355 6.18764 214.578C5.87649 220.692 6.06841 226.855 6.74547 232.961C7.26574 232.727 7.77462 232.508 8.34505 232.375C9.08486 232.203 9.81256 231.993 10.5342 231.757C12.6167 231.073 13.5666 234.512 11.4381 235.037C10.6459 235.232 9.84891 235.394 9.04173 235.512C8.33826 235.615 7.71597 235.57 7.05273 235.462C7.55943 239.271 8.25151 243.053 9.13308 246.781L9.32761 247.597C10.4728 252.358 11.8074 257.164 13.7375 261.664C14.6842 263.871 15.9378 265.968 17.4855 267.808C18.2459 268.713 19.0899 269.489 20.0103 270.224C20.7765 270.836 23.3811 272.163 26.4658 272.163C29.5505 272.163 30.3855 271.871 31.9418 271.335C35.0196 270.276 37.9418 268.584 40.8282 267.077L41.1266 266.922C42.403 266.261 43.6744 265.591 44.9425 264.915C44.7823 263.621 45.0627 262.535 45.7364 261.341C46.4645 260.048 48.2688 260.692 48.403 262.014L48.4073 262.064C48.4276 262.362 48.4775 262.666 48.5396 262.969C57.0187 258.322 65.3183 253.351 73.4858 248.17C78.7469 244.832 83.9521 241.395 89.0811 237.858C91.6451 236.09 94.1869 234.289 96.7034 232.454C98.0216 231.492 99.3338 230.523 100.64 229.546C101.184 229.138 101.718 228.711 102.263 228.301C102.13 228.135 102.001 227.97 101.876 227.806C99.84 225.14 98.5191 221.961 97.861 218.682C97.4636 216.703 97.2716 214.649 97.2132 212.632L97.1876 211.755C97.1473 210.277 97.1368 208.731 97.409 207.299C97.0385 207.502 96.66 207.702 96.2827 207.916C94.9288 208.683 93.5738 209.449 92.2165 210.211C89.4986 211.736 86.7727 213.243 84.0122 214.69C79.0814 217.274 74.1021 219.732 68.9883 221.935L66.5001 223.008C62.1816 224.866 57.8278 226.691 53.3378 228.072C50.8053 228.851 47.008 229.815 44.4391 230.409C46.5031 232.355 46.7882 233.662 45.2945 234.331C43.054 235.335 41.1978 231.485 41.1239 231.136C40.335 231.301 38.8141 231.583 36.5612 231.982C33.3498 232.602 30.2363 233.83 27.3658 235.401C26.368 235.947 26.0899 234.886 27.1472 234.147C30.2387 231.985 33.8447 230.762 37.5654 229.735L37.7482 229.685C39.1132 229.311 40.4757 228.921 41.8354 228.517C41.6859 227.976 41.5996 227.415 41.6169 226.795C41.6551 225.416 41.777 224.032 41.8502 222.654C42.0038 219.762 42.1999 216.879 42.4296 213.992C42.5178 212.879 42.6167 211.764 42.7298 210.65C42.0007 210.259 41.3719 209.74 40.559 209.484L40.4217 209.444C39.5522 209.21 39.8457 208.089 40.618 207.993C41.3176 207.907 42.0138 207.946 42.7034 208.095C42.8103 208.118 42.9114 208.144 43.0078 208.173C43.1345 207.141 43.2751 206.111 43.4348 205.088C43.8571 202.383 44.1559 199.533 45.0351 196.934C45.1003 196.742 45.386 196.673 45.4919 196.875C46.7708 199.309 46.8153 202.294 46.9594 205.005L46.9773 205.328C47.1472 208.285 47.1569 211.271 47.1021 214.232C47.0459 217.284 46.9414 220.327 46.8045 223.376C46.7495 224.604 46.7517 225.877 46.5426 227.051C54.1535 224.576 61.6299 221.614 68.7962 218.106C73.8513 215.632 78.8628 213.058 83.8171 210.388C86.2995 209.05 88.7934 207.734 91.2732 206.392C92.142 205.921 93.0101 205.449 93.8779 204.976L95.1794 204.266C96.3973 203.601 97.4139 202.94 98.8325 202.893C99.2553 202.879 99.6345 203.077 99.9038 203.377C100.666 202.836 101.547 202.504 102.472 202.512C103.864 200.589 105.277 198.681 106.747 196.815L107.832 195.434C109.711 193.05 111.701 190.63 114.097 188.816C115.167 188.007 116.343 187.399 117.57 186.898C117.281 186.827 116.998 186.685 116.747 186.452C115.575 185.365 115.414 183.346 115.176 181.83C114.929 180.257 115.024 178.85 115.268 177.282C115.363 176.673 116.371 176.546 116.618 177.106C117.136 178.286 117.686 179.416 118.158 180.609L118.297 180.969C118.804 182.312 119.883 183.725 119.812 185.182C119.793 185.581 119.659 185.929 119.452 186.208C120.482 185.866 121.526 185.561 122.555 185.243C125.791 184.243 129.041 183.271 132.34 182.494C133.218 182.288 134.1 182.096 134.986 181.92C135.451 179.715 136.127 177.551 136.925 175.426C136.17 175.039 135.681 174.39 135.03 173.813C134.422 173.272 134.003 172.614 133.484 171.993C133.011 171.429 133.277 170.409 134.126 170.442L134.367 170.452C135.247 170.493 136.1 170.584 136.898 170.995L137.182 171.141C137.572 171.344 137.999 171.576 138.379 171.85C138.876 170.706 139.393 169.573 139.915 168.451L140.593 167.001C142.351 163.226 144.103 159.308 146.31 155.793C147.29 154.231 148.596 153.255 150.469 153.104C152.399 152.948 154.405 153.149 156.337 153.218C158.577 153.298 160.816 153.393 163.053 153.511C162.48 152.91 161.956 152.241 161.38 151.664C160.424 150.708 159.414 149.801 158.352 148.963C156.25 147.305 153.94 145.939 151.539 144.762C149.139 143.585 146.667 142.559 144.414 141.105C142.988 140.185 141.713 139.027 140.55 137.775C139.818 145.675 136.005 153.014 130.276 158.529C124.325 164.256 116.102 167.402 108.058 168.74C99.8529 170.106 91.2894 169.605 83.4403 166.752C79.3932 165.28 75.5117 163.179 72.0501 160.543C72.012 160.772 71.9662 160.999 71.8763 161.212C71.7557 161.498 71.6081 161.742 71.4389 161.993L71.1372 162.435C70.9468 162.712 70.7528 162.987 70.5368 163.245C70.0136 163.868 69.2723 164.141 68.4739 164.138C66.945 164.133 65.7872 162.633 66.1987 161.15C66.4572 160.218 67.0105 159.657 67.8741 159.293C68.1471 159.177 68.4253 159.081 68.7051 158.985L68.9151 158.914C69.1979 158.817 69.4785 158.725 69.7696 158.671C68.1305 157.224 66.6097 155.651 65.2478 153.952C60.9764 148.626 56.7633 141.167 58.1913 134.094C58.216 133.972 58.3253 133.896 58.4431 133.877C58.526 133.38 58.7901 132.9 59.1519 132.577C58.9084 132.513 58.6629 132.464 58.4162 132.43ZM102.771 254.724C103.617 254.253 104.491 255.372 103.803 256.062L102.777 257.089C101.824 258.047 100.897 259.015 100.082 260.106L99.8841 260.373C98.7835 261.871 97.6097 263.607 95.8063 264.166C93.6249 264.843 91.5285 262.185 92.7917 260.244C93.8953 258.547 96.0202 257.907 97.8522 257.205C99.5853 256.541 101.151 255.625 102.771 254.724ZM32.3998 246.893C32.8968 246.242 34.1927 246.585 33.8533 247.506C32.7504 250.497 32.3009 254.575 29.5157 256.563C28.6171 257.203 27.2056 256.909 26.4658 256.169C25.6251 255.328 25.5915 254.144 26.0722 253.118C26.6586 251.866 28.1007 250.959 29.1117 250.006L29.2023 249.919C30.2899 248.862 31.4661 248.116 32.3998 246.893ZM148.809 250.336C149.696 249.953 152.008 249.209 152.694 250.09C152.726 250.122 152.753 250.157 152.775 250.196C152.943 250.488 152.968 250.9 152.775 251.19C151.977 252.39 151.145 253.286 150.01 254.141L149.882 254.235C148.646 255.144 147.486 256.212 145.98 256.622C143.893 257.19 142.435 254.576 143.901 253.049C145.081 251.82 146.884 251.181 148.449 250.495L148.809 250.336ZM64.9931 233.246C64.644 232.615 65.3574 231.84 66.0034 232.235C67.8463 233.362 69.993 234.207 72.0629 234.815C72.9007 235.06 73.6565 235.91 73.5942 236.826L73.5844 236.965C73.5598 237.289 73.5151 237.61 73.3095 237.88C72.5885 238.823 71.5572 239.186 70.4559 238.628C68.0014 237.384 66.3213 235.647 64.9931 233.246ZM118.856 231.334C118.811 231.069 119.006 230.864 119.275 230.915C120.833 231.21 122.271 231.963 123.608 232.828C124.326 233.292 125.018 233.801 125.733 234.27C126.617 234.848 126.948 235.326 127.079 236.388C127.165 237.088 126.511 237.728 125.911 237.922C124.277 238.449 122.404 236.719 121.296 235.595L121.247 235.544C120.087 234.362 119.131 232.964 118.856 231.334ZM165.632 229.498C165.277 228.539 166.501 227.744 167.301 228.215C168.054 228.658 168.872 229.026 169.582 229.534C170.236 230.001 170.831 230.555 171.457 231.061L171.767 231.306C172.915 232.23 174.811 234.514 173.169 235.839C171.606 237.101 169.534 235.49 168.484 234.312L168.411 234.229C167.808 233.531 167.064 232.774 166.626 231.959C166.213 231.192 165.934 230.312 165.632 229.498ZM150.218 155.261C148.26 155.641 147.462 158.058 146.638 159.634C144.692 163.353 142.903 167.139 141.106 170.931C140.553 172.097 140.014 173.272 139.47 174.445C139.437 174.537 139.395 174.628 139.344 174.717C138.231 177.115 137.084 179.498 135.744 181.774C136.971 181.544 138.204 181.348 139.441 181.194C139.379 180.029 140.177 178.469 140.571 177.487L140.604 177.405C141.096 176.147 141.612 174.166 142.879 173.513C143.301 173.296 143.753 173.568 143.785 174.033C143.881 175.418 142.528 177.002 141.866 178.176C141.466 178.887 141.076 179.601 140.696 180.323C140.554 180.593 140.435 180.858 140.288 181.096C140.927 181.027 141.566 180.966 142.206 180.921L142.624 180.892C144.999 180.735 147.522 180.691 149.668 181.862C151.659 182.949 152.677 185.269 151.583 187.382C150.22 190.014 147.219 190.363 144.581 190.576C141.284 190.842 137.981 191.322 134.708 191.79C131.323 192.275 128.135 193.523 124.8 194.165C124.49 194.224 124.297 193.819 124.581 193.645C127.212 192.044 130.41 191.162 133.351 190.264L133.589 190.191C135.184 189.701 136.743 189.141 138.393 188.863C139.995 188.593 141.607 188.375 143.223 188.208L143.38 188.194C145.159 188.045 149.698 188.096 149.506 185.461C149.379 183.717 146.545 183.416 145.252 183.395C139.321 183.3 133.348 184.875 127.711 186.562L126.453 186.939C124.145 187.634 121.834 188.349 119.57 189.163C117.003 190.085 114.982 191.524 113.113 193.493C111.04 195.677 109.033 197.909 106.883 200.019C105.528 201.349 104.155 202.655 102.771 203.951C102.459 204.356 102.209 204.796 102.035 205.368C101.743 206.333 101.81 207.23 101.92 208.222C102.199 210.725 102.261 213.255 102.61 215.751C102.934 218.064 103.386 220.461 104.346 222.606C104.726 223.455 105.221 224.29 105.784 225.036L106.239 225.627C106.437 225.884 106.659 226.165 106.891 226.429C107.233 226.012 107.727 225.741 108.302 225.809C109.523 225.953 110.483 225.918 111.681 225.638C112.608 225.421 113.528 225.166 114.451 224.931C116.263 224.469 118.092 224.048 119.886 223.517L120.195 223.424C121.532 223.013 122.869 222.5 123.982 221.636C125.274 220.633 125.672 219.185 126.63 217.934C128.674 215.261 133.093 215.317 136.085 214.585C138.627 213.963 141.074 212.982 142.833 211.136L142.936 211.027C142.858 210.697 142.985 210.326 143.29 210.155L143.357 210.118C143.476 210.051 143.605 210.024 143.731 210.026C143.894 209.786 144.052 209.539 144.195 209.275C144.313 209.057 144.607 209.217 144.568 209.432C144.545 209.56 144.513 209.685 144.483 209.811C146.188 209.372 148.059 209.456 149.79 209.457L152.035 209.449C152.424 209.444 153.003 209.425 153.055 209.402L153.108 209.378C153.248 209.317 153.049 209.418 153.147 209.288C153.255 209.145 153.36 209 153.464 208.854C153.837 208.333 154.189 207.796 154.534 207.254C150.773 208.213 146.878 208.809 143.038 209.306C138.918 209.84 134.744 210.211 130.588 210.214C129.442 210.216 129.453 208.485 130.588 208.442C134.989 208.274 139.367 208.041 143.739 207.477C145.999 207.185 148.251 206.818 150.489 206.39C151.353 206.225 152.216 206.049 153.076 205.864L153.72 205.723C154.125 205.634 155.268 205.505 155.825 205.131C155.934 204.942 156.044 204.755 156.152 204.567C156.099 203.906 154.42 203.994 154.027 203.993C152.911 203.991 151.795 204 150.679 204.003C148.447 204.01 146.215 203.99 143.982 203.972C139.523 203.936 135.046 203.78 130.59 203.971C129.508 204.017 128.94 202.282 130.009 201.825C134.729 199.809 139.969 199.371 145.008 198.751C147.659 198.426 150.311 198.05 152.901 197.39L153.542 197.227C155.17 196.81 156.967 196.301 158.338 195.306C156.278 194.473 153.717 194.568 151.582 194.45L151.418 194.441C148.428 194.257 145.433 194.163 142.437 194.158C136.308 194.15 130.177 194.367 124.054 194.658C123.9 194.665 123.869 194.422 124.018 194.39C130.311 193.016 136.706 192.355 143.146 192.253C146.146 192.205 149.146 192.248 152.143 192.38L153.243 192.431C155.798 192.541 158.633 192.571 160.77 194.115C161.096 194.35 161.268 194.65 161.295 194.968C164.162 189.251 166.81 183.415 169.468 177.617C171.535 173.11 173.525 168.564 175.667 164.091L176.361 162.644C177.289 160.713 178.241 158.782 179.297 156.922C175.347 156.394 171.375 156.027 167.4 155.746C163.778 155.49 151.962 154.923 150.218 155.261ZM148.469 217.219C148.919 216.969 149.609 217.173 149.72 217.729C149.803 218.143 149.944 218.602 149.944 219.025C149.944 219.532 149.763 220.083 149.666 220.579C149.444 221.72 149.17 222.647 148.59 223.663C148.228 224.299 147.495 224.731 146.759 224.714C146.176 224.7 145.659 224.544 145.259 224.093C144.78 223.552 144.451 222.756 144.714 222.028C145.402 220.12 146.668 218.22 148.469 217.219ZM52.9212 215.316C53.9753 213.469 56.4739 211.819 58.6543 211.982C61.9284 212.227 62.5965 216.637 59.4266 217.69C57.5319 218.318 54.9252 217.673 53.2677 216.638C52.8209 216.359 52.6571 215.779 52.9212 215.316ZM19.2723 209.007C19.0329 208.658 19.4286 208.261 19.7853 208.339C20.5765 208.513 21.4295 208.589 22.2044 208.825C22.998 209.066 23.7662 209.467 24.5523 209.742C26.1991 210.319 27.9582 210.609 29.5519 211.306C30.189 211.584 30.6901 212.507 30.6312 213.187L30.6162 213.346C30.581 213.684 30.5225 213.979 30.3337 214.287C29.8265 215.116 28.8216 215.544 27.8731 215.289C26.1136 214.816 24.3943 213.602 22.8941 212.592L22.6169 212.408C21.9614 211.976 21.2566 211.525 20.7284 210.969C20.1771 210.388 19.724 209.664 19.2723 209.007ZM79.7558 202.29C79.5532 201.56 80.4607 201.078 80.9897 201.571C82.0467 202.556 83.1519 203.469 84.1871 204.479L84.2567 204.548C84.998 205.293 86.0765 206.73 85.1123 207.694C83.877 208.93 82.1567 207.096 81.4939 206.14C80.6533 204.928 80.1491 203.707 79.7558 202.29ZM160.645 196.257C159.077 197.918 156.661 198.682 154.534 199.315C152.011 200.065 149.413 200.513 146.811 200.881C144.298 201.237 141.804 201.555 139.33 201.964C141.201 201.987 143.072 202.001 144.939 202.034C147.092 202.073 149.244 202.12 151.396 202.182C152.964 202.228 154.803 202.013 156.293 202.596C156.561 202.7 156.812 202.846 157.031 203.023C158.283 200.795 159.483 198.537 160.645 196.257ZM63.9233 180.72C65.56 180.2 67.099 179.51 68.834 179.689C69.2951 179.736 69.6254 180.185 69.3737 180.629C68.5514 182.076 67.2144 182.893 65.8982 183.862L65.7822 183.947C64.3416 185.019 62.7948 185.996 61.2282 186.876C58.5309 188.39 56.1137 184.056 58.8377 182.785C60.4767 182.019 62.1984 181.268 63.9233 180.72ZM93.3898 176.957C95.8938 177.122 98.3962 177.234 100.903 177.336C103.807 177.453 102.831 181.923 100.405 181.019C98.0085 180.125 95.6117 179.242 93.1935 178.408C92.4574 178.155 92.5167 176.945 93.3431 176.956L93.3898 176.957ZM29.1676 169.005C29.8165 168.959 30.471 169.101 31.1209 169.164L31.8125 169.231C33.238 169.373 34.5747 169.548 35.9342 170.128C38.4427 171.199 37.0954 175.233 34.5772 175.141C32.7159 175.072 31.1243 174.272 29.5526 173.342C28.1786 172.528 27.3363 171.51 26.4085 170.232C26.1012 169.809 26.5294 169.334 26.9479 169.292C27.685 169.217 28.4302 169.056 29.1676 169.005ZM154.914 160.767C154.499 163.358 153.468 165.786 151.916 167.901C151.135 168.963 149.766 169.003 148.992 167.901C147.898 166.341 148.573 164.553 149.397 163.055L149.641 162.616C150.01 161.959 150.577 160.999 151.224 160.336L151.235 160.269C151.582 157.556 155.341 158.097 154.914 160.767ZM53.6382 144.138C54.2624 143.576 55.412 143.744 55.6146 144.66C55.8981 145.942 56.0706 147.386 55.885 148.687C55.7844 149.392 55.7466 150.184 55.4694 150.841C55.1713 151.548 54.598 152.092 54.0579 152.623C52.9795 153.684 50.7063 153.333 50.4174 151.662L50.3807 151.457C50.2355 150.666 50.0496 149.82 50.2648 149.037C50.4272 148.445 50.7901 147.842 51.0903 147.293L51.1536 147.177C51.7551 146.056 52.6926 144.989 53.6382 144.138ZM141.382 146.865L141.607 146.868C143.35 146.902 146.535 147.326 146.552 149.48C146.556 149.988 146.18 150.514 145.676 150.63C144.635 150.872 143.962 150.256 143.22 149.634C142.613 149.126 141.905 148.72 141.17 148.427C140.376 148.112 140.428 146.864 141.382 146.865Z" fill="black"/>
<path fill-rule="evenodd" clip-rule="evenodd" d="M138.703 43.8175C137.769 38.155 140.833 36.9801 138.703 31.5975C133.968 21.6239 121.063 22.0536 111.594 21.2868C101.032 20.881 90.3418 22.2788 80.605 26.5224C78.2793 27.5359 76.0423 28.7279 73.8979 30.0822C72.0436 31.2534 72.2985 33.4801 73.4677 34.6948C65.0369 46.663 69.8589 62.7278 63.1319 75.3258C61.8892 77.5777 60.2456 79.597 59.1654 81.9401C57.5235 85.5017 57.4183 90.6051 61.1418 92.9704C66.3859 95.7921 69.3124 90.2054 71.8891 98.304C84.7579 126.542 110.632 128.133 135.194 113.41C137.319 112.225 139.488 110.886 141.093 109.024C144.735 104.915 144.306 99.1366 144.386 94.0052C144.431 90.9981 144.439 87.9904 144.41 84.9828C144.295 72.7998 140.267 55.9 138.703 43.8175Z" fill="#EDB98A"/>
<path fill-rule="evenodd" clip-rule="evenodd" d="M86.3869 9.94963C101.217 3.20581 118.038 0.6484 134.215 2.32587C142.2 3.15253 150.08 4.92608 157.579 7.80703L158.236 8.06167C160.087 8.77589 162.082 9.48483 163.489 10.9387C165.126 12.6282 165.586 15.1832 164.415 17.2704C163.506 18.8921 161.871 20.0554 160.128 20.6762C160.742 21.1804 161.325 21.7428 161.871 22.3707C162.793 23.4227 162.863 24.923 161.871 25.9607C159.961 27.9606 157.483 29.4076 154.813 30.1011C155.113 31.5531 154.951 33.1603 154.308 34.6075C152.462 38.7616 147.263 39.2567 143.261 39.01L143.141 39.0023L142.918 41.5549C142.8 42.9148 141.987 43.9693 140.609 44.1778C140.56 44.185 140.512 44.1899 140.464 44.1945C142.645 52.1021 143.963 60.2541 145.179 68.3581C145.815 72.5883 146.383 76.8284 146.928 81.0713L147.109 82.4856C147.689 87.0599 148.415 91.6802 148.666 96.2884C148.891 100.47 148.095 104.462 145.525 107.837C143.218 110.862 140.072 113.129 136.689 114.811C129.045 118.614 121 121.446 112.546 122.759L111.983 122.846C108.72 123.346 105.357 123.767 102.129 122.861C99.293 122.066 96.3184 120.015 96.9592 116.721C97.1744 115.608 98.7269 115.56 99.2589 116.42L99.3817 116.618C100.02 117.632 100.719 118.575 101.832 119.099C103.135 119.715 104.646 119.887 106.071 119.904C110.049 119.95 114.191 118.956 118.021 117.96C125.174 116.098 132.52 113.063 138.379 108.465C140.872 106.511 142.875 104.067 143.581 100.923C144.454 97.0471 143.651 92.8098 143.254 88.9143C142.438 80.8762 141.467 72.853 140.442 64.8387L140.236 63.236C139.373 56.5358 138.467 49.8332 138.036 43.0942C137.857 42.8494 137.736 42.5706 137.688 42.2652L137.62 41.8264C137.562 41.4507 137.552 41.1064 137.593 40.7889C137.596 39.572 137.63 38.3624 137.7 37.1452C137.712 36.9273 137.722 36.7091 137.729 36.4934C136.467 36.7722 135.195 36.9976 133.918 37.1891C124.942 38.5442 115.825 38.8836 106.777 38.2097C102.262 37.8725 97.7816 37.2934 93.3151 36.5686C91.0418 36.2001 88.7763 35.7928 86.5178 35.3371C84.8855 35.0099 83.2871 34.5663 81.6815 34.1493C80.0251 36.5661 79.1304 39.5405 79.3045 42.4615C79.5004 45.7946 81.7154 48.8175 81.0939 52.2233C80.5107 55.4108 77.7866 56.3991 75.0971 57.1885L73.9533 57.5198C73.0733 57.7773 72.4343 58.0258 72.275 59.0859C72.0018 60.9064 72.3379 62.9548 72.408 64.785C72.4926 66.9497 72.6036 69.1144 72.6546 71.2791C72.6812 72.399 72.7245 73.5238 72.7224 74.6437C72.7199 75.4388 72.6014 75.9818 72.2943 76.4955C72.5313 76.7939 72.7439 77.1163 72.9327 77.4581C72.9932 77.5696 72.8433 77.6881 72.754 77.5963C72.5144 77.3466 72.2603 77.1211 71.9921 76.9197C71.8567 77.0872 71.6995 77.2569 71.5155 77.4387L71.5012 77.4193C70.9257 77.9938 70.0116 78.0496 69.298 77.4387L69.1108 77.2761C68.5885 76.8171 68.2296 76.4349 68.0844 75.6764C68.0771 75.6376 68.0696 75.5988 68.065 75.56C66.7375 75.514 65.3882 75.8289 64.1936 76.4909C62.3002 77.5405 60.9678 79.0362 60.1798 80.8833C60.4939 81.2518 60.8614 81.5815 61.2895 81.8578C61.3499 81.899 61.2967 81.9887 61.2314 81.9572C60.7937 81.7512 60.402 81.4966 60.0514 81.1985C59.7685 81.9257 59.5702 82.7062 59.4493 83.5329C59.0237 86.4515 59.783 90.0173 62.4139 91.6802C63.5528 92.4002 64.8538 92.7905 66.2031 92.7953C66.8606 92.7975 67.4291 92.6862 68.0675 92.5286C68.5003 92.422 68.9307 92.2668 69.3829 92.2668C69.7698 92.2668 70.1277 92.3638 70.459 92.5577L70.3671 92.5658C70.1438 92.5868 70.1868 92.5963 70.4977 92.5963C71.4649 92.6377 72.0184 93.6219 71.5737 94.4776L71.5154 94.6098C71.5031 94.6365 71.4927 94.6586 71.4845 94.6761L71.4494 94.9031C71.4459 94.9247 71.4422 94.9469 71.4383 94.9697L71.4249 95.0157C71.4225 95.023 71.4198 95.0303 71.4166 95.0376L72.8672 97.2552C74.6458 99.9681 76.4641 102.671 78.5331 105.148C79.984 106.887 81.5219 108.591 83.1469 110.169C84.6074 111.587 86.3582 112.27 88.0122 113.386C88.895 113.977 89.1535 115.216 88.3509 116.013C85.9955 118.357 82.6609 116.496 80.7288 114.59C78.9007 112.784 77.3216 110.612 75.9602 108.438C73.5445 104.572 71.6221 100.46 70.7806 95.9975C70.43 96.3199 69.9826 96.5211 69.5304 96.6787C68.6236 96.9938 67.6249 97.1247 66.6674 97.1587C64.832 97.2193 62.9942 96.7732 61.3427 95.983C54.6227 92.7711 53.6361 83.1523 57.7445 77.4799C57.1905 75.8694 56.8811 74.122 56.545 72.6319L56.392 71.9658C54.6934 64.5256 53.5525 56.6922 56.5644 49.4017C56.9513 48.4611 57.3866 47.5448 57.9017 46.6673C58.3152 45.9619 59.0261 45.2104 59.222 44.4081C59.6572 42.6457 56.9707 40.7937 56.1872 39.395C55.2659 37.7539 55.1353 35.8171 56.3903 34.3163C56.5499 34.1275 56.7238 33.9527 56.9126 33.8002C55.7229 31.638 55.6673 28.9181 57.2343 26.7849C58.2644 25.379 59.8362 24.3948 61.553 24.0966C62.6025 23.9148 63.8648 23.9827 65.0182 24.3075C71.3341 18.4291 78.5404 13.5179 86.3869 9.94963ZM62.1333 83.5038C63.8189 82.013 65.6809 81.2324 67.9781 81.4288C70.2874 81.6273 73.0683 82.5851 74.4246 84.5704C75.4961 86.1388 73.3125 88.4392 71.7407 87.2611C70.3092 86.1873 69.3538 84.9752 67.5767 84.3983C65.9805 83.882 64.0049 83.5499 62.334 83.8456C62.1502 83.8771 61.9666 83.6492 62.1333 83.5038Z" fill="black"/>
<path fill-rule="evenodd" clip-rule="evenodd" d="M114.603 94.498C115.959 92.2674 118.848 97.7317 119.155 98.6713C119.427 99.5037 119.607 100.356 119.698 101.219C120.749 101.454 121.84 101.455 122.917 101.248C124.517 100.941 125.496 100.08 126.887 99.3414C127.847 98.8307 129.058 99.4296 129.558 100.277C130.146 101.273 129.771 102.308 128.998 103.051C127.532 104.461 124.648 104.784 122.735 104.41C121.639 104.196 120.634 103.785 119.747 103.187C119.741 103.298 119.737 103.41 119.728 103.521L119.711 103.715C119.564 105.278 119.135 107.243 117.921 108.26C115.931 109.928 113.474 106.72 115.408 105.053L115.468 105.003C116.67 104.032 116.933 101.425 116.868 99.9886C116.825 99.0514 116.655 98.1021 116.359 97.2095L116.298 97.0317C116.209 96.7796 115.238 94.3876 114.887 94.6923L114.871 94.7094C114.726 94.8822 114.492 94.6809 114.603 94.498ZM125.426 81.9109C127.256 83.0236 130.044 85.6181 128.076 88.3766C125.759 90.8088 122.423 88.0201 120.779 86.7589C119.254 85.7814 117.541 88.2953 118.956 89.4367C130.835 98.235 135.656 82.2019 126.352 80.6027C125.327 80.4265 124.947 81.5667 125.426 81.9109ZM105.886 71.6263C107.675 71.309 109.507 71.7538 110.987 72.8005L111.099 72.8812C112.525 73.9243 114.12 75.7558 113.302 77.5537C112.973 78.2756 111.99 78.3888 111.366 78.0615C110.327 77.5166 110.139 76.1758 109.212 75.4338C108.452 74.8256 107.428 74.4567 106.449 74.5456C104.149 74.7546 102.735 77.0238 102.02 78.9793C101.929 79.2294 101.562 79.3267 101.418 79.0581C99.7339 75.9087 102.715 72.1892 105.886 71.6263ZM134.532 70.4378C137.957 70.1554 141.967 73.7081 141.065 77.3253C140.633 79.061 138.059 79.0113 137.601 77.3253C137.35 76.3976 137.375 75.5768 136.707 74.8065C136.156 74.1704 135.373 73.8009 134.532 73.8577C133.604 73.9202 132.748 74.3839 132.098 75.0358C131.511 75.6243 131.16 76.4856 130.552 77.0066C130.402 77.1346 130.202 77.1428 130.054 77.0066C129.007 76.041 129.635 74.031 130.299 73.0231C131.249 71.5807 132.796 70.581 134.532 70.4378ZM99.3629 65.2109C101.561 63.2648 105.554 61.3854 108.517 62.3432C110.221 62.8937 110.964 65.64 109.062 66.5104C106.859 67.5184 104.32 67.1082 102.078 68.153C101.137 68.592 100.251 69.1406 99.5958 69.9451C99.0794 70.5793 98.554 71.4137 97.8072 71.7792C97.6109 71.8754 97.3451 71.8779 97.1878 71.6995C95.5507 69.847 97.9334 66.4765 99.3629 65.2109ZM130.754 62.2466C132.113 61.8653 133.619 61.873 134.999 62.1125C136.379 62.352 137.779 62.9239 138.905 63.758L139.036 63.8557C140.265 64.7824 141.732 66.1307 141.653 67.7723C141.588 69.1431 140.146 70.0703 138.902 69.3518C137.887 68.7659 137.41 67.5922 136.551 66.8107C135.842 66.1656 135.009 65.657 134.121 65.3007C133.134 64.9049 132.146 64.7194 131.087 64.7017C130.271 64.6881 129.451 64.9558 128.651 65.0413C128.717 65.1766 128.084 65.1136 127.722 64.9936C127.453 64.8792 127.452 64.5395 127.545 64.3192C128.007 63.2276 129.686 62.5462 130.754 62.2466Z" fill="black"/>
</svg>
